<svg width="55" height="55" viewBox="0 0 55 55" fill="none" xmlns="http://www.w3.org/2000/svg">
<rect width="55" height="55" rx="15" fill="#F28482" fill-opacity="0.15"/>
<path d="M37.6199 20.4633C37.6157 21.1632 37.2361 21.796 36.638 22.1165L34.3756 23.3213L32.4513 24.3337L28.4596 26.4614C28.0305 26.6922 27.5632 26.806 27.0837 26.8032C26.6042 26.8003 26.1383 26.6809 25.712 26.445L17.586 22.0028C16.9918 21.6752 16.6197 21.0379 16.6239 20.338C16.6281 19.6382 17.0077 19.0053 17.6058 18.6849L20.1673 17.3263L22.2086 16.2368L25.7842 14.3399C26.6424 13.8785 27.6792 13.8846 28.5318 14.3563L36.6578 18.7986C37.252 19.1262 37.6241 19.7635 37.6199 20.4633Z" fill="#F28482"/>
<path d="M24.3535 27.967L16.7942 24.1373C16.2127 23.8357 15.5386 23.8706 14.9793 24.2042C14.4199 24.5379 14.0924 25.1321 14.0885 25.7801L14.0457 32.9473C14.0383 34.1915 14.7186 35.3102 15.8298 35.8742L23.3892 39.7039C23.6476 39.835 23.9323 39.9015 24.2175 39.9032C24.5544 39.9052 24.892 39.8165 25.1912 39.6239C25.7505 39.2903 26.0781 38.696 26.082 38.048L26.1247 30.8808C26.145 29.6496 25.4648 28.5309 24.3535 27.967Z" fill="#F28482"/>
<path d="M40.0876 25.9328L40.0448 33.1C40.0375 34.3312 39.3439 35.4417 38.226 35.9924L30.6214 39.7445C30.3614 39.8726 30.0759 39.9357 29.7908 39.934C29.4538 39.932 29.1174 39.8393 28.8075 39.643C28.2652 39.3028 27.9318 38.7046 27.9356 38.0566L27.9783 30.9024C27.9857 29.6581 28.6793 28.5476 29.7972 27.997L32.592 26.6268L34.5419 25.6664L37.4017 24.2578C37.9867 23.9632 38.6605 23.9931 39.2157 24.3464C39.758 24.6866 40.0915 25.2848 40.0876 25.9328Z" fill="#F28482"/>
</svg>
