<svg width="75" height="143" viewBox="0 0 75 143" fill="none" xmlns="http://www.w3.org/2000/svg">
<path d="M72.763 37.2106C58.4332 56.6248 43.4878 79.1398 39.8398 103.479C39.8413 103.555 39.8693 103.629 39.919 103.687C39.9687 103.745 40.037 103.784 40.1123 103.798C40.1876 103.811 40.2652 103.798 40.3319 103.761C40.3987 103.723 40.4504 103.664 40.4782 103.593C42.1218 96.9566 44.2362 90.4459 46.8052 84.1102C56.233 81.5224 65.4784 79.3906 70.426 70.0426C75.4648 60.4324 74.8264 47.9038 73.846 37.4272C73.8118 36.8686 73.048 36.8458 72.763 37.2106Z" fill="#7787B1"/>
<path d="M46.9646 83.9279C53.3942 69.4841 61.6592 54.9833 72.17 43.1045C72.2384 43.0247 72.341 43.1045 72.284 43.2185C65.444 51.6773 60.1773 60.8999 55.0815 70.2707C59.8239 65.4485 65.0222 61.1507 69.5138 56.0321C69.605 55.9295 69.7419 56.0321 69.6621 56.1689C65.1933 61.5269 60.3255 67.3523 54.5115 71.3081C52.9497 74.1809 51.3764 77.0765 49.7804 79.9607C50.168 79.7441 50.5784 79.5389 50.9204 79.3451C50.9888 79.3451 51.0572 79.4135 50.9204 79.4477C50.4758 79.6757 50.0427 79.9151 49.5867 80.1089C48.8343 81.4769 48.0819 82.8335 47.3067 84.2015C47.2497 84.4979 46.8278 84.2357 46.9646 83.9279Z" fill="#213B31"/>
<path d="M51.7544 78.8886C55.6079 76.7331 59.2862 74.2784 62.7554 71.547C62.8466 71.4786 62.9834 71.604 62.8808 71.6838C59.5241 74.589 55.8443 77.0983 51.914 79.1622C51.7316 79.2534 51.572 78.9912 51.7544 78.8886Z" fill="#213B31"/>
<path d="M38.1988 99.8547C38.1988 99.9242 38.2265 99.9909 38.2756 100.04C38.3248 100.089 38.3915 100.117 38.461 100.117C38.5306 100.117 38.5973 100.089 38.6465 100.04C38.6956 99.9909 38.7232 99.9242 38.7232 99.8547C38.7916 91.8747 38.7232 83.792 38.8486 75.7436C40.9006 71.6054 45.3011 69.3027 48.3677 65.9853C50.5685 63.5535 52.4812 60.8758 54.0677 58.0053C57.7549 51.1638 60.0086 43.6425 60.691 35.9007C61.5347 27.3279 58.2857 -0.955531 54.6719 0.0248693C52.8023 0.537869 46.6918 14.5485 45.13 19.1769C42.5261 26.8171 40.6184 34.6771 39.43 42.6609C36.523 61.5165 36.7624 80.8851 38.1988 99.8547Z" fill="#7787B1"/>
<path d="M38.1416 65.2892C38.5748 55.1546 40.8662 44.906 42.998 35.0792C45.278 24.4772 48.0026 14.5592 53.4518 5.05159C53.5544 4.88059 53.8166 5.05159 53.7254 5.21119C50.0805 12.5602 47.2627 20.2912 45.3236 28.262C45.6884 27.6806 46.133 27.122 46.4636 26.609C46.6118 26.3924 46.9538 26.609 46.8056 26.8142C46.3206 27.6704 45.7516 28.4762 45.107 29.2196H45.0386C43.1576 36.7892 41.8124 44.5298 40.661 52.259L40.9118 51.9626C40.9254 51.951 40.9426 51.9444 40.9604 51.9437C40.9783 51.9431 40.9958 51.9484 41.0103 51.9589C41.0248 51.9695 41.0353 51.9845 41.0401 52.0017C41.045 52.0189 41.044 52.0372 41.0372 52.0538L40.5698 52.8176C39.9998 56.7392 39.4488 60.6456 38.9168 64.5368C45.8936 58.5632 51.8558 51.5294 55.2302 42.8768C51.9356 51.8714 46.7486 59.8628 38.7458 65.3234L38.3012 68.447C38.3012 68.6636 37.925 68.6066 37.9364 68.447C37.9364 67.5236 37.9364 66.6002 38.0162 65.6654C37.9784 65.6405 37.9499 65.6039 37.9351 65.5612C37.9203 65.5184 37.9201 65.472 37.9344 65.4291C37.9487 65.3862 37.9767 65.3493 38.0142 65.324C38.0517 65.2987 38.0965 65.2864 38.1416 65.2892Z" fill="#213B31"/>
<path d="M41.4225 50.6416C46.7577 42.6616 51.7509 34.9438 55.6497 26.143C55.6497 26.0404 55.8663 26.143 55.8207 26.2114C52.5375 34.9552 47.9205 43.8244 41.6961 50.8468C41.5707 50.9494 41.3199 50.7556 41.4225 50.6416Z" fill="#213B31"/>
<path d="M48.5171 24.1253C50.7287 20.2151 53.0771 16.4075 55.1405 12.4175C55.1405 12.3149 55.3571 12.4175 55.3115 12.5201C53.5946 16.6789 51.4311 20.6389 48.8591 24.3305C48.8268 24.3633 48.7844 24.3842 48.7388 24.39C48.6932 24.3958 48.6469 24.3861 48.6074 24.3624C48.568 24.3387 48.5376 24.3025 48.5213 24.2595C48.5049 24.2165 48.5034 24.1692 48.5171 24.1253Z" fill="#213B31"/>
<path d="M32.7736 76.6796C32.6664 81.991 32.0402 87.2791 30.904 92.4686C30.9838 93.0386 31.0636 93.6086 31.1434 94.2014C32.7811 88.4672 33.7301 82.5584 33.9706 76.5998C34.0186 76.5166 34.0439 76.4223 34.0439 76.3262C34.0439 76.2302 34.0186 76.1358 33.9706 76.0527C34.2028 68.0635 33.6107 60.0716 32.2036 52.2038C29.7184 37.475 24.3034 23.3504 14.032 12.3038C13.946 12.2318 13.8448 12.1802 13.736 12.153C13.6272 12.1258 13.5136 12.1236 13.4038 12.1467C13.2941 12.1697 13.191 12.2174 13.1023 12.2861C13.0136 12.3548 12.9417 12.4427 12.892 12.5432C8.75379 23.0768 10.2016 35.651 13.7242 46.1732C15.6513 51.861 18.3972 57.2375 21.8752 62.1332C25.4206 67.0808 29.9122 71.276 32.7736 76.6796Z" fill="#7787B1"/>
<path d="M15.261 17.2275C25.0194 33.0279 31.7682 51.7809 32.6004 70.4199C32.6004 70.7505 32.0532 70.8417 32.0076 70.4997C31.7796 68.8201 31.5288 67.1557 31.2552 65.5065C27.2196 61.6533 23.0928 57.5835 20.2086 52.7613C20.2033 52.7434 20.2036 52.7244 20.2095 52.7067C20.2153 52.689 20.2265 52.6736 20.2414 52.6624C20.2563 52.6513 20.2742 52.6449 20.2928 52.6442C20.3114 52.6436 20.3298 52.6486 20.3454 52.6587C23.6833 56.7549 27.2616 60.6492 31.0614 64.3209C30.366 60.1941 29.5452 56.1357 28.5648 52.1343L27.7896 51.2337C27.6186 51.0285 27.9036 50.7435 28.0746 50.9373L28.314 51.1995C26.9406 45.7152 25.2428 40.3173 23.2296 35.0343C20.7444 32.0817 17.9742 29.5281 16.173 25.9713C16.1626 25.9636 16.1541 25.9535 16.1484 25.9418C16.1427 25.9302 16.14 25.9173 16.1404 25.9043C16.1408 25.8913 16.1444 25.8786 16.1508 25.8673C16.1572 25.8561 16.1663 25.8465 16.1773 25.8395C16.1882 25.8326 16.2007 25.8284 16.2137 25.8273C16.2266 25.8263 16.2396 25.8284 16.2516 25.8335C16.2635 25.8386 16.274 25.8466 16.2822 25.8567C16.2904 25.8668 16.2959 25.8787 16.2984 25.8915C17.7462 27.9321 19.1598 29.9727 20.8584 31.8651C21.5196 32.6175 22.2378 33.3243 22.9104 34.0539C20.6674 28.3265 18 22.7744 14.9304 17.4441C14.9239 17.4028 14.9293 17.3606 14.9462 17.3224C14.9631 17.2842 14.9907 17.2517 15.0256 17.2288C15.0606 17.2059 15.1014 17.1936 15.1431 17.1934C15.1849 17.1931 15.2259 17.205 15.261 17.2275Z" fill="#213B31"/>
<path d="M17.2346 36.7072C20.381 40.948 23.9607 44.9837 26.8905 49.3612C26.9703 49.4866 26.7879 49.612 26.6853 49.5208C22.9346 45.9982 19.7541 41.1761 17.0181 36.8327C16.9383 36.6959 17.1434 36.5932 17.2346 36.7072Z" fill="#213B31"/>
<path d="M27.3008 50.345L27.4262 50.4818C27.5288 50.573 27.4262 50.7212 27.2894 50.63L27.1526 50.4932C27.0956 50.402 27.3008 50.2538 27.3008 50.345Z" fill="#213B31"/>
<path d="M0.00738831 47.5952C1.14991 56.418 4.69964 64.7559 10.2674 71.6948C12.5561 74.4193 15.3912 76.6331 18.5894 78.1928C22.2032 79.9826 25.9766 82.0346 29.7044 83.5052C31.4814 88.021 32.8027 92.703 33.6488 97.4816C33.7628 97.0712 33.8882 96.6494 34.0022 96.2504C31.631 75.719 18.3158 58.0718 1.28419 46.7858C1.15062 46.6994 0.995083 46.6531 0.836009 46.6524C0.676934 46.6516 0.520985 46.6965 0.38663 46.7817C0.252276 46.8668 0.145147 46.9887 0.0779338 47.1329C0.0107202 47.2771 -0.0137609 47.4375 0.00738831 47.5952Z" fill="#7787B1"/>
<path d="M5.90437 53.6752C5.77897 53.5726 5.90437 53.356 6.07537 53.4586C15.4198 60.4202 22.8673 69.616 27.7354 80.2029C27.8608 80.4879 27.4732 80.7273 27.3136 80.4537C26.5156 79.0629 25.7062 77.7177 24.8854 76.3839C20.998 75.6429 17.3158 72.964 14.4316 70.3078C14.3518 70.2394 14.4316 70.1253 14.5456 70.1937C16.0344 71.5394 17.6894 72.6887 19.4704 73.6137C21.0815 74.3505 22.729 75.005 24.4066 75.5745C22.9702 73.2945 21.4654 71.0944 19.9036 68.9626C15.7037 67.3671 11.7653 65.1539 8.21857 62.3961C8.10457 62.3163 8.21857 62.1339 8.32117 62.2137C11.8383 64.3371 15.4648 66.2739 19.1854 68.0163C16.8099 64.8856 14.2479 61.901 11.5132 59.0787C10.1908 58.3833 8.85697 57.6765 7.58017 56.9355C7.55997 56.9207 7.54522 56.8996 7.53821 56.8755C7.53121 56.8514 7.53234 56.8257 7.54143 56.8024C7.55052 56.779 7.56706 56.7593 7.58849 56.7462C7.60992 56.7332 7.63504 56.7276 7.65997 56.7303C8.72229 57.1074 9.73632 57.6087 10.681 58.2237C9.17617 56.7075 7.59157 55.2028 5.90437 53.6752Z" fill="#213B31"/>
<path d="M6.26688 60.7846C6.49514 60.9235 6.71238 61.0797 6.91667 61.252C6.98507 61.309 6.91668 61.3888 6.83688 61.3546C6.59687 61.2478 6.3678 61.118 6.15288 60.967C6.03888 60.8986 6.14148 60.7048 6.26688 60.7846Z" fill="#213B31"/>
<path d="M60.6111 142.046H13.9395L17.7015 99.5466L18.5337 90.1758H56.0169L56.8491 99.5466L60.6111 142.046Z" fill="#16925F"/>
<path d="M56.8488 99.5466H17.7012L18.5334 90.1758H56.0166L56.8488 99.5466Z" fill="#213B31"/>
<path d="M58.2508 83.6191H16.2988V92.8988H58.2508V83.6191Z" fill="#16925F"/>
</svg>
