<svg width="194" height="298" viewBox="0 0 194 298" fill="none" xmlns="http://www.w3.org/2000/svg">
<path d="M180.165 0H48.8144C45.2577 0.0331117 41.8597 1.47705 39.3672 4.01446C36.8747 6.55186 35.4916 9.97511 35.522 13.5318V283.94C35.4946 287.496 36.8787 290.917 39.3705 293.454C41.8624 295.991 45.2587 297.435 48.8144 297.472H180.165C181.93 297.46 183.675 297.1 185.3 296.413C186.926 295.727 188.4 294.727 189.639 293.47C190.877 292.213 191.856 290.725 192.519 289.089C193.182 287.454 193.517 285.704 193.503 283.94V13.5318C193.518 11.7669 193.185 10.0163 192.522 8.38043C191.86 6.74454 190.881 5.25544 189.642 3.99844C188.403 2.74143 186.928 1.74121 185.302 1.05509C183.676 0.368978 181.93 0.010433 180.165 0ZM185.158 275.572C185.158 282.697 179.835 288.454 173.257 288.454H55.7456C49.1564 288.454 43.8212 282.697 43.8212 275.572V23.7804C43.8212 9.2796 49.1564 8.5728 55.7456 8.5728H79.2752C80.6432 8.5728 81.7718 10.1232 81.7718 11.9928V12.825C81.7718 17.385 84.2342 17.385 87.278 17.385H141.713C144.768 17.385 147.219 17.385 147.219 12.825V11.9928C147.219 10.0662 148.359 8.5728 149.716 8.5728H173.257C179.835 8.5728 185.158 10.4994 185.158 23.7804V275.572Z" fill="#213B31"/>
<path d="M121.924 11.7768H107.104C106.862 11.7768 106.63 11.6807 106.459 11.5097C106.288 11.3387 106.191 11.1067 106.191 10.8648C106.19 10.7441 106.212 10.6243 106.258 10.5123C106.303 10.4003 106.37 10.2984 106.455 10.2125C106.539 10.1266 106.64 10.0585 106.752 10.0119C106.863 9.96536 106.983 9.9414 107.104 9.94141H121.924C122.044 9.9414 122.164 9.96536 122.275 10.0119C122.387 10.0585 122.488 10.1266 122.572 10.2125C122.657 10.2984 122.724 10.4003 122.769 10.5123C122.815 10.6243 122.837 10.7441 122.836 10.8648C122.836 11.1067 122.739 11.3387 122.568 11.5097C122.397 11.6807 122.165 11.7768 121.924 11.7768Z" fill="#16925F"/>
<path d="M185.169 23.7799V275.572C185.169 282.697 179.834 288.454 173.256 288.454H55.745C49.1558 288.454 43.832 282.697 43.832 275.572V23.7799C43.832 9.27906 49.1558 8.57227 55.745 8.57227H79.286C80.654 8.57227 81.7712 10.1227 81.7712 11.9923V12.8245C81.7712 17.3845 84.2336 17.3845 87.2774 17.3845H141.712C144.779 17.3845 147.219 17.3845 147.219 12.8245V11.9923C147.219 10.0657 148.359 8.57227 149.715 8.57227H173.256C179.823 8.57227 185.169 10.4989 185.169 23.7799Z" fill="white"/>
<path d="M185.171 23.7799V38.4745H43.8105V23.7799C43.8105 9.27906 49.1344 8.57227 55.7236 8.57227H79.2645C80.6325 8.57227 81.7497 10.1227 81.7497 11.9923V12.8245C81.7497 17.3845 84.2121 17.3845 87.2559 17.3845H141.691C144.758 17.3845 147.197 17.3845 147.197 12.8245V11.9923C147.197 10.0657 148.337 8.57227 149.694 8.57227H173.235C179.824 8.57227 185.171 10.4989 185.171 23.7799Z" fill="#7787B1"/>
<path d="M75.2159 14.2262L74.9879 14.4542C74.952 14.5015 74.9098 14.5437 74.8625 14.5796C74.2794 13.9997 73.4904 13.6742 72.668 13.6742C71.8456 13.6742 71.0567 13.9997 70.4735 14.5796L70.3823 14.4314L70.1543 14.2148C70.2438 14.1215 70.3389 14.034 70.4393 13.9526C70.6428 13.7871 70.8647 13.6456 71.1005 13.5308C71.3825 13.3931 71.6815 13.2934 71.9897 13.2344H72.4229H72.8105H73.1183C73.5976 13.289 74.06 13.4444 74.4749 13.6904C74.6574 13.795 74.8292 13.9171 74.9879 14.0552L75.2273 14.2718L75.2159 14.2262Z" fill="white"/>
<path d="M71.2026 15.297L70.8379 14.9436C71.2348 14.5437 71.7509 14.2837 72.3085 14.2026C72.7049 14.1448 73.1094 14.1807 73.4895 14.3074C73.8696 14.4341 74.2147 14.6481 74.4972 14.9322L74.1438 15.297C73.753 14.9085 73.2243 14.6905 72.6733 14.6905C72.1222 14.6905 71.5935 14.9085 71.2026 15.297Z" fill="white"/>
<path d="M73.8031 15.6648L73.4497 16.0182C73.3524 15.9169 73.2356 15.8363 73.1062 15.7814C72.9769 15.7266 72.8378 15.6985 72.6973 15.699C72.4157 15.7088 72.1476 15.8225 71.9449 16.0182L71.5801 15.6648C71.7246 15.5163 71.8974 15.3982 72.0883 15.3175C72.2792 15.2369 72.4844 15.1953 72.6916 15.1953C72.8989 15.1953 73.104 15.2369 73.2949 15.3175C73.4858 15.3982 73.6586 15.5163 73.8031 15.6648Z" fill="white"/>
<path d="M72.9949 16.3329C72.9949 16.4186 72.9617 16.501 72.9021 16.5627C72.8426 16.6244 72.7614 16.6605 72.6757 16.6635C72.6 16.6492 72.5316 16.609 72.4824 16.5496C72.4332 16.4903 72.4062 16.4157 72.4062 16.3386C72.4062 16.2615 72.4332 16.1868 72.4824 16.1275C72.5316 16.0682 72.6 16.0279 72.6757 16.0137C72.7595 16.0165 72.839 16.0511 72.8983 16.1103C72.9575 16.1696 72.9921 16.2491 72.9949 16.3329Z" fill="white"/>
<path d="M53.043 14.9211C53.043 14.7362 53.0979 14.5555 53.2006 14.4018C53.3033 14.248 53.4493 14.1282 53.6201 14.0575C53.7909 13.9867 53.9788 13.9682 54.1601 14.0043C54.3415 14.0404 54.5081 14.1294 54.6388 14.2601C54.7695 14.3909 54.8586 14.5574 54.8946 14.7387C54.9307 14.9201 54.9122 15.108 54.8414 15.2789C54.7707 15.4497 54.6508 15.5957 54.4971 15.6984C54.3434 15.8011 54.1627 15.8559 53.9778 15.8559C53.7308 15.853 53.4947 15.7535 53.32 15.5789C53.1454 15.4042 53.0459 15.1681 53.043 14.9211Z" fill="white"/>
<path d="M55.9961 14.9211C55.9961 14.7362 56.0509 14.5555 56.1536 14.4018C56.2563 14.248 56.4023 14.1282 56.5731 14.0575C56.7439 13.9867 56.9319 13.9682 57.1133 14.0043C57.2946 14.0404 57.4612 14.1294 57.5919 14.2601C57.7226 14.3909 57.8117 14.5574 57.8478 14.7387C57.8838 14.9201 57.8653 15.108 57.7945 15.2789C57.7238 15.4497 57.604 15.5957 57.4502 15.6984C57.2965 15.8011 57.1158 15.8559 56.9309 15.8559C56.683 15.8559 56.4452 15.7574 56.2699 15.5821C56.0946 15.4068 55.9961 15.169 55.9961 14.9211Z" fill="white"/>
<path d="M58.9824 14.9211C58.9824 14.7362 59.0372 14.5555 59.14 14.4018C59.2427 14.248 59.3887 14.1282 59.5595 14.0575C59.7303 13.9867 59.9183 13.9682 60.0996 14.0043C60.2809 14.0404 60.4475 14.1294 60.5782 14.2601C60.709 14.3909 60.798 14.5574 60.8341 14.7387C60.8702 14.9201 60.8516 15.108 60.7809 15.2789C60.7101 15.4497 60.5903 15.5957 60.4366 15.6984C60.2828 15.8011 60.1021 15.8559 59.9172 15.8559C59.6693 15.8559 59.4315 15.7574 59.2562 15.5821C59.0809 15.4068 58.9824 15.169 58.9824 14.9211Z" fill="white"/>
<path d="M61.8907 14.9224C61.8884 14.7343 61.9423 14.5498 62.0454 14.3924C62.1485 14.2351 62.2962 14.1121 62.4695 14.039C62.6429 13.966 62.8341 13.9463 63.0187 13.9825C63.2033 14.0186 63.3729 14.109 63.5059 14.242C63.6389 14.375 63.7292 14.5446 63.7654 14.7292C63.8015 14.9138 63.7818 15.105 63.7088 15.2784C63.6358 15.4517 63.5128 15.5994 63.3554 15.7025C63.1981 15.8056 63.0136 15.8594 62.8255 15.8572C62.5785 15.8542 62.3424 15.7548 62.1678 15.5801C61.9931 15.4054 61.8937 15.1694 61.8907 14.9224Z" fill="white"/>
<path d="M64.8438 14.9211C64.8438 14.6732 64.9422 14.4354 65.1175 14.2601C65.2929 14.0848 65.5306 13.9863 65.7786 13.9863C66.0265 13.9863 66.2643 14.0848 66.4396 14.2601C66.6149 14.4354 66.7134 14.6732 66.7134 14.9211C66.7134 15.169 66.6149 15.4068 66.4396 15.5821C66.2643 15.7574 66.0265 15.8559 65.7786 15.8559C65.5306 15.8559 65.2929 15.7574 65.1175 15.5821C64.9422 15.4068 64.8438 15.169 64.8438 14.9211Z" fill="white"/>
<path d="M174.568 16.9617H166.93V13.4277H174.568V16.9617ZM167.329 16.5627H174.169V13.8267H167.329V16.5627Z" fill="white"/>
<path d="M172.482 14.0352H167.568V16.3722H172.482V14.0352Z" fill="white"/>
<path d="M175.241 14.25H174.568V16.1424H175.241V14.25Z" fill="white"/>
<path d="M174.692 288.352C174.217 288.421 173.737 288.456 173.256 288.455H124.931C124.931 288.261 124.84 288.067 124.806 287.874C124.772 287.68 124.681 287.326 124.624 287.053C124.567 286.779 124.498 286.437 124.43 286.141C117.453 253.662 111.377 215.221 109.268 205.794C106.709 199.432 104.547 192.917 102.793 186.288C102.69 185.935 102.599 185.57 102.496 185.205C101.767 182.389 101.048 179.391 100.41 176.268C99.6007 172.346 98.9166 168.288 98.4492 164.047C98.4492 164.047 137.62 164.047 150.616 164.047H154.742L154.822 164.195C156.741 168.088 158.394 172.106 159.77 176.222C163.19 186.243 166.313 200.641 161.89 212.246C161.286 213.819 169.049 266.578 174.692 288.352Z" fill="#444042"/>
<path d="M138.007 288.453H136.696C136.195 285.272 135.716 282.092 135.203 278.923C133.333 267.226 131.468 255.526 129.606 243.822L129.537 243.389L129.229 241.496C129.127 240.835 129.013 240.163 128.91 239.49C128.158 234.93 127.417 230.438 126.858 225.89C126.379 222.048 125.787 218.229 125.194 214.399L124.954 212.917C124.681 211.207 124.418 209.497 124.156 207.764C123.94 206.293 123.723 204.811 123.529 203.329C123.529 203.021 123.94 202.885 123.997 203.204C124.601 206.441 125.137 209.702 125.673 212.951L125.912 214.444C126.254 216.576 126.596 218.719 126.949 220.851C127.451 223.849 128.089 226.813 128.602 229.811C128.876 231.442 129.138 233.072 129.4 234.691C129.503 235.363 129.617 236.036 129.719 236.697C129.822 237.358 129.936 237.997 130.039 238.646V238.829C131.931 250.616 133.812 262.396 135.682 274.169C136.457 278.942 137.232 283.703 138.007 288.453Z" fill="#213B31"/>
<path d="M154.824 164.046V164.194C154.642 168.253 154.235 172.299 153.604 176.313C152.167 185.763 149.044 198.999 142.204 209.874C142.204 209.874 139.924 210.729 137.382 211.835C135.57 212.585 133.796 213.426 132.069 214.354H132.001C132.001 214.354 132.001 214.503 132.001 214.799C131.784 216.828 130.861 225.595 129.721 236.63C129.561 238.192 129.402 239.788 129.231 241.429C127.612 257.389 125.685 276.462 124.671 287.029C124.625 287.516 124.579 287.983 124.534 288.432H77.0527C77.6683 276.678 80.9743 220.214 91.5307 178.855C91.7701 177.943 92.0096 177.031 92.249 176.142C92.3516 175.743 92.4655 175.344 92.5795 174.945C93.0241 173.28 93.4916 171.639 93.9704 170.031C93.9704 170.031 93.9704 169.951 93.9704 169.906L94.3466 168.663C94.8368 167.079 95.3384 165.528 95.8514 164.023L154.824 164.046Z" fill="#444042"/>
<path d="M106.466 168.937C105.866 171.392 105.299 173.846 104.767 176.301C104.049 179.619 103.399 182.947 102.795 186.288C101.336 194.336 100.173 202.43 99.1358 210.535C97.3802 224.386 95.7158 238.26 94.3022 252.145C93.071 264.229 92.1248 276.332 91.4636 288.454H90.2324C91.7828 263.773 94.4619 239.195 97.7451 214.674C99.0561 204.813 100.515 194.963 102.499 185.205C103.103 182.229 103.753 179.254 104.46 176.301C105.052 173.827 105.679 171.365 106.363 168.914L106.466 168.937Z" fill="#213B31"/>
<path d="M92.4539 175.011C92.4539 174.987 92.4635 174.964 92.4806 174.947C92.4977 174.93 92.5209 174.92 92.5451 174.92C92.5693 174.92 92.5925 174.93 92.6096 174.947C92.6267 174.964 92.6363 174.987 92.6363 175.011C92.4083 178.363 91.8383 182.022 93.3317 185.18C94.6427 187.973 97.1507 189.546 99.4535 191.427C99.5219 191.427 99.4535 191.598 99.3623 191.575C96.2957 190.652 93.2405 188.953 92.0435 185.818C90.6869 182.33 91.4165 178.5 92.4539 175.011Z" fill="#213B31"/>
<path d="M118.001 212.689C120.459 212.613 122.918 212.697 125.365 212.94C127.767 213.071 130.175 213.026 132.57 212.803C133.772 212.691 134.964 212.493 136.138 212.211C137.358 211.926 138.509 211.47 139.718 211.139C140.817 210.899 141.959 210.946 143.035 211.276C144.312 211.561 145.589 211.755 146.888 211.926C149.84 212.36 152.833 212.437 155.803 212.154C155.917 212.154 155.974 212.313 155.803 212.336C153.307 212.865 150.762 213.129 148.211 213.123C146.905 213.096 145.602 212.978 144.312 212.769C143.122 212.434 141.889 212.276 140.653 212.302C139.444 212.618 138.253 212.999 137.084 213.442C135.898 213.768 134.69 214.016 133.471 214.183C131.025 214.498 128.555 214.574 126.095 214.411C123.313 214.335 120.551 213.91 117.875 213.145C117.838 213.113 117.811 213.071 117.796 213.023C117.782 212.976 117.781 212.926 117.795 212.878C117.808 212.83 117.834 212.787 117.87 212.754C117.907 212.72 117.952 212.698 118.001 212.689Z" fill="#213B31"/>
<path d="M131.943 213.831C131.943 214.024 131.943 214.207 131.943 214.401C131.943 214.594 131.943 214.708 131.943 214.868C131.818 219.633 131.305 224.398 130.906 229.152C130.632 232.382 130.351 235.608 130.062 238.831C129.903 240.495 129.755 242.16 129.595 243.824C129.595 244.041 129.595 244.246 129.538 244.462C128.58 254.722 127.668 264.88 126.471 275.06C126.129 277.956 125.776 280.84 125.4 283.735C125.217 285.115 125.001 286.494 124.796 287.873C124.796 288.067 124.796 288.261 124.704 288.455H124.26C124.317 287.691 124.374 286.916 124.419 286.175C124.636 283.154 124.83 280.133 125.103 277.123C125.571 272.028 126.084 266.92 126.608 261.825C127.395 254.392 128.136 247.005 128.888 239.526C129.048 237.919 129.207 236.323 129.378 234.727C129.492 233.587 129.606 232.447 129.732 231.227C130.302 225.641 130.724 220.009 131.613 214.458C131.613 214.252 131.613 214.059 131.704 213.853C131.709 213.827 131.723 213.803 131.743 213.784C131.763 213.766 131.788 213.755 131.815 213.753C131.842 213.75 131.869 213.756 131.892 213.77C131.915 213.784 131.933 213.805 131.943 213.831Z" fill="#213B31"/>
<path d="M96.2275 144.893L91.4395 170.532C91.4395 170.532 148.2 171.33 161.538 170.395C161.538 170.395 147.596 116.108 133.266 100.536C126.095 92.7609 117.671 93.3423 112.313 98.7801C110.956 100.16 94.7569 121.58 93.0469 129.743C91.5649 136.959 96.2275 144.893 96.2275 144.893Z" fill="#B9BAFE"/>
<path d="M133.995 153.512C133.417 154.056 132.956 154.711 132.638 155.438C133.362 155.115 134.016 154.654 134.565 154.082C135.13 153.527 135.59 152.874 135.921 152.155C135.194 152.473 134.539 152.934 133.995 153.512ZM116.587 99.0425C116.012 99.5888 115.551 100.244 115.231 100.969C115.949 100.641 116.602 100.186 117.157 99.6239C117.72 99.0671 118.179 98.4148 118.514 97.6973C117.787 98.011 117.132 98.4686 116.587 99.0425ZM100.103 147.162C99.5252 147.706 99.0637 148.361 98.7461 149.088C99.4732 148.771 100.129 148.309 100.673 147.732C101.245 147.183 101.706 146.529 102.029 145.805C101.302 146.123 100.647 146.584 100.103 147.162ZM103.967 161.583C103.408 161.021 102.751 160.565 102.029 160.238C102.702 161.689 103.87 162.853 105.324 163.521C104.986 162.802 104.527 162.147 103.967 161.583ZM122.538 126.152C121.988 125.584 121.334 125.127 120.611 124.806C121.28 126.254 122.445 127.414 123.894 128.078C123.564 127.358 123.104 126.705 122.538 126.152ZM150.548 161.492C149.769 161.482 148.995 161.622 148.268 161.902C148.995 162.179 149.769 162.315 150.548 162.301C151.326 162.311 152.099 162.175 152.828 161.902C152.1 161.625 151.327 161.486 150.548 161.492ZM136.606 133.904C135.808 133.896 135.016 134.035 134.268 134.314C135.016 134.593 135.808 134.732 136.606 134.724C137.385 134.733 138.158 134.594 138.886 134.314C138.157 134.04 137.384 133.901 136.606 133.904ZM106.327 130.563C105.548 130.561 104.776 130.7 104.047 130.974C104.776 131.248 105.548 131.387 106.327 131.384C107.125 131.392 107.917 131.252 108.664 130.974C107.918 130.69 107.125 130.551 106.327 130.563ZM120.611 161.058C119.833 161.057 119.06 161.196 118.331 161.469C119.06 161.742 119.833 161.881 120.611 161.879C121.39 161.887 122.164 161.748 122.891 161.469C122.162 161.195 121.39 161.056 120.611 161.058ZM122.891 109.348C122.113 109.345 121.34 109.484 120.611 109.758C122.109 110.306 123.753 110.306 125.251 109.758C124.512 109.48 123.727 109.341 122.937 109.348H122.891ZM107.49 111.423C106.927 112.918 106.927 114.567 107.49 116.063C107.759 115.332 107.898 114.561 107.9 113.783C107.928 112.98 107.804 112.18 107.536 111.423H107.49ZM134.645 169.677C134.493 170.043 134.386 170.425 134.326 170.817H134.953C134.906 170.429 134.818 170.046 134.69 169.677H134.645ZM119.084 141.998C118.552 143.498 118.552 145.137 119.084 146.637C119.359 145.909 119.498 145.136 119.494 144.357C119.512 143.552 119.373 142.75 119.084 141.998ZM149.453 141.998C149.169 142.724 149.03 143.498 149.043 144.278C149.034 145.057 149.173 145.831 149.453 146.558C149.985 145.057 149.985 143.419 149.453 141.918V141.998ZM137.426 115.424C136.883 116.927 136.883 118.573 137.426 120.075C137.7 119.347 137.839 118.574 137.837 117.795C137.857 116.986 137.718 116.18 137.426 115.424Z" fill="#F499B2"/>
<path d="M90.2644 86.9701C90.2283 95.1673 87.7639 103.17 83.1824 109.967C78.6009 116.765 72.1077 122.052 64.5231 125.161C56.9384 128.271 48.6024 129.063 40.5679 127.437C32.5334 125.812 25.1608 121.842 19.3812 116.029C13.6016 110.216 9.67423 102.821 8.09515 94.7768C6.51607 86.7331 7.3561 78.4018 10.5091 70.8352C13.6622 63.2686 18.9868 56.8061 25.8105 52.2638C32.6342 47.7216 40.6509 45.3033 48.8482 45.3145C54.3047 45.3234 59.7058 46.4087 64.7422 48.5083C69.7786 50.6078 74.3514 53.6802 78.1986 57.5497C82.0458 61.4191 85.0919 66.0095 87.1623 71.0579C89.2327 76.1063 90.2869 81.5136 90.2644 86.9701Z" fill="#7787B1"/>
<g clip-path="url(#clip0_10839_22275)">
<ellipse cx="48.8398" cy="86.6523" rx="39" ry="38.5" fill="#BEBED3"/>
<g clip-path="url(#clip1_10839_22275)">
<path d="M49.386 76.6249V48.1523L25.4434 87.367L49.386 76.6249Z" fill="#8A92B2"/>
<path d="M49.386 101.343V76.6249L25.4434 87.367L49.386 101.343ZM49.386 76.6249L73.3286 87.367L49.386 48.1523V76.6249Z" fill="#62688F"/>
<path d="M49.3848 76.623V101.342L73.3274 87.3652L49.3848 76.623Z" fill="#454A75"/>
<path d="M49.386 105.821L25.4434 91.8594L49.386 125.169V105.821Z" fill="#8A92B2"/>
<path d="M73.342 91.8594L49.3848 105.821V125.169L73.342 91.8594Z" fill="#62688F"/>
</g>
</g>
<g opacity="0.1">
<path d="M48.8478 48.2794C39.7302 48.2597 30.902 51.4786 23.9368 57.3623C16.9716 63.246 12.3222 71.412 10.8174 80.4046C10.5036 82.2624 10.3283 84.141 10.293 86.0248C10.293 86.1616 10.293 86.3098 10.293 86.458V86.7886C10.2859 90.2831 10.7577 93.762 11.6952 97.1284C11.7636 97.3792 11.832 97.63 11.9118 97.8808C13.7102 103.879 16.9448 109.349 21.3351 113.815C25.7254 118.28 31.1389 121.608 37.106 123.508C43.0732 125.408 49.4138 125.824 55.578 124.72C61.7423 123.615 67.544 121.024 72.4801 117.17C72.6967 116.999 72.9246 116.828 73.1298 116.645C74.2218 115.756 75.2646 114.809 76.2535 113.807C76.4929 113.567 76.7323 113.316 76.9603 113.066C82.0775 107.583 85.4826 100.726 86.7578 93.3363C88.0329 85.9462 87.1225 78.3446 84.1383 71.4646C81.1541 64.5846 76.226 58.7257 69.9589 54.607C63.6918 50.4883 56.3585 48.2891 48.8592 48.2794H48.8478ZM69.3678 59.0638C70.7145 60.0733 71.987 61.1781 73.1754 62.3698C73.2801 62.4666 73.3791 62.5694 73.4719 62.6776C79.8569 69.2125 83.3898 78.0128 83.2957 87.1488C83.2017 96.2847 79.4885 105.01 72.9703 111.413L72.2862 112.051C71.3792 112.911 70.4198 113.715 69.4135 114.456L68.889 114.844C68.053 115.452 67.198 116.011 66.324 116.52C60.6765 119.86 54.1981 121.532 47.6394 121.342C40.5888 121.142 33.7755 118.751 28.1455 114.502C27.2193 113.819 26.3325 113.085 25.4892 112.302L25.0674 111.914C22.7449 109.723 20.7314 107.227 19.0824 104.493C19.0517 104.45 19.0249 104.404 19.0026 104.356C18.246 103.084 17.5757 101.762 16.9962 100.4C16.9164 100.241 16.848 100.081 16.7796 99.9214C15.1819 96.0746 14.3047 91.967 14.1918 87.8032C14.1918 87.5524 14.1918 87.2902 14.1918 87.028C14.1918 86.7658 14.1918 86.287 14.1918 85.888C14.2436 83.7638 14.4956 81.6493 14.9442 79.5724C16.1384 73.9497 18.716 68.7135 22.4437 64.3379C26.1714 59.9624 30.9315 56.5855 36.2931 54.5131C41.6546 52.4407 47.4484 51.7381 53.1499 52.469C58.8514 53.1999 64.2806 55.3412 68.946 58.699L69.3678 59.0638Z" fill="black"/>
</g>
<path d="M126.243 96.5126C125.901 97.6526 119.95 104.607 114.843 104.002C113.155 103.797 113.851 94.5632 113.851 94.5632L113.748 93.8678L112.289 84.155L124.031 77.7482L125.718 76.916C125.718 76.916 125.946 79.595 126.197 82.9352C126.197 83.0948 126.197 83.243 126.197 83.414C126.197 83.585 126.197 83.7788 126.197 83.9612C126.197 84.4514 126.277 84.9644 126.311 85.4774C126.345 85.9904 126.311 86.2412 126.379 86.6174C126.448 86.9936 126.379 87.4268 126.379 87.8372C126.528 90.7288 126.483 93.6272 126.243 96.5126Z" fill="#F0A8B4"/>
<path d="M126.127 82.9684C124.969 85.5805 123.259 87.9104 121.114 89.7978C118.968 91.6852 116.44 93.085 113.701 93.901L112.242 84.1882L123.984 77.7814L125.671 76.9492C125.671 76.9492 125.877 79.6282 126.127 82.9684Z" fill="#213B31"/>
<path d="M100.697 64.4761C92.9224 79.8547 101.142 86.3755 104.573 87.9145C107.651 89.2939 118.037 94.2187 127.373 79.7179C136.71 65.2171 131.933 56.7469 125.287 52.9165C118.641 49.0861 108.461 49.0861 100.697 64.4761Z" fill="#F0A8B4"/>
<path d="M103.136 61.5364C103.512 61.6307 103.892 61.703 104.276 61.753C104.675 61.8893 105.108 61.8893 105.507 61.753C105.627 61.6865 105.721 61.582 105.775 61.4561C105.829 61.3302 105.839 61.1899 105.804 61.0576C105.694 60.8104 105.522 60.5962 105.304 60.4362C105.086 60.2762 104.83 60.176 104.561 60.1456C104.024 60.0077 103.454 60.0768 102.965 60.3394C102.852 60.4039 102.761 60.501 102.703 60.6181C102.646 60.7352 102.625 60.8669 102.643 60.9961C102.662 61.1252 102.719 61.2458 102.807 61.3422C102.894 61.4385 103.009 61.5062 103.136 61.5364Z" fill="#213B31"/>
<path d="M113.156 66.4037C112.817 66.1966 112.49 65.9721 112.175 65.7311C111.799 65.4575 111.48 65.2865 111.309 64.8419C111.275 64.7112 111.285 64.5727 111.339 64.4487C111.393 64.3247 111.486 64.2223 111.605 64.1579C111.857 64.0608 112.131 64.0329 112.397 64.077C112.664 64.1211 112.914 64.2356 113.121 64.4087C113.59 64.6981 113.939 65.1477 114.102 65.6741C114.133 65.7973 114.128 65.9271 114.087 66.0475C114.046 66.1678 113.97 66.2734 113.869 66.3511C113.769 66.4287 113.647 66.4752 113.52 66.4845C113.393 66.4939 113.267 66.4658 113.156 66.4037Z" fill="#213B31"/>
<path d="M109.143 69.334C109.143 69.334 109.212 69.4138 109.143 69.4594C108.63 70.5196 108.22 71.8192 109.029 72.6058C109.029 72.6058 109.029 72.6856 109.029 72.6628C108.003 71.9674 108.516 70.2916 109.143 69.334Z" fill="#213B31"/>
<path d="M110.624 68.6414C112.402 69.2798 110.989 72.8023 109.347 72.2095C107.705 71.6167 109.142 68.1056 110.624 68.6414Z" fill="#213B31"/>
<path d="M111.24 69.1542C111.468 69.4734 111.628 69.9522 111.981 70.1346C112.334 70.317 112.87 70.1346 113.292 69.8724C113.041 70.5564 112.506 71.1378 111.742 70.944C111.418 70.8137 111.153 70.5681 111 70.2544C110.846 69.9408 110.814 69.5813 110.909 69.2454C110.966 69.1542 111.149 68.9718 111.24 69.1542Z" fill="#213B31"/>
<path d="M103.559 66.3711C103.559 66.3711 103.457 66.3711 103.445 66.4395C103.046 67.5795 102.408 68.7195 101.279 68.7195C101.279 68.7195 101.222 68.7195 101.279 68.7879C102.533 69.0843 103.365 67.4883 103.559 66.3711Z" fill="#213B31"/>
<path d="M103.032 64.8523C101.333 64.0201 99.8054 67.4971 101.39 68.2723C102.975 69.0475 104.457 65.5363 103.032 64.8523Z" fill="#213B31"/>
<path d="M102.213 64.7636C101.859 64.7636 101.438 65.0372 101.073 64.9232C100.708 64.8092 100.56 64.2734 100.48 63.7832C100.48 63.7832 100.48 63.7832 100.412 63.7832C100.214 64.0613 100.124 64.4013 100.157 64.7407C100.191 65.0801 100.346 65.396 100.594 65.63C101.13 65.9948 101.802 65.63 102.247 65.0258C102.361 64.9688 102.304 64.7408 102.213 64.7636Z" fill="#213B31"/>
<path d="M102.907 71.9441C102.465 72.6829 102.062 73.4439 101.698 74.2241C101.698 74.2925 101.835 74.4065 102.086 74.5319C102.691 74.9221 103.392 75.1381 104.112 75.1562C104.832 75.1743 105.543 74.9938 106.167 74.6345C106.258 74.6345 106.167 74.4635 106.099 74.4863C104.849 74.746 103.549 74.594 102.394 74.0531C102.394 73.8251 104.013 71.4995 103.899 71.4311C103.281 71.2399 102.641 71.1326 101.995 71.1119C103.773 67.8743 106.053 64.9559 107.775 61.7069C107.783 61.6831 107.784 61.6569 107.777 61.6326C107.769 61.6083 107.753 61.5872 107.732 61.5728C107.711 61.5584 107.686 61.5514 107.661 61.553C107.635 61.5545 107.611 61.5646 107.592 61.5815C105.057 64.6375 102.831 67.9368 100.946 71.4311C100.741 71.8643 102.542 71.9441 102.907 71.9441Z" fill="#213B31"/>
<path d="M102.395 73.9766C102.507 74.8077 102.837 75.5944 103.352 76.2566C103.644 76.6106 104.045 76.8589 104.492 76.9634C105.438 77.2142 105.883 76.4618 106.1 75.7208C106.201 75.3485 106.262 74.9662 106.282 74.5808C104.955 74.8058 103.591 74.5937 102.395 73.9766Z" fill="#213B31"/>
<path d="M103.354 76.2188C103.646 76.5728 104.046 76.8211 104.494 76.9256C105.44 77.1764 105.884 76.424 106.101 75.683C105.649 75.4542 105.133 75.3826 104.635 75.4797C104.138 75.5767 103.687 75.8368 103.354 76.2188Z" fill="#9BFDB0"/>
<path d="M123.485 81.6928C120.521 79.5724 125.172 72.6412 125.172 72.6412C125.172 72.6412 120.783 68.161 121.091 63.2704C121.091 63.2704 120.407 67.2262 121.535 69.8254C121.718 70.27 112.187 62.0506 116.725 53.5234C116.725 53.5234 109.782 60.2152 104.002 58.5394C103.717 58.4482 109.622 51.9502 112.29 51.346C115.319 50.6853 118.46 50.726 121.471 51.465C124.482 52.2039 127.284 53.6216 129.664 55.6096C135.364 60.9334 134.816 70.4296 133.391 73.4848C130.621 79.4812 124.887 82.696 123.485 81.6928Z" fill="#213B31"/>
<path d="M121.091 69.7576C115.665 65.5966 113.715 58.9162 117.249 52.8742C117.259 52.8419 117.258 52.8074 117.246 52.7757C117.235 52.7439 117.214 52.7167 117.186 52.6977C117.158 52.6787 117.125 52.669 117.091 52.67C117.058 52.671 117.025 52.6826 116.999 52.7033C112.188 57.9701 115.482 66.5998 121.068 69.8944C121.205 69.9742 121.216 69.8602 121.091 69.7576Z" fill="#213B31"/>
<path d="M123.692 81.3605C121.754 77.6783 123.395 74.3039 125.333 71.1005C125.333 70.9979 125.242 70.8953 125.173 70.9865C123.007 73.9847 120.956 78.0887 123.407 81.5885C123.437 81.6263 123.481 81.6505 123.529 81.6558C123.577 81.6612 123.625 81.6472 123.663 81.617C123.701 81.5867 123.725 81.5427 123.73 81.4946C123.736 81.4465 123.722 81.3983 123.692 81.3605Z" fill="#213B31"/>
<path d="M117.498 52.2921C117.498 52.2921 117.498 52.2237 117.441 52.2921C114.511 55.0167 110.601 60.2721 105.927 58.2543C105.903 58.2492 105.877 58.252 105.855 58.2625C105.832 58.273 105.814 58.2906 105.802 58.3125C105.791 58.3344 105.787 58.3595 105.791 58.384C105.794 58.4084 105.806 58.431 105.824 58.4481C110.133 60.7851 115.617 55.9059 117.498 52.2921Z" fill="#213B31"/>
<path d="M121.033 110.193C113.999 119.04 84.7697 146.753 74.1449 145.055C57.4895 142.364 35.1341 130.577 25.3871 126.188C20.0975 123.805 40.3097 92.9338 45.0977 97.3228C51.3449 103.023 74.3159 112.895 77.0177 114.229C79.7195 115.563 99.1337 105.109 113.498 98.326C125.57 92.626 129.936 98.9644 121.033 110.193Z" fill="#F0A8B4"/>
<path d="M10.2714 80.7584C9.53082 81.4274 9.01266 82.3069 8.78647 83.279C8.56027 84.251 8.63689 85.2689 9.00599 86.1962C7.3303 86.4271 5.78687 87.233 4.63977 88.4762C2.74737 90.7562 5.5176 94.769 5.5176 94.769C3.82924 95.3795 2.36354 96.4837 1.31099 97.9382C-0.285007 100.321 1.94939 104.778 1.94939 104.778C0.708145 106.192 0.0163022 108.004 0 109.885C0.171 114.924 6.84 118.777 11.0124 121.285C15.1848 123.793 29.4804 126.928 32.1366 127.806L49.4076 103C49.4076 103 42.5676 88.6016 27.3714 82.1834C22.8684 80.2682 13.1898 78.2732 10.2714 80.7584Z" fill="#F0A8B4"/>
<path d="M9.44965 85.875C14.7278 86.7186 19.4702 89.0898 24.3266 91.176C24.3493 91.1851 24.3675 91.2028 24.3771 91.2252C24.3867 91.2477 24.3871 91.273 24.378 91.2957C24.3689 91.3183 24.3512 91.3365 24.3287 91.3461C24.3063 91.3557 24.2809 91.3561 24.2582 91.347C19.4474 89.2038 14.2719 88.0524 9.43827 86.1144C9.41306 86.1053 9.39143 86.0883 9.37655 86.066C9.36168 86.0437 9.35434 86.0172 9.35561 85.9905C9.35689 85.9637 9.36669 85.9381 9.38362 85.9173C9.40054 85.8965 9.42368 85.8817 9.44965 85.875Z" fill="#213B31"/>
<path d="M5.82394 94.4942C7.02071 94.7983 8.17106 95.2623 9.24394 95.8736C10.3839 96.4436 11.5239 97.0136 12.6639 97.6292C14.9439 98.849 17.2239 100.114 19.4241 101.448C19.5267 101.505 19.4241 101.665 19.3557 101.619C17.0757 100.411 14.7957 99.2366 12.4473 98.1308C11.3073 97.5722 10.1673 96.9908 8.94753 96.4892C7.80485 96.0548 6.71496 95.4926 5.69856 94.8134C5.67044 94.7886 5.65062 94.7558 5.64182 94.7194C5.63301 94.6829 5.63566 94.6447 5.64936 94.6098C5.66307 94.575 5.68715 94.5452 5.71839 94.5245C5.74963 94.5038 5.78649 94.4932 5.82394 94.4942Z" fill="#213B31"/>
<path d="M2.03941 104.823C3.10522 105.114 4.11214 105.588 5.01483 106.225L8.11563 107.935C10.179 109.075 12.2538 110.215 14.3628 111.23C14.4654 111.23 14.3628 111.458 14.283 111.401C12.1398 110.341 9.97384 109.315 7.84204 108.232L4.69563 106.624C3.69987 106.219 2.78188 105.644 1.98242 104.926C1.98242 104.926 1.98241 104.812 2.03941 104.823Z" fill="#213B31"/>
<path d="M68.9716 109.52L56.4316 143.378C56.4316 143.378 71.7304 148.314 77.3392 146.444C82.948 144.575 108.997 127.064 120.659 111.857C132.321 96.649 124.843 92.944 112.896 98.245C100.949 103.546 78.7756 113.316 77.8636 113.316C76.9516 113.316 68.9716 109.52 68.9716 109.52Z" fill="#B9BAFE"/>
<path d="M78.9794 123.873C78.0968 123.814 77.2103 123.879 76.346 124.067C77.1836 124.357 78.0595 124.522 78.9452 124.557C79.8278 124.618 80.7144 124.552 81.5786 124.363C80.7398 124.078 79.8646 123.913 78.9794 123.873ZM109.246 116.908C108.545 116.705 107.821 116.587 107.092 116.554C106.356 116.513 105.619 116.552 104.892 116.668C104.88 116.744 104.88 116.821 104.892 116.896C105.599 117.09 106.325 117.204 107.058 117.238C107.735 117.274 108.414 117.248 109.087 117.159C109.281 117.159 109.486 117.09 109.691 117.045L109.246 116.908ZM78.6146 137.599C78.3353 138.439 78.1705 139.314 78.1244 140.198C78.0639 141.081 78.1292 141.967 78.3182 142.831C78.6095 141.994 78.7747 141.118 78.8084 140.232C78.8658 139.357 78.8006 138.479 78.6146 137.622V137.599ZM105.872 101.324L105.291 101.586C105.291 101.837 105.291 102.076 105.211 102.316C105.131 102.555 105.211 102.475 105.211 102.555C105.15 103.442 105.219 104.333 105.416 105.2C105.691 104.359 105.852 103.485 105.895 102.601C105.895 102.396 105.895 102.179 105.895 101.985C105.895 101.791 105.883 101.563 105.872 101.347V101.324ZM66.9638 134.133C66.6211 134.338 66.2935 134.566 65.9834 134.817L65.4476 135.262C64.7818 135.849 64.1989 136.524 63.7148 137.268C64.3821 136.951 65.0033 136.544 65.5616 136.06L65.9036 135.775C66.143 135.558 66.371 135.33 66.599 135.091C66.9869 134.692 67.3309 134.252 67.625 133.78C67.3976 133.884 67.1767 134.002 66.9638 134.133ZM94.7798 127.521C94.1145 128.106 93.535 128.781 93.0584 129.528C94.638 128.717 95.9841 127.516 96.9686 126.039C96.1664 126.405 95.4215 126.885 94.757 127.464L94.7798 127.521ZM69.8708 114.981L69.7682 114.856L69.4946 114.571C69.3806 114.445 69.2552 114.32 69.1298 114.206C68.7203 113.79 68.2608 113.426 67.7618 113.123C67.9998 113.632 68.2983 114.111 68.651 114.548C68.7474 114.692 68.8541 114.829 68.9702 114.958L69.2552 115.3L69.3236 115.369C69.8826 116.018 70.5359 116.579 71.2616 117.033C70.8984 116.246 70.4222 115.517 69.848 114.867L69.8708 114.981ZM90.9722 115.198C90.3887 114.536 89.7175 113.957 88.9772 113.476C89.3633 114.27 89.8624 115.004 90.4592 115.654C91.0408 116.325 91.7167 116.909 92.4656 117.387C92.0606 116.547 91.5344 115.771 90.9038 115.084L90.9722 115.198ZM125.355 102.829L125.298 102.76C124.724 102.093 124.056 101.513 123.314 101.039C123.702 101.832 124.201 102.565 124.796 103.216L125.104 103.547C125.252 103.695 125.4 103.843 125.56 103.98L125.697 103.661C125.732 103.564 125.763 103.465 125.788 103.365C125.648 103.139 125.496 102.922 125.332 102.715L125.355 102.829Z" fill="#F499B2"/>
<path d="M63.3836 142.535C66.4844 133.05 69.6422 123.531 73.6436 114.377C73.6436 114.297 73.8146 114.377 73.7804 114.445C70.9874 124.021 67.271 133.335 63.5204 142.592C63.5432 142.706 63.338 142.66 63.3836 142.535Z" fill="#213B31"/>
<path d="M127.646 53.877C134.224 56.8296 141.121 63.4529 143.059 87.3929C144.997 111.333 141.292 128.9 134.246 133.073C127.201 137.245 111.868 135.056 103.66 128.752C103.66 128.752 120.555 110.843 123.04 84.5771C123.827 76.1867 118.708 63.0312 121.969 56.9208L127.646 53.877Z" fill="#213B31"/>
<path d="M102.667 127.488C103.91 125.607 105.038 123.646 106.247 121.788C107.455 119.93 108.606 118.049 109.747 116.156C112.079 112.353 114.188 108.417 116.062 104.369C119.895 96.3249 122.107 87.6052 122.572 78.7071C122.754 73.3605 122.161 68.0937 121.853 62.7471C121.853 62.6559 122.013 62.6331 122.024 62.7471C123.597 71.9583 124.304 81.4431 122.161 90.6201C120 99.299 116.45 107.572 111.65 115.119C110.351 117.262 108.971 119.348 107.535 121.389C106.098 123.429 104.388 125.538 102.827 127.625C102.758 127.682 102.599 127.59 102.667 127.488Z" fill="#213B31"/>
<path d="M134.486 60.8403C134.418 60.7605 134.566 60.6465 134.635 60.7263C140.563 67.9995 142.957 77.4843 144.496 86.5587C146.35 96.7237 146.129 107.159 143.846 117.236C143.227 119.845 142.377 122.394 141.304 124.851C140.205 127.197 138.9 129.44 137.405 131.555C137.336 131.669 137.165 131.555 137.257 131.441C138.743 129.521 139.899 127.367 140.677 125.068C141.45 122.929 142.071 120.739 142.535 118.513C143.62 113.598 144.219 108.588 144.325 103.556C144.6 93.8154 143.448 84.0869 140.905 74.6799C139.601 69.7234 137.428 65.0376 134.486 60.8403Z" fill="#213B31"/>
<path d="M140.46 122.801C141.413 120.62 142.251 118.39 142.968 116.12C144.39 111.614 145.341 106.972 145.807 102.269C146.701 92.9344 145.47 83.518 142.204 74.7271C140.333 69.7839 137.909 65.0685 134.977 60.6709C134.977 60.5911 135.045 60.4999 135.102 60.5797C140.894 68.1964 144.759 77.1 146.369 86.5322C147.978 95.9644 147.285 105.646 144.347 114.752C143.513 117.256 142.511 119.701 141.349 122.071C140.129 124.579 138.602 126.905 137.234 129.333C137.234 129.447 137.006 129.333 137.074 129.23C138.414 127.206 139.549 125.052 140.46 122.801Z" fill="#213B31"/>
<path d="M121.925 74.1574C121.925 74.1574 126.165 69.1414 128.468 70.7374C130.771 72.3334 127.26 79.8004 124.307 80.6098C123.936 80.7387 123.542 80.7911 123.149 80.764C122.757 80.7368 122.374 80.6305 122.024 80.4516C121.673 80.2728 121.363 80.0249 121.111 79.723C120.859 79.421 120.67 79.0712 120.557 78.6946L121.925 74.1574Z" fill="#F0A8B4"/>
<defs>
<clipPath id="clip0_10839_22275">
<rect width="78" height="77" fill="white" transform="translate(9.84375 48.1523)"/>
</clipPath>
<clipPath id="clip1_10839_22275">
<rect width="47.8999" height="77" fill="white" transform="translate(25.4434 48.1523)"/>
</clipPath>
</defs>
</svg>
