<svg width="55" height="55" viewBox="0 0 55 55" fill="none" xmlns="http://www.w3.org/2000/svg">
<path d="M26.9382 27.421C26.9626 26.4318 27.2343 25.4488 27.7286 24.5612L35.9808 10.1214C36.733 8.81279 38.1698 8.016 39.7434 8.05488C41.3171 8.09376 42.7128 8.96053 43.3994 10.3046L50.9285 25.1344C51.8507 26.9567 51.7974 29.1148 50.7869 30.8669L42.5347 45.3068C41.7825 46.6153 40.3457 47.4121 38.7721 47.3732C37.1984 47.3344 35.8027 46.4676 35.1161 45.1235L27.587 30.2937C27.1141 29.4048 26.9137 28.4101 26.9382 27.421ZM48.2272 27.9469C48.2377 27.5198 48.1364 27.0674 47.9216 26.6572L40.4145 11.8505C40.2216 11.4633 39.795 11.4303 39.6601 11.427C39.5252 11.4236 39.0976 11.4355 38.9083 11.8133L30.6561 26.2531C30.2089 27.0519 30.1862 27.9736 30.5933 28.7934L38.1224 43.6232C38.3158 43.9878 38.7419 44.0434 38.8543 44.0461C38.9891 44.0495 39.4168 44.0375 39.6061 43.6598L47.8583 29.22C48.0931 28.8209 48.2166 28.374 48.2272 27.9469Z" fill="#CDB4DB"/>
<path d="M3.49336 22.0439C3.5055 21.4144 3.67545 20.7654 3.979 20.1865L11.0316 6.69264C12.222 4.44395 14.5426 3.07172 17.0832 3.12071L29.9436 3.36867C31.405 3.39685 32.7172 4.16437 33.4578 5.41568C34.198 6.68948 34.2364 8.19715 33.5592 9.4886L26.5066 22.9825C25.3162 25.2312 23.018 26.6038 20.455 26.5544L7.5946 26.3064C6.13319 26.2783 4.82099 25.5108 4.0804 24.2594C3.66623 23.5767 3.47862 22.8084 3.49336 22.0439ZM30.6724 7.56615C30.6758 7.38628 30.6114 7.2276 30.5682 7.1368C30.4809 7.00017 30.2833 6.74895 29.8786 6.74115L17.0182 6.49318C15.7592 6.46891 14.5991 7.14378 14.0153 8.2571L6.94065 21.7281C6.75385 22.0843 6.88312 22.3792 6.94796 22.5154C7.0353 22.652 7.23287 22.9033 7.63757 22.9111L20.4979 23.159C21.757 23.1833 22.9171 22.5084 23.5008 21.3951L30.5755 7.92414C30.6456 7.79054 30.6702 7.67856 30.6724 7.56615Z" fill="#84A59D"/>
<path d="M3.30104 32.0277C3.31578 31.2633 3.53287 30.5028 3.97305 29.8365C4.76132 28.6147 6.10213 27.8983 7.56354 27.9265L20.4239 28.1744C22.9645 28.2234 25.2305 29.6841 26.3333 31.977L32.8835 45.7107C33.5103 47.0272 33.4134 48.5548 32.6251 49.7766C31.8369 50.9985 30.4961 51.7148 29.0347 51.6867L16.1743 51.4387C13.6337 51.3897 11.3677 49.9291 10.2649 47.6362L3.71472 33.9025C3.41123 33.3119 3.28891 32.6572 3.30104 32.0277ZM29.9018 47.5424C29.9039 47.43 29.8836 47.3172 29.8188 47.181L23.2686 33.4473C22.7282 32.3123 21.6175 31.5937 20.336 31.569L7.4756 31.321C7.0709 31.3132 6.86379 31.5566 6.77125 31.6898C6.67872 31.8229 6.56067 32.1131 6.73359 32.4763L13.2837 46.2099C13.8241 47.3449 14.9573 48.064 16.2164 48.0883L29.0768 48.3362C29.4815 48.344 29.6886 48.1006 29.7811 47.9675C29.8278 47.8784 29.8983 47.7223 29.9018 47.5424Z" fill="#84A59D"/>
</svg>
