<svg width="55" height="55" viewBox="0 0 55 55" fill="none" xmlns="http://www.w3.org/2000/svg">
<rect width="55" height="55" rx="15" fill="#DEE5E3"/>
<path d="M25.8814 13.7994C26.3634 14.0417 26.7985 14.3479 27.247 14.6469C27.5947 14.7065 27.5947 14.7065 27.9755 14.7147C28.1143 14.721 28.2531 14.7273 28.3961 14.7339C28.6125 14.7415 28.6125 14.7415 28.8332 14.7492C29.0525 14.7587 29.0525 14.7587 29.2762 14.7684C29.6368 14.7838 29.9974 14.7978 30.3581 14.8106C30.4413 15.0934 30.5228 15.3766 30.6037 15.66C30.6493 15.8177 30.6949 15.9754 30.7419 16.1378C30.8439 16.5878 30.8695 16.9714 30.8493 17.4305C31.0812 17.5093 31.3132 17.5877 31.5452 17.6659C31.6744 17.7096 31.8036 17.7533 31.9367 17.7983C32.0642 17.839 32.1916 17.8798 32.323 17.9217C32.429 17.9658 32.5349 18.01 32.6441 18.0554C33.2997 18.1144 33.8063 17.5503 34.3122 17.1798C34.7791 16.9393 34.7791 16.9393 35.2377 16.9015C36.0659 17.2201 36.5925 17.8159 37.2046 18.4437C37.3315 18.5675 37.4585 18.6912 37.5893 18.8188C38.0981 19.332 38.4871 19.7357 38.7486 20.415C38.6967 21.0099 38.4807 21.2596 38.1052 21.7185C37.6322 22.3859 37.6322 22.3859 37.6318 23.1756C37.8036 23.6238 38.0012 24.0436 38.2177 24.4714C38.2177 24.5795 38.2177 24.6876 38.2177 24.7989C38.3779 24.811 38.3779 24.811 38.5414 24.8232C38.756 24.8416 38.756 24.8416 38.975 24.8603C39.1156 24.8717 39.2562 24.8831 39.401 24.8949C39.9064 24.9703 40.3553 25.1239 40.8376 25.2902C40.8497 26.0071 40.8587 26.7239 40.8646 27.4409C40.8671 27.6848 40.8704 27.9288 40.8747 28.1728C40.8806 28.5231 40.8834 28.8734 40.8856 29.2238C40.8895 29.5402 40.8895 29.5402 40.8934 29.863C40.875 30.0291 40.8566 30.1951 40.8376 30.3662C40.2789 30.7386 39.9114 30.7864 39.2514 30.8779C39.0582 30.9053 38.8651 30.9327 38.6661 30.961C38.5181 30.9809 38.3702 31.0007 38.2177 31.0211C38.139 31.253 38.0606 31.485 37.9824 31.7171C37.9387 31.8462 37.895 31.9754 37.85 32.1085C37.8092 32.236 37.7685 32.3635 37.7265 32.4948C37.6826 32.6023 37.6387 32.7097 37.5935 32.8204C37.5456 33.3337 37.8136 33.5636 38.1256 33.9583C38.6926 34.6762 38.6926 34.6762 38.7661 35.1754C38.6891 35.7556 38.4644 35.9515 38.0514 36.3607C37.8453 36.5662 37.8453 36.5662 37.635 36.7758C37.4896 36.9166 37.3442 37.0574 37.1943 37.2024C37.0514 37.3458 36.9085 37.4891 36.7613 37.6367C35.5482 38.8314 35.5482 38.8314 34.9429 38.8808C34.4696 38.612 34.0475 38.2965 33.6086 37.9751C33.0321 37.6782 32.7756 37.7353 32.1593 37.8983C31.96 37.9355 31.7607 37.9726 31.5555 38.0109C31.2472 38.1211 31.2472 38.1211 31.0131 38.3896C30.824 38.9795 30.7151 39.5537 30.621 40.1658C30.5218 40.682 30.5218 40.682 30.1943 41.0094C29.8924 41.0487 29.8924 41.0487 29.5279 41.0485C29.3945 41.0511 29.2611 41.0537 29.1236 41.0565C28.8452 41.0592 28.5667 41.0601 28.2883 41.059C27.3704 41.0813 26.8099 41.2546 26.067 41.8008C25.2681 42.3207 24.2303 42.2404 23.3172 42.1556C22.1408 41.8726 21.2731 41.3126 20.5335 40.3545C20.4848 40.2405 20.436 40.1265 20.3858 40.0091C20.1412 39.5879 19.9186 39.5539 19.459 39.413C18.2681 38.9718 17.3012 38.2045 16.6856 37.0796C16.4036 36.4336 16.3262 35.8147 16.2762 35.1147C16.1614 35.1012 16.0466 35.0877 15.9283 35.0738C14.9325 34.814 14.2791 34.1895 13.6998 33.3679C13.1171 32.2941 13.0604 31.1064 13.3442 29.9338C13.5986 29.2715 14.0202 28.7728 14.475 28.2375C14.5831 28.0754 14.6912 27.9133 14.8025 27.7463C14.6809 27.6382 14.5594 27.5302 14.4341 27.4188C13.6434 26.6191 13.2256 25.6499 13.1504 24.5296C13.1974 23.2959 13.6439 22.362 14.4795 21.4678C14.8114 21.1891 15.098 21.0488 15.4984 20.8896C15.9385 20.7 16.0787 20.6154 16.2813 20.1732C16.36 19.8857 16.4334 19.5967 16.5014 19.3065C16.761 18.286 17.5858 17.4109 18.4049 16.7755C18.7044 16.6336 19.0084 16.5008 19.3157 16.3764C20.1296 16.0404 20.4752 15.6906 20.948 14.9635C22.0429 13.522 24.2473 13.2931 25.8814 13.7994ZM21.7923 16.0285C21.2156 16.9042 21.0184 17.6989 21.1885 18.7404C21.6181 19.7487 22.2798 20.4626 23.2864 20.91C23.4046 20.9506 23.5229 20.9911 23.6446 21.0328C23.6446 21.303 23.6446 21.5732 23.6446 21.8516C23.2321 22.0027 23.0283 22.027 22.6021 21.8982C21.3887 21.3067 20.6973 20.6352 20.1549 19.3954C20.0173 18.795 19.9419 18.207 19.8786 17.5942C18.6231 18.1717 18.0341 19.0309 17.5145 20.296C17.3989 21.0151 17.4707 21.6288 17.5862 22.3428C17.6171 22.5645 17.6478 22.7862 17.6783 23.008C17.7019 23.1667 17.7255 23.3254 17.7499 23.489C17.3446 23.57 17.3446 23.57 16.9312 23.6527C16.6491 23.1131 16.3917 22.616 16.2762 22.0153C15.5466 22.2382 15.2038 22.5112 14.8025 23.1615C14.4577 24.1041 14.3937 24.8394 14.8025 25.7814C15.331 26.5666 15.8601 27.0013 16.7674 27.2551C17.367 27.3235 17.9611 27.324 18.5641 27.3203C18.7346 27.3208 18.9051 27.3212 19.0808 27.3217C19.4399 27.3221 19.7989 27.3212 20.1579 27.3191C20.7063 27.3165 21.2545 27.3191 21.8028 27.3222C22.1526 27.3219 22.5024 27.3213 22.8521 27.3203C23.097 27.3218 23.097 27.3218 23.3469 27.3233C24.2145 27.3146 24.8783 27.2846 25.6095 26.7638C26.1563 26.114 26.1751 25.4748 26.1718 24.6576C26.1726 24.5346 26.1735 24.4117 26.1744 24.285C26.1754 24.0256 26.1752 23.7662 26.1738 23.5068C26.1724 23.1132 26.1771 22.72 26.1823 22.3265C26.1967 20.5173 26.1967 20.5173 25.4458 18.9042C24.867 18.4239 24.3927 18.1735 23.6446 18.0855C23.6446 17.7072 23.6446 17.329 23.6446 16.9393C23.9008 16.9816 24.1566 17.0264 24.4122 17.0723C24.5547 17.097 24.6971 17.1217 24.8439 17.1472C25.2821 17.2668 25.2821 17.2668 26.1008 17.758C26.1008 17.0015 26.1008 16.245 26.1008 15.4656C24.4831 14.6568 23.0788 14.6724 21.7923 16.0285ZM27.4107 22.179C27.4092 22.2962 27.4077 22.4133 27.4061 22.534C27.3972 23.0708 27.3835 23.6073 27.3698 24.144C27.3675 24.3282 27.3651 24.5125 27.3627 24.7023C27.3257 25.9694 27.2002 26.9744 26.2645 27.91C26.3658 28.0282 26.4671 28.1464 26.5715 28.2682C27.1272 29.0037 27.2866 29.6076 27.3148 30.5229C27.3211 30.7049 27.3274 30.887 27.334 31.0746C27.339 31.2629 27.3441 31.4513 27.3493 31.6454C27.3556 31.837 27.362 32.0285 27.3685 32.2259C27.3839 32.6976 27.3979 33.1693 27.4107 33.641C29.2034 33.6805 30.6465 33.1366 31.9552 31.8949C33.1947 30.5343 33.5352 29.1726 33.5127 27.3644C33.3874 25.6346 32.6019 24.4784 31.3405 23.3252C30.3617 22.5559 29.3683 22.1594 28.1111 22.172C27.9796 22.173 27.8481 22.174 27.7126 22.1751C27.613 22.1764 27.5133 22.1777 27.4107 22.179ZM15.1709 29.4963C14.6523 30.18 14.4102 30.8655 14.5256 31.7254C14.7908 32.7057 15.2917 33.2314 16.1125 33.8048C16.3217 33.4062 16.4628 33.0666 16.5832 32.6279C16.7674 32.1673 16.7674 32.1673 17.0949 32.0138C17.4224 32.0036 17.4224 32.0036 17.7499 32.1673C17.7263 32.3227 17.7026 32.478 17.6783 32.6381C17.6643 32.7432 17.6504 32.8483 17.636 32.9566C17.6017 33.2023 17.5613 33.4471 17.5158 33.6909C17.3365 34.8362 17.528 35.7299 18.0774 36.7521C18.5841 37.4172 19.0357 37.9105 19.8786 38.0621C19.8927 37.9473 19.9068 37.8324 19.9214 37.7141C20.12 36.3734 20.4891 35.3834 21.5262 34.4802C22.2931 33.9254 22.6848 33.7611 23.6446 33.8048C23.6875 34.1841 23.6875 34.1841 23.6446 34.6235C23.351 34.8838 23.351 34.8838 22.959 35.1045C22.1195 35.6174 21.5095 36.1166 21.1885 37.0796C21.0617 38.1336 21.1987 39.0029 21.8435 39.8633C22.6856 40.6345 23.446 40.8927 24.5791 40.8834C25.1597 40.8251 25.6841 40.6075 26.1008 40.1907C26.1127 39.8327 26.1145 39.4744 26.111 39.1162C26.1095 38.9201 26.1081 38.724 26.1065 38.522C26.1046 38.3702 26.1027 38.2184 26.1008 38.0621C26.0039 38.1094 25.907 38.1566 25.8072 38.2054C24.5221 38.8091 24.5221 38.8091 23.8084 38.7171C23.7543 38.4469 23.7003 38.1767 23.6446 37.8983C23.7297 37.8625 23.8148 37.8266 23.9024 37.7896C24.8788 37.3456 25.4617 36.8782 25.9557 35.8995C26.1393 35.3208 26.1508 34.7741 26.15 34.1732C26.1511 33.9925 26.1511 33.9925 26.1522 33.8081C26.1531 33.5544 26.1532 33.3006 26.1525 33.0468C26.1519 32.6598 26.1558 32.2729 26.1599 31.8859C26.1603 31.6386 26.1604 31.3913 26.1603 31.144C26.1618 31.029 26.1633 30.914 26.1648 30.7955C26.1581 30.0755 26.0554 29.625 25.6095 29.0562C25.1114 28.608 24.7955 28.5033 24.1292 28.5014C23.9653 28.4999 23.8013 28.4983 23.6323 28.4967C23.4561 28.4977 23.2799 28.4987 23.0984 28.4998C22.9163 28.4993 22.7342 28.4988 22.5466 28.4983C22.1615 28.498 21.7764 28.4989 21.3913 28.501C20.803 28.5036 20.2148 28.501 19.6265 28.4978C19.2522 28.4982 18.8778 28.4988 18.5034 28.4998C18.3278 28.4988 18.1523 28.4978 17.9714 28.4967C16.7882 28.5079 16.0452 28.6419 15.1709 29.4963Z" fill="#84A59D"/>
<path d="M27.4102 15.957C28.0586 15.957 28.707 15.957 29.3751 15.957C29.401 16.105 29.427 16.253 29.4537 16.4054C29.4919 16.5985 29.5302 16.7917 29.5695 16.9907C29.6056 17.1825 29.6417 17.3744 29.6789 17.5721C29.821 18.1026 29.821 18.1026 30.2334 18.3716C30.3825 18.4394 30.5315 18.5071 30.685 18.5769C30.8418 18.6537 30.9987 18.7306 31.1602 18.8097C31.3243 18.8815 31.4883 18.9533 31.6572 19.0272C31.9026 19.1374 31.9026 19.1374 32.1529 19.2498C32.7293 19.4189 33.0574 19.3944 33.6324 19.2319C33.9505 19.0345 34.2137 18.8125 34.4984 18.5705C34.7786 18.4132 34.7786 18.4132 35.0811 18.4164C35.6088 18.6568 35.9819 19.0413 36.3853 19.4468C36.4696 19.5265 36.554 19.6062 36.6408 19.6883C36.8797 19.9259 36.8797 19.9259 37.2347 20.3781C37.2312 21.0139 36.7775 21.4746 36.4096 21.9675C36.1079 22.6875 36.3659 23.3488 36.6181 24.0553C36.7 24.2366 36.7819 24.4179 36.8663 24.6047C36.9866 24.8798 36.9866 24.8798 37.1094 25.1605C37.4544 25.7064 37.6002 25.786 38.2172 25.9453C38.7035 26.0534 39.1898 26.1615 39.6909 26.2728C39.6909 27.3535 39.6909 28.4342 39.6909 29.5477C39.3363 29.5747 38.9816 29.6017 38.6163 29.6295C37.8004 29.7899 37.8004 29.7899 37.1774 30.3061C36.6508 31.2103 36.089 32.4127 36.2523 33.4775C36.4602 33.8878 36.4602 33.8878 36.7435 34.2655C36.8347 34.3949 36.9259 34.5243 37.0198 34.6576C37.0907 34.7545 37.1616 34.8514 37.2347 34.9512C36.9711 35.6182 36.4916 36.0589 35.9862 36.5477C35.9018 36.6306 35.8173 36.7136 35.7303 36.799C35.523 37.0026 35.3146 37.205 35.1061 37.4073C34.9607 37.3244 34.9607 37.3244 34.8125 37.2397C34.6831 37.1667 34.5537 37.0937 34.4204 37.0184C34.2295 36.9102 34.2295 36.9102 34.0347 36.7997C33.9019 36.73 33.7692 36.6604 33.6324 36.5886C33.4487 36.4816 33.4487 36.4816 33.2614 36.3724C32.273 36.1267 31.1776 36.7007 30.3211 37.181C29.6552 37.6988 29.5619 38.4363 29.4205 39.2386C29.4055 39.3907 29.3905 39.5429 29.3751 39.6997C28.7266 39.6997 28.0782 39.6997 27.4102 39.6997C27.4102 38.0787 27.4102 36.4576 27.4102 34.7874C27.7749 34.7537 28.1396 34.7199 28.5154 34.6851C30.2023 34.485 31.837 33.7923 32.9774 32.495C34.2962 30.8018 34.8622 28.907 34.6148 26.764C34.1733 24.7809 33.1707 23.1901 31.5037 22.0155C30.1336 21.2595 29.0183 21.1167 27.4102 20.8693C27.4102 19.2483 27.4102 17.6272 27.4102 15.957Z" fill="#B6D4CC"/>
<path d="M23.1519 29.0573C23.4794 29.3848 23.4794 29.3848 23.5101 29.7737C23.2699 30.3047 23.1137 30.3322 22.5891 30.5515C22.3918 30.623 22.3918 30.623 22.1906 30.696C21.7884 30.8467 21.7884 30.8467 21.5145 31.3497C21.4765 31.9076 21.5248 32.4023 21.6066 32.9564C21.6302 33.1287 21.6539 33.3009 21.6782 33.4784C21.5145 33.6421 21.5145 33.6421 21.1358 33.7137C20.6958 33.6421 20.6958 33.6421 20.3171 33.2532C19.8775 32.3089 19.8916 31.4615 20.225 30.4798C20.9913 29.3815 21.8051 28.9839 23.1519 29.0573Z" fill="#84A59D"/>
<path d="M20.5334 22.1789C20.8608 22.172 21.1884 22.1723 21.5158 22.1789C21.5698 22.233 21.6239 22.287 21.6796 22.3427C21.6361 22.8795 21.5729 23.4127 21.5094 23.9475C21.4761 24.4656 21.4761 24.4656 21.7154 24.8519C22.1194 25.232 22.5072 25.3231 23.0317 25.4692C23.317 25.6175 23.317 25.6175 23.4481 25.9418C23.4807 26.2725 23.4807 26.2725 23.3272 26.5693C22.8763 26.8289 22.519 26.7803 22.0166 26.6927C21.2283 26.4758 20.7946 26.0733 20.3082 25.4333C19.9327 24.7027 19.9276 23.9633 20.0421 23.1614C20.2877 22.5678 20.2877 22.5678 20.5334 22.1789Z" fill="#84A59D"/>
</svg>
