<svg width="323" height="64" viewBox="0 0 323 64" fill="none" xmlns="http://www.w3.org/2000/svg">
<path d="M23.6322 0H22.4922V37.3236H23.6322V0Z" fill="#F499B2"/>
<path d="M46.1358 59.551L44.2776 63.6322H1.84681L0 59.551L18.0576 47.0566H28.0668L46.1358 59.551Z" fill="#FBF9DA"/>
<path d="M29.3203 35.0098L28.0662 47.0596H18.057L16.8145 35.0098H29.3203Z" fill="#B9BAFE"/>
<path d="M46.1244 59.5645L44.2776 63.6343H1.84681L0 59.5645H46.1244Z" fill="#B9BAFE"/>
<path d="M115.915 0H114.775V37.3236H115.915V0Z" fill="#F499B2"/>
<path d="M138.421 59.551L136.563 63.6322H94.1434L92.2852 59.551L110.354 47.0566H120.352L138.421 59.551Z" fill="#FBF9DA"/>
<path d="M121.605 35.0098L120.351 47.0596H110.354L109.1 35.0098H121.605Z" fill="#B9BAFE"/>
<path d="M138.41 59.5645L136.563 63.6343H94.132L92.2852 59.5645H138.41Z" fill="#B9BAFE"/>
<path d="M208.21 0H207.07V37.3236H208.21V0Z" fill="#F499B2"/>
<path d="M230.703 59.551L228.844 63.6322H186.425L184.578 59.551L202.636 47.0566H212.645L230.703 59.551Z" fill="#FBF9DA"/>
<path d="M213.887 35.0098L212.644 47.0596H202.635L201.381 35.0098H213.887Z" fill="#B9BAFE"/>
<path d="M230.702 59.5645L228.844 63.6343H186.425L184.566 59.5645H230.702Z" fill="#B9BAFE"/>
<path d="M300.494 0H299.354V37.3236H300.494V0Z" fill="#F499B2"/>
<path d="M322.984 59.551L321.126 63.6322H278.706L276.859 59.551L294.917 47.0566H304.926L322.984 59.551Z" fill="#FBF9DA"/>
<path d="M306.179 35.0098L304.925 47.0596H294.916L293.662 35.0098H306.179Z" fill="#B9BAFE"/>
<path d="M322.983 59.5645L321.125 63.6343H278.706L276.848 59.5645H322.983Z" fill="#B9BAFE"/>
</svg>
