<svg width="561" height="340" viewBox="0 0 561 340" fill="none" xmlns="http://www.w3.org/2000/svg">
<path d="M502.297 0H57.8789V297.278H502.297V0Z" fill="#B9BAFE"/>
<path d="M499.057 3.625H61.1035V293.652H499.057V3.625Z" fill="#213B31"/>
<path d="M560.173 319.576H0V339.982H560.173V319.576Z" fill="#F499B2"/>
<path d="M0 319.578L57.8778 297.279H502.295L560.173 319.578H0Z" fill="#B9BAFE"/>
<path d="M63.0547 311.666L100.401 297.279H459.775L497.121 311.666H63.0547Z" fill="#213B31"/>
<path d="M474.32 25.6621H85.8652V271.617H474.32V25.6621Z" fill="white"/>
<path d="M474.32 35.125H85.8652V95.6476H474.32V35.125Z" fill="#7787B1"/>
<path d="M454.053 46.877H359.535V59.4967H454.053V46.877Z" fill="white"/>
<path d="M454.176 59.6242H359.396V46.7422H454.176V59.6242ZM359.624 59.362H453.891V47.0044H359.624V59.362Z" fill="#F499B2"/>
<path d="M454.187 46.7422H441.305V59.6242H454.187V46.7422Z" fill="#16925F"/>
<path d="M451.737 56.7602L450.597 57.6494L448.443 54.7994L447.656 53.7506C447.815 53.6871 447.964 53.6028 448.101 53.4998C448.364 53.2965 448.572 53.0299 448.705 52.7246L449.537 53.8646L451.737 56.7602Z" fill="white"/>
<path d="M449.446 50.0019C449.075 49.5222 448.575 49.1584 448.005 48.9533C447.435 48.7482 446.818 48.7103 446.227 48.8441C445.635 48.9779 445.095 49.2778 444.668 49.7085C444.242 50.1392 443.948 50.6828 443.82 51.2752C443.692 51.8677 443.736 52.4843 443.947 53.0525C444.157 53.6208 444.526 54.117 445.01 54.4827C445.493 54.8483 446.071 55.0683 446.675 55.1167C447.279 55.1651 447.884 55.0398 448.42 54.7557C448.568 54.6645 448.716 54.5733 448.853 54.4707C449.107 54.2778 449.33 54.0471 449.514 53.7867C449.906 53.2304 450.111 52.5636 450.099 51.8831C450.086 51.2025 449.858 50.5436 449.446 50.0019ZM448.078 53.4219C447.779 53.6511 447.419 53.7865 447.043 53.8109C446.667 53.8354 446.292 53.7479 445.966 53.5594C445.64 53.3709 445.377 53.0899 445.211 52.752C445.045 52.4141 444.982 52.0345 445.032 51.6611C445.081 51.2878 445.24 50.9375 445.489 50.6545C445.738 50.3716 446.065 50.1688 446.428 50.0717C446.792 49.9746 447.177 49.9876 447.533 50.1091C447.89 50.2306 448.202 50.4551 448.431 50.7543C448.636 51.0197 448.767 51.3345 448.811 51.6667C448.855 51.999 448.81 52.3371 448.682 52.6467C448.554 52.9643 448.346 53.2433 448.078 53.4561V53.4219Z" fill="white"/>
<path d="M362.839 49.3516H362.166V57.0124H362.839V49.3516Z" fill="#F499B2"/>
<path d="M354.792 46.877H137.098V59.4967H354.792V46.877Z" fill="white"/>
<path d="M354.918 59.6242H136.961V46.7422H354.918V59.6242ZM137.178 59.362H354.655V47.0044H137.223L137.178 59.362Z" fill="#F499B2"/>
<path d="M140.403 49.3516H139.73V57.0124H140.403V49.3516Z" fill="#F499B2"/>
<path d="M113.282 57.5009L108.688 53.2715L113.27 48.8711L113.988 49.6121L110.192 53.2487L113.977 56.7371L113.282 57.5009Z" fill="white"/>
<path d="M124.375 48.8613L128.969 53.0907L124.375 57.4911L123.668 56.7501L127.464 53.1135L123.679 49.6251L124.375 48.8613Z" fill="white"/>
<path d="M474.32 25.6621H85.8652V35.1241H474.32V25.6621Z" fill="#16925F"/>
<path d="M94.7691 30.3933C94.7691 30.7473 94.6641 31.0933 94.4674 31.3877C94.2708 31.682 93.9912 31.9114 93.6642 32.0469C93.3371 32.1823 92.9773 32.2178 92.6301 32.1487C92.2829 32.0797 91.964 31.9092 91.7137 31.6589C91.4634 31.4086 91.2929 31.0897 91.2238 30.7425C91.1548 30.3953 91.1902 30.0354 91.3257 29.7084C91.4612 29.3813 91.6906 29.1018 91.9849 28.9051C92.2792 28.7085 92.6253 28.6035 92.9793 28.6035C93.4539 28.6035 93.9092 28.7921 94.2448 29.1277C94.5805 29.4634 94.7691 29.9186 94.7691 30.3933Z" fill="#F499B2"/>
<path d="M102.089 30.3933C102.091 30.7501 101.987 31.0994 101.791 31.3971C101.594 31.6948 101.314 31.9275 100.985 32.0655C100.656 32.2036 100.293 32.2409 99.9431 32.1727C99.593 32.1045 99.271 31.9339 99.0179 31.6824C98.7649 31.431 98.5922 31.1101 98.5218 30.7604C98.4514 30.4107 98.4863 30.0479 98.6223 29.7181C98.7583 29.3883 98.9892 29.1063 99.2856 28.9079C99.5821 28.7095 99.9308 28.6036 100.287 28.6036C100.523 28.602 100.757 28.6472 100.976 28.7365C101.194 28.8258 101.393 28.9574 101.56 29.1237C101.728 29.2901 101.861 29.4879 101.951 29.7058C102.042 29.9237 102.089 30.1573 102.089 30.3933Z" fill="white"/>
<path d="M107.606 32.1831C108.595 32.1831 109.396 31.3818 109.396 30.3933C109.396 29.4048 108.595 28.6035 107.606 28.6035C106.618 28.6035 105.816 29.4048 105.816 30.3933C105.816 31.3818 106.618 32.1831 107.606 32.1831Z" fill="#7787B1"/>
<path d="M253.242 112.952C255.674 120.779 255.733 129.15 253.411 137.009C251.09 144.869 246.491 151.865 240.197 157.113C233.903 162.362 226.195 165.627 218.046 166.499C209.897 167.37 201.672 165.807 194.411 162.008C187.149 158.208 181.176 152.343 177.246 145.152C173.315 137.96 171.603 129.766 172.326 121.602C173.049 113.439 176.174 105.673 181.307 99.284C186.44 92.8953 193.351 88.1706 201.167 85.7064C206.375 84.0676 211.855 83.4726 217.294 83.9557C222.732 84.4387 228.022 85.9903 232.859 88.5214C237.697 91.0525 241.988 94.5134 245.485 98.7057C248.983 102.898 251.619 107.739 253.242 112.952Z" fill="#FBF9DA"/>
<path d="M225.208 162.008C217.936 164.3 210.147 164.382 202.828 162.244C195.509 160.105 188.989 155.843 184.094 149.997C179.199 144.15 176.15 136.983 175.332 129.402C174.514 121.821 175.964 114.168 179.499 107.411C183.033 100.655 188.494 95.1002 195.188 91.4497C201.882 87.7991 209.509 86.2175 217.103 86.905C224.697 87.5925 231.916 90.5182 237.846 95.3117C243.776 100.105 248.15 106.551 250.414 113.832C253.446 123.563 252.495 134.099 247.77 143.13C243.045 152.161 234.931 158.95 225.208 162.008ZM246.868 115.599C244.96 109.049 241.157 103.21 235.936 98.8177C230.716 94.4254 224.313 91.6762 217.534 90.9161C210.754 90.1561 203.901 91.4193 197.838 94.5467C191.775 97.674 186.773 102.526 183.462 108.491C180.151 114.455 178.679 121.267 179.232 128.066C179.784 134.866 182.337 141.35 186.568 146.702C190.799 152.054 196.519 156.034 203.007 158.141C209.496 160.248 216.463 160.388 223.031 158.542C227.422 157.3 231.524 155.2 235.1 152.365C238.676 149.53 241.655 146.016 243.867 142.024C246.079 138.032 247.478 133.642 247.986 129.107C248.493 124.571 248.098 119.98 246.823 115.599H246.868Z" fill="#B9BAFE"/>
<path d="M206.18 102.179L209.965 100.982L210.307 102.122C210.774 103.604 211.253 105.064 211.686 106.546C211.857 107.104 212.085 107.173 212.644 107.081C214.266 106.75 215.914 106.56 217.569 106.511C221.81 106.511 224.591 108.871 225.549 112.998C225.74 113.748 225.881 114.51 225.971 115.278C226.062 116.214 225.937 117.158 225.605 118.038C225.273 118.918 224.743 119.709 224.055 120.351L222.995 121.388C223.702 121.445 224.318 121.48 224.933 121.571C226.549 121.752 228.076 122.406 229.323 123.45C230.57 124.494 231.482 125.883 231.944 127.442C232.525 128.953 232.797 130.566 232.742 132.184C232.689 133.259 232.42 134.312 231.949 135.28C231.479 136.247 230.818 137.11 230.006 137.816C228.101 139.445 225.887 140.674 223.497 141.43C222.938 141.635 222.767 141.829 222.972 142.433C223.463 143.869 223.862 145.34 224.329 146.788C224.443 147.152 224.409 147.38 224.033 147.494L220.784 148.52C220.635 148.03 220.499 147.597 220.362 147.164C219.974 145.933 219.575 144.713 219.222 143.482C219.096 143.06 218.925 142.9 218.481 143.06C217.785 143.311 217.067 143.516 216.281 143.767L218.048 149.353L214.263 150.55C213.67 148.691 213.123 146.867 212.496 144.964L203.114 147.928C202.43 145.773 201.78 143.71 201.107 141.566L203.877 140.7C201.597 133.393 199.317 126.176 197.037 118.892L194.29 119.758C193.617 117.638 192.968 115.574 192.295 113.431L201.632 110.479L199.682 104.3L203.444 103.16L205.359 109.259L208.141 108.381C207.468 106.249 206.864 104.254 206.18 102.179ZM213.773 127.978C213.146 128.171 212.53 128.388 211.892 128.559C211.481 128.673 211.401 128.878 211.527 129.277C212.336 131.797 213.134 134.305 213.909 136.835C214.058 137.326 214.297 137.383 214.73 137.234C215.813 136.87 216.919 136.55 218.002 136.186C219.005 135.902 219.867 135.254 220.417 134.368C220.967 133.482 221.167 132.423 220.977 131.398C220.945 130.707 220.748 130.035 220.403 129.436C220.058 128.837 219.574 128.33 218.993 127.956C218.412 127.582 217.749 127.353 217.061 127.287C216.373 127.221 215.679 127.321 215.038 127.579L213.773 127.978ZM208.437 119.462C208.779 120.533 209.121 121.594 209.452 122.677C209.555 123.03 209.726 123.178 210.102 123.041C211.242 122.654 212.382 122.323 213.522 121.901C214.092 121.697 214.574 121.302 214.886 120.782C215.198 120.262 215.32 119.651 215.232 119.051C215.14 118.241 214.936 117.447 214.628 116.692C214.478 116.283 214.249 115.909 213.953 115.59C213.658 115.271 213.302 115.014 212.906 114.834C212.511 114.654 212.083 114.554 211.649 114.54C211.214 114.526 210.782 114.599 210.375 114.754C209.52 115.016 208.677 115.312 207.822 115.552C207.411 115.666 207.32 115.871 207.457 116.258C207.776 117.341 208.107 118.413 208.437 119.462Z" fill="#B9BAFE"/>
<path d="M229.597 94.6221C233.687 96.6364 237.334 99.4462 240.324 102.887C243.308 106.37 245.578 110.407 247.005 114.766C248.427 119.142 248.958 123.759 248.566 128.343C248.186 132.938 246.892 137.41 244.76 141.497C242.628 145.585 239.702 149.205 236.152 152.146C230.863 156.589 224.354 159.325 217.48 159.997C210.607 160.668 203.691 159.243 197.643 155.909C203.712 158.923 210.531 160.098 217.259 159.287C223.988 158.477 230.333 155.718 235.513 151.348C242.378 145.496 246.702 137.208 247.575 128.229C248.182 121.48 246.805 114.7 243.611 108.723C240.417 102.747 235.546 97.8334 229.597 94.5879V94.6221Z" fill="white"/>
<path d="M197.392 155.94C193.307 153.912 189.668 151.091 186.687 147.641C183.711 144.149 181.452 140.105 180.041 135.739C178.628 131.361 178.112 126.743 178.525 122.162C178.924 117.563 180.239 113.092 182.393 109.01C184.546 104.928 187.495 101.318 191.065 98.3925C194.608 95.4531 198.706 93.2551 203.115 91.9287C207.508 90.6134 212.119 90.1795 216.681 90.6519C221.214 91.1388 225.603 92.5346 229.585 94.7559C223.53 91.7144 216.717 90.5105 209.986 91.2923C203.255 92.0742 196.9 94.8078 191.703 99.1563C184.795 104.972 180.421 113.247 179.505 122.23C178.871 128.981 180.226 135.771 183.405 141.761C186.583 147.751 191.445 152.68 197.392 155.94Z" fill="#F499B2"/>
<path d="M194.256 119.702C194.062 119.189 193.869 118.664 193.686 118.151C193.504 117.638 193.299 117.114 193.116 116.589L192.045 113.443L191.965 113.226L192.193 113.158C195.278 112.124 198.391 111.14 201.529 110.205L201.381 110.502L200.481 107.378L200.025 105.782C199.88 105.258 199.743 104.733 199.614 104.209C199.808 104.722 199.99 105.224 200.173 105.737L200.731 107.264L201.78 110.319L201.86 110.536L201.632 110.616C198.546 111.649 195.434 112.63 192.295 113.557L192.444 113.272L193.367 116.464C193.515 116.988 193.652 117.536 193.8 118.06C193.948 118.584 194.131 119.166 194.256 119.702Z" fill="white"/>
<path d="M203.127 147.87C202.739 146.821 202.386 145.772 201.987 144.723C201.588 143.675 201.268 142.626 200.915 141.566L200.858 141.395L201.029 141.338L203.788 140.414L203.64 140.711L201.884 135.273C201.303 133.46 200.744 131.625 200.185 129.812C199.627 128 199.045 126.164 198.532 124.34C198.019 122.516 197.484 120.681 196.971 118.834C197.621 120.635 198.247 122.425 198.852 124.238C199.456 126.05 200.071 127.851 200.653 129.664C201.234 131.477 201.793 133.289 202.386 135.113L204.073 140.574L204.153 140.79L203.925 140.859L201.143 141.691L201.257 141.463C201.565 142.523 201.895 143.583 202.192 144.655C202.488 145.727 202.842 146.821 203.127 147.87Z" fill="white"/>
<path d="M214.732 137.235C215.314 136.984 215.872 136.768 216.499 136.528L218.289 135.89C218.831 135.66 219.315 135.314 219.709 134.877C220.103 134.44 220.397 133.922 220.569 133.359C220.899 132.192 220.781 130.944 220.239 129.859C219.984 129.302 219.619 128.802 219.167 128.389C218.72 127.952 218.183 127.617 217.594 127.408C218.234 127.54 218.836 127.813 219.357 128.207C219.878 128.602 220.304 129.108 220.603 129.688C220.941 130.264 221.158 130.902 221.242 131.565C221.327 132.227 221.276 132.899 221.094 133.541C220.891 134.186 220.539 134.773 220.065 135.255C219.592 135.737 219.01 136.099 218.369 136.312C217.195 136.631 215.986 136.961 214.732 137.235Z" fill="white"/>
<path d="M210.287 123.029C211.233 122.607 212.237 122.231 213.183 121.889C213.618 121.665 213.994 121.342 214.281 120.946C214.568 120.55 214.758 120.092 214.836 119.609C214.995 118.63 214.831 117.625 214.368 116.747C213.916 115.827 213.197 115.064 212.305 114.559C213.33 114.906 214.194 115.615 214.733 116.554C215.326 117.497 215.553 118.624 215.372 119.723C215.267 120.278 215.028 120.798 214.674 121.238C214.32 121.677 213.862 122.022 213.342 122.242C212.282 122.584 211.279 122.801 210.287 123.029Z" fill="white"/>
<path d="M212.564 144.908C213.043 145.768 213.425 146.678 213.704 147.621C214.013 148.555 214.223 149.517 214.331 150.494C213.853 149.634 213.471 148.724 213.191 147.781C212.885 146.847 212.674 145.885 212.564 144.908Z" fill="white"/>
<path d="M218.928 142.969C219.401 143.823 219.784 144.725 220.068 145.659C220.376 146.584 220.583 147.54 220.683 148.509C220.21 147.655 219.828 146.753 219.543 145.819C219.234 144.894 219.027 143.939 218.928 142.969Z" fill="white"/>
<path d="M386.985 91.3705C385.201 99.3712 381.087 106.664 375.16 112.327C369.234 117.991 361.763 121.771 353.689 123.191C345.616 124.61 337.303 123.606 329.801 120.304C322.298 117.002 315.942 111.551 311.535 104.639C307.129 97.7269 304.869 89.664 305.042 81.4687C305.216 73.2734 307.813 65.3131 312.508 58.5932C317.202 51.8734 323.782 46.6954 331.418 43.7132C339.053 40.7309 347.401 40.0783 355.407 41.8375C360.737 43.0101 365.782 45.2226 370.255 48.3482C374.728 51.4738 378.54 55.4511 381.473 60.0523C384.407 64.6535 386.404 69.7882 387.349 75.1623C388.295 80.5364 388.172 86.0443 386.985 91.3705Z" fill="#FBF9DA"/>
<path d="M338.318 119.972C330.872 118.343 324.076 114.541 318.792 109.046C313.508 103.552 309.973 96.6131 308.636 89.1084C307.299 81.6037 308.219 73.871 311.28 66.8897C314.341 59.9084 319.405 53.9925 325.831 49.8915C332.257 45.7905 339.755 43.6888 347.376 43.8526C354.997 44.0165 362.398 46.4385 368.642 50.8119C374.885 55.1852 379.69 61.3132 382.448 68.4197C385.207 75.5261 385.794 83.2912 384.135 90.7315C381.924 100.677 375.859 109.341 367.271 114.822C358.682 120.304 348.27 122.156 338.318 119.972ZM380.145 90.4693C381.749 83.8383 381.356 76.8809 379.013 70.4733C376.671 64.0657 372.485 58.4946 366.982 54.4617C361.48 50.4287 354.907 48.1144 348.091 47.8101C341.276 47.5058 334.523 49.2252 328.682 52.7518C322.842 56.2784 318.176 61.4543 315.272 67.6277C312.369 73.801 311.356 80.6957 312.364 87.4432C313.371 94.1908 316.352 100.489 320.932 105.546C325.512 110.602 331.486 114.19 338.102 115.857C342.53 116.97 347.135 117.195 351.65 116.52C356.166 115.844 360.503 114.281 364.412 111.921C368.32 109.561 371.723 106.45 374.423 102.768C377.124 99.0864 379.068 94.9064 380.145 90.4693Z" fill="#B9BAFE"/>
<path d="M351.575 58.6067L355.451 59.4503L355.212 60.5903C354.881 62.1065 354.574 63.6113 354.209 65.1503C354.072 65.7089 354.209 65.8913 354.767 66.0851C356.337 66.6127 357.862 67.2646 359.327 68.0345C362.998 70.1777 364.241 73.5749 363.044 77.6561C362.833 78.3981 362.574 79.1254 362.269 79.8335C361.883 80.6882 361.305 81.4418 360.579 82.0352C359.853 82.6286 358.999 83.0456 358.085 83.2535C357.64 83.3789 357.184 83.4815 356.648 83.6183C357.23 84.0287 357.788 84.3593 358.244 84.7583C359.56 85.7174 360.561 87.0445 361.123 88.5722C361.685 90.0998 361.782 91.7597 361.402 93.3425C361.164 94.96 360.597 96.5117 359.738 97.9025C359.158 98.807 358.402 99.5852 357.515 100.19C356.628 100.796 355.627 101.216 354.574 101.425C352.088 101.858 349.542 101.788 347.084 101.22C346.502 101.117 346.263 101.22 346.138 101.824C345.841 103.317 345.465 104.788 345.134 106.281C345.055 106.646 344.918 106.829 344.53 106.749L341.213 106.019C341.315 105.529 341.418 105.073 341.509 104.628C341.783 103.374 342.045 102.109 342.341 100.855C342.444 100.433 342.341 100.205 341.897 100.125C341.167 100 340.449 99.8177 339.617 99.6467C339.184 101.596 338.785 103.454 338.363 105.347L334.487 104.492C334.897 102.588 335.308 100.73 335.729 98.7917L326.119 96.6941C326.598 94.4825 327.065 92.3735 327.544 90.1733L330.383 90.8003C332.013 83.3219 333.632 75.9803 335.262 68.4563L332.446 67.8521C332.914 65.6747 333.381 63.5543 333.86 61.3655L343.424 63.4517C343.892 61.2971 344.348 59.2337 344.815 57.1133L348.657 57.9569C348.212 60.0089 347.756 62.0723 347.3 64.2041L350.15 64.8311C350.663 62.7905 351.119 60.7385 351.575 58.6067ZM345.317 84.7697C344.678 84.6215 344.04 84.5075 343.402 84.3365C342.991 84.2339 342.82 84.3365 342.729 84.7697C342.182 87.3575 341.589 89.9453 341.03 92.5217C340.916 93.0119 341.099 93.1829 341.543 93.2741C342.683 93.4907 343.823 93.7643 344.906 93.9809C345.917 94.2413 346.989 94.1113 347.908 93.6169C348.827 93.1226 349.526 92.3 349.865 91.3133C350.182 90.6993 350.346 90.0185 350.345 89.3278C350.344 88.6372 350.177 87.9569 349.859 87.3439C349.541 86.7309 349.08 86.2031 348.516 85.8048C347.952 85.4065 347.3 85.1493 346.616 85.0547L345.317 84.7697ZM344.918 74.7491C344.678 75.8891 344.45 76.9379 344.2 78.0323C344.12 78.3971 344.2 78.6137 344.587 78.6821C345.727 78.9101 346.867 79.1951 348.098 79.3661C348.694 79.4737 349.308 79.371 349.836 79.0757C350.365 78.7805 350.774 78.3109 350.994 77.7473C351.316 76.9976 351.535 76.2075 351.644 75.3989C351.717 74.9704 351.704 74.5317 351.607 74.1081C351.509 73.6845 351.328 73.2845 351.075 72.9314C350.821 72.5782 350.5 72.2789 350.13 72.0509C349.76 71.8228 349.349 71.6704 348.919 71.6027C348.053 71.3975 347.175 71.2379 346.309 71.0213C345.887 70.9187 345.716 71.0213 345.636 71.4545C345.419 72.5489 345.169 73.6433 344.918 74.7491Z" fill="#B9BAFE"/>
<path d="M375.64 63.7031C378.194 67.4923 379.958 71.7572 380.827 76.2431C381.696 80.7653 381.661 85.4145 380.724 89.9231C379.777 94.4215 377.94 98.6851 375.321 102.463C372.697 106.254 369.35 109.489 365.471 111.982C361.579 114.452 357.242 116.137 352.703 116.941C348.178 117.734 343.541 117.616 339.062 116.594C334.583 115.573 330.353 113.667 326.62 110.99C322.921 108.318 319.796 104.93 317.432 101.027C321.191 106.665 326.516 111.082 332.752 113.735C338.988 116.388 345.863 117.162 352.532 115.961C361.399 114.289 369.272 109.247 374.5 101.893C378.387 96.3422 380.565 89.776 380.768 83.0027C380.97 76.2295 379.188 69.5448 375.64 63.7715V63.7031Z" fill="white"/>
<path d="M317.217 100.857C314.674 97.0658 312.922 92.8009 312.064 88.3171C311.213 83.8109 311.263 79.1807 312.212 74.6941C313.166 70.1899 315.02 65.9247 317.662 62.1541C320.288 58.3663 323.645 55.1415 327.534 52.669C331.424 50.1965 335.769 48.5261 340.313 47.7559C344.853 46.9586 349.507 47.0905 353.993 48.1435C358.459 49.1849 362.674 51.0988 366.397 53.7751C370.071 56.4637 373.172 59.8588 375.517 63.7615C371.77 58.1251 366.459 53.7051 360.236 51.0441C354.013 48.3832 347.148 47.5969 340.484 48.7819C336.085 49.5804 331.883 51.2301 328.115 53.6383C324.332 56.0146 321.055 59.1137 318.471 62.7583C314.57 68.2991 312.373 74.8591 312.15 81.6318C311.927 88.4045 313.689 95.0947 317.217 100.88V100.857Z" fill="#F499B2"/>
<path d="M332.514 67.8879C332.593 67.3293 332.685 66.7479 332.787 66.2463C332.89 65.7447 332.97 65.1063 333.072 64.6047L333.699 61.3443V61.1277H333.927C337.134 61.7661 340.326 62.4615 343.503 63.2139L343.23 63.3963L344.005 60.2385L344.404 58.6767C344.541 58.1523 344.689 57.6279 344.837 57.1035L344.563 58.7109L344.278 60.3069L343.674 63.4875V63.7155H343.446C340.247 63.0695 337.058 62.3703 333.882 61.6179L334.155 61.4469L333.357 64.6731C333.232 65.2089 333.084 65.7447 332.947 66.2805C332.81 66.8163 332.662 67.3521 332.514 67.8879Z" fill="white"/>
<path d="M326.189 96.7287C326.372 95.5887 326.588 94.5399 326.794 93.4455C326.999 92.3511 327.215 91.2681 327.432 90.1737V89.9913H327.614L330.464 90.5613L330.191 90.7323L331.331 85.1463C331.73 83.2767 332.163 81.4299 332.573 79.5717C332.984 77.7135 333.428 75.8553 333.873 73.9971C334.318 72.1389 334.774 70.2921 335.252 68.4453C334.91 70.3263 334.568 72.2073 334.192 74.0655C333.816 75.9237 333.451 77.8047 333.052 79.6743C332.653 81.5439 332.266 83.4021 331.855 85.2603L330.601 90.8349L330.544 91.0629H330.316L327.489 90.3903L327.706 90.2535C327.443 91.3251 327.204 92.4081 326.93 93.4911C326.657 94.5741 326.474 95.6457 326.189 96.7287Z" fill="white"/>
<path d="M341.545 93.2415C342.183 93.3099 342.799 93.4239 343.426 93.5151L345.295 93.8457C345.885 93.9225 346.485 93.8694 347.052 93.6902C347.619 93.511 348.14 93.21 348.579 92.8083C349.442 91.9569 349.958 90.8153 350.026 89.6049C350.087 88.9938 350.021 88.3768 349.833 87.7923C349.665 87.1905 349.365 86.6336 348.955 86.1621C349.442 86.5859 349.828 87.1126 350.087 87.704C350.345 88.2955 350.468 88.937 350.448 89.5821C350.455 90.2499 350.325 90.912 350.066 91.5277C349.808 92.1433 349.425 92.6994 348.944 93.1617C348.452 93.622 347.856 93.9567 347.207 94.1373C346.558 94.3179 345.875 94.3391 345.216 94.1991C343.984 93.9711 342.765 93.6519 341.545 93.2415Z" fill="white"/>
<path d="M344.727 78.717C345.764 78.831 346.824 79.002 347.816 79.1616C348.299 79.1821 348.78 79.0898 349.222 78.892C349.663 78.6941 350.052 78.3961 350.358 78.0216C350.986 77.253 351.347 76.3004 351.384 75.3084C351.446 74.2795 351.2 73.2556 350.677 72.3672C351.404 73.1753 351.81 74.2216 351.817 75.3084C351.861 76.4216 351.497 77.5124 350.791 78.375C350.422 78.7974 349.954 79.1223 349.429 79.3211C348.904 79.5199 348.338 79.5865 347.782 79.515C346.71 79.344 345.73 79.0362 344.727 78.717Z" fill="white"/>
<path d="M335.799 98.8281C335.779 99.8103 335.661 100.788 335.446 101.747C335.245 102.705 334.947 103.641 334.557 104.54C334.565 103.557 334.684 102.578 334.91 101.621C335.106 100.661 335.404 99.7246 335.799 98.8281Z" fill="white"/>
<path d="M342.329 100.334C342.309 101.309 342.191 102.279 341.975 103.23C341.778 104.189 341.48 105.125 341.086 106.023C341.105 105.044 341.223 104.07 341.439 103.116C341.636 102.159 341.934 101.227 342.329 100.334Z" fill="white"/>
<path d="M371.241 237.703C369.456 245.704 365.341 252.997 359.414 258.66C353.487 264.323 346.015 268.103 337.941 269.522C329.867 270.941 321.554 269.935 314.051 266.632C306.549 263.329 300.193 257.876 295.788 250.963C291.382 244.05 289.124 235.987 289.298 227.791C289.473 219.595 292.073 211.635 296.769 204.916C301.465 198.197 308.047 193.02 315.683 190.04C323.32 187.059 331.668 186.408 339.674 188.17C345.002 189.344 350.047 191.557 354.518 194.683C358.99 197.81 362.801 201.787 365.733 206.388C368.665 210.989 370.661 216.123 371.606 221.497C372.551 226.87 372.427 232.378 371.241 237.703Z" fill="#FBF9DA"/>
<path d="M322.526 266.308C315.081 264.677 308.286 260.873 303.004 255.378C297.722 249.882 294.189 242.943 292.854 235.439C291.518 227.934 292.439 220.202 295.501 213.222C298.563 206.242 303.628 200.327 310.053 196.227C316.479 192.127 323.977 190.026 331.597 190.191C339.218 190.355 346.618 192.777 352.861 197.15C359.104 201.524 363.909 207.651 366.667 214.757C369.425 221.863 370.012 229.627 368.354 237.067C366.143 247.015 360.077 255.681 351.486 261.163C342.895 266.644 332.48 268.495 322.526 266.308ZM364.353 236.805C365.955 230.174 365.559 223.217 363.215 216.81C360.871 210.404 356.684 204.834 351.18 200.803C345.677 196.771 339.104 194.459 332.289 194.156C325.473 193.853 318.721 195.574 312.882 199.102C307.043 202.629 302.378 207.806 299.475 213.979C296.573 220.153 295.561 227.047 296.57 233.794C297.578 240.541 300.56 246.839 305.14 251.895C309.72 256.95 315.694 260.537 322.31 262.204C326.739 263.318 331.345 263.544 335.861 262.869C340.378 262.193 344.716 260.629 348.625 258.268C352.535 255.906 355.937 252.794 358.636 249.11C361.336 245.426 363.279 241.244 364.353 236.805Z" fill="#B9BAFE"/>
<path d="M335.798 204.962L339.663 205.806L339.423 206.946C339.093 208.462 338.785 209.967 338.42 211.506C338.283 212.064 338.42 212.247 338.99 212.441C340.561 212.969 342.086 213.625 343.55 214.401C347.221 216.533 348.475 219.93 347.266 224.012C347.061 224.755 346.802 225.483 346.491 226.189C346.106 227.044 345.527 227.797 344.801 228.391C344.075 228.984 343.222 229.401 342.307 229.609C341.863 229.734 341.407 229.837 340.871 229.974C341.452 230.384 342.011 230.715 342.467 231.114C343.783 232.075 344.785 233.404 345.347 234.933C345.909 236.463 346.006 238.125 345.625 239.709C345.384 241.308 344.817 242.841 343.96 244.212C343.381 245.117 342.625 245.895 341.738 246.5C340.85 247.106 339.85 247.526 338.796 247.735C336.329 248.197 333.794 248.162 331.341 247.632C330.759 247.53 330.52 247.632 330.394 248.237C330.109 249.73 329.722 251.212 329.403 252.694C329.323 253.059 329.175 253.241 328.787 253.161L325.424 252.386C325.527 251.885 325.629 251.429 325.732 250.984C326.005 249.73 326.268 248.465 326.553 247.211C326.655 246.789 326.553 246.561 326.119 246.481C325.39 246.356 324.66 246.173 323.839 246.002C323.418 247.952 323.007 249.81 322.585 251.702L318.709 250.847C319.12 248.943 319.53 247.085 319.952 245.147L310.342 243.05C310.821 240.838 311.288 238.729 311.767 236.529L314.605 237.156C316.236 229.677 317.854 222.279 319.485 214.823L316.669 214.208C317.148 212.03 317.604 209.921 318.082 207.721L327.647 209.807C328.126 207.653 328.57 205.589 329.038 203.469L332.891 204.312C332.435 206.364 331.99 208.439 331.523 210.56L334.373 211.187C334.886 209.123 335.331 207.071 335.798 204.962ZM329.528 231.125C328.89 230.988 328.251 230.863 327.613 230.692C327.202 230.589 327.031 230.692 326.94 231.137C326.393 233.713 325.8 236.301 325.253 238.877C325.139 239.367 325.253 239.538 325.766 239.63C326.906 239.846 328.046 240.12 329.118 240.336C330.13 240.594 331.202 240.464 332.122 239.97C333.042 239.476 333.744 238.655 334.088 237.669C334.402 237.054 334.564 236.374 334.562 235.684C334.559 234.995 334.392 234.315 334.074 233.703C333.757 233.091 333.297 232.564 332.735 232.165C332.172 231.766 331.522 231.507 330.839 231.41L329.528 231.125ZM329.14 221.105C328.901 222.245 328.673 223.293 328.411 224.388C328.331 224.753 328.411 224.969 328.798 225.038C329.938 225.266 331.135 225.551 332.31 225.722C332.905 225.829 333.519 225.726 334.048 225.431C334.576 225.136 334.985 224.666 335.205 224.103C335.531 223.353 335.753 222.563 335.866 221.754C335.94 221.325 335.927 220.885 335.828 220.461C335.73 220.037 335.548 219.637 335.293 219.283C335.039 218.93 334.716 218.631 334.345 218.403C333.974 218.176 333.561 218.025 333.13 217.958C332.264 217.753 331.386 217.593 330.531 217.377C330.109 217.274 329.938 217.377 329.847 217.81C329.631 218.882 329.38 219.976 329.14 221.082V221.105Z" fill="#B9BAFE"/>
<path d="M359.853 210.033C362.41 213.822 364.178 218.087 365.051 222.573C365.908 227.078 365.87 231.707 364.937 236.196C363.995 240.696 362.157 244.961 359.534 248.736C356.91 252.527 353.563 255.762 349.684 258.255C345.792 260.725 341.455 262.41 336.916 263.214C332.391 264.005 327.754 263.886 323.275 262.865C318.797 261.843 314.567 259.939 310.833 257.263C307.133 254.591 304.009 251.203 301.645 247.3C305.404 252.938 310.729 257.355 316.965 260.008C323.201 262.661 330.076 263.435 336.745 262.234C345.617 260.577 353.496 255.531 358.713 248.166C362.598 242.612 364.775 236.045 364.978 229.27C365.18 222.495 363.399 215.809 359.853 210.033Z" fill="white"/>
<path d="M301.486 247.142C298.953 243.346 297.201 239.083 296.333 234.602C295.493 230.095 295.543 225.467 296.481 220.979C297.435 216.475 299.289 212.21 301.931 208.439C304.557 204.651 307.913 201.427 311.803 198.954C315.693 196.482 320.038 194.811 324.582 194.041C329.122 193.244 333.775 193.376 338.262 194.429C342.727 195.47 346.943 197.384 350.666 200.06C354.338 202.751 357.438 206.146 359.786 210.047C356.044 204.396 350.733 199.962 344.505 197.29C338.277 194.619 331.403 193.826 324.731 195.01C315.854 196.643 307.96 201.663 302.717 209.009C298.817 214.553 296.623 221.117 296.404 227.892C296.185 234.667 297.952 241.358 301.486 247.142Z" fill="#F499B2"/>
<path d="M316.727 214.22C316.806 213.673 316.909 213.08 317 212.578C317.091 212.077 317.183 211.438 317.297 210.937L317.912 207.676V207.46H318.152C321.344 208.098 324.532 208.794 327.716 209.546L327.443 209.728L328.218 206.571L328.628 205.009C328.765 204.484 328.902 203.96 329.05 203.436C328.966 203.975 328.875 204.511 328.776 205.043L328.503 206.639L327.887 209.82V210.048H327.659C324.456 209.398 321.275 208.702 318.095 207.95L318.368 207.779L317.582 211.005C317.445 211.541 317.297 212.077 317.16 212.613C317.023 213.148 316.875 213.684 316.727 214.22Z" fill="white"/>
<path d="M310.398 243.061C310.592 241.921 310.797 240.872 311.003 239.778C311.208 238.683 311.436 237.6 311.641 236.506V236.324H311.823L314.673 236.894L314.4 237.065L315.54 231.479C315.939 229.609 316.372 227.762 316.782 225.904C317.193 224.046 317.637 222.188 318.082 220.329C318.527 218.471 318.983 216.624 319.461 214.789C319.131 216.659 318.777 218.54 318.401 220.398C318.025 222.256 317.66 224.137 317.261 226.007C316.862 227.876 316.486 229.734 316.064 231.593L314.81 237.167L314.753 237.395H314.537L311.698 236.723L311.926 236.586C311.664 237.657 311.413 238.752 311.139 239.823C310.866 240.895 310.683 241.978 310.398 243.061Z" fill="white"/>
<path d="M325.766 239.607C326.393 239.675 327.02 239.789 327.647 239.88L329.516 240.211C330.104 240.288 330.702 240.234 331.267 240.055C331.832 239.876 332.352 239.575 332.788 239.174C333.428 238.527 333.884 237.721 334.106 236.839C334.329 235.956 334.311 235.03 334.053 234.158C333.875 233.56 333.577 233.005 333.176 232.527C333.658 232.954 334.041 233.482 334.297 234.073C334.553 234.664 334.676 235.304 334.658 235.947C334.664 236.614 334.535 237.275 334.278 237.89C334.021 238.506 333.643 239.062 333.164 239.527C332.67 239.987 332.072 240.321 331.421 240.501C330.77 240.682 330.086 240.703 329.425 240.564C328.194 240.302 326.974 239.983 325.766 239.607Z" fill="white"/>
<path d="M328.945 225.049C329.971 225.163 331.032 225.334 332.023 225.494C332.508 225.514 332.991 225.421 333.434 225.223C333.877 225.025 334.268 224.728 334.577 224.354C335.201 223.584 335.557 222.631 335.592 221.641C335.658 220.617 335.416 219.596 334.896 218.711C335.62 219.516 336.026 220.558 336.036 221.641C336.083 222.753 335.723 223.843 335.022 224.707C334.651 225.131 334.181 225.457 333.654 225.656C333.127 225.855 332.559 225.921 332.001 225.847C330.918 225.676 329.983 225.369 328.945 225.049Z" fill="white"/>
<path d="M320.008 245.158C319.994 246.141 319.875 247.119 319.655 248.077C319.459 249.037 319.161 249.973 318.766 250.87C318.786 249.887 318.904 248.91 319.119 247.951C319.32 246.992 319.618 246.057 320.008 245.158Z" fill="white"/>
<path d="M326.563 246.664C326.555 247.639 326.436 248.611 326.21 249.559C326.014 250.519 325.716 251.456 325.32 252.352C325.371 250.391 325.793 248.457 326.563 246.652V246.664Z" fill="white"/>
<path d="M296.638 271.617H257.992L257.548 273.316C257.548 272.746 257.548 272.176 257.548 271.617H250.525L249.91 201.382V201.188L249.853 194.496V191.133L249.796 185V183.119L249.682 169.861V169.348H292.5L292.945 180.257V180.474L293.15 185.444L293.275 188.408V189.07L293.412 192.353L293.743 200.333L296.638 271.617Z" fill="#213B31"/>
<path d="M258.77 271.619H257.995L257.55 273.318C257.55 272.748 257.55 272.178 257.55 271.619C257.55 270.058 257.55 268.484 257.55 266.923C257.504 262.18 257.466 257.442 257.436 252.707C257.368 242.287 257.326 231.86 257.311 221.425C257.311 215.892 257.311 210.356 257.311 204.815C257.311 200.814 257.311 196.835 257.311 192.8C257.311 191.557 257.311 190.326 257.311 189.083C257.311 184.706 257.356 180.321 257.447 175.928C257.447 175.928 257.504 175.928 257.516 175.928C257.618 180.066 257.698 184.193 257.755 188.331C257.755 189.824 257.755 191.318 257.824 192.8C257.824 196.904 257.915 201.008 257.96 205.112C258.029 212.396 258.086 219.692 258.2 226.977C258.299 233.931 258.405 240.889 258.519 247.85C258.625 254.85 258.732 261.846 258.838 268.838C258.736 269.773 258.758 270.696 258.77 271.619Z" fill="#444042"/>
<path d="M285.069 169.337L284.704 170.716L284.579 171.207L283.325 175.926L282.367 179.551L281.615 182.39L280.703 185.81L278.913 192.536L275.641 204.962L274.501 209.328L274.33 209.989L274.239 210.309V210.457L273.327 213.877L273.144 214.572L272.996 215.131L258.723 268.802L257.994 271.572L257.549 273.271C257.549 272.701 257.549 272.131 257.549 271.572H250.527L249.911 201.337V201.143L249.854 194.451V192.787V191.1V184.955V183.074L249.74 169.816V169.303L285.069 169.337Z" fill="#444042"/>
<path d="M288.056 169.29C287.988 169.598 287.6 171.399 286.996 174.124C286.996 174.124 286.996 174.181 286.996 174.215C286.996 174.249 286.996 174.386 286.939 174.477C286.631 175.822 286.289 177.373 285.902 179.037C285.639 180.177 285.377 181.317 285.092 182.457C284.351 185.604 283.53 189.046 282.675 192.432C282.379 193.572 282.083 194.712 281.786 195.852C281.159 198.269 280.532 200.606 279.928 202.692C279.126 206.002 277.98 209.22 276.508 212.291C276.367 212.566 276.164 212.804 275.915 212.986C275.448 213.26 274.433 213.762 273.168 214.354L272.598 214.617L271.948 214.924C269.303 216.133 266.134 217.524 264.641 218.151C264.636 218.181 264.636 218.212 264.641 218.242C264.401 219.382 261.95 231.568 258.53 247.62C258.188 249.204 257.846 250.812 257.493 252.465C256.205 258.472 254.802 264.879 253.355 271.377H203.377C211.585 241.737 220.477 208.187 220.477 208.187C220.523 202.97 220.903 197.76 221.617 192.592C221.959 190.084 222.415 187.462 222.996 184.851C222.996 184.669 223.076 184.486 223.122 184.304C223.146 184.218 223.165 184.13 223.179 184.042C223.179 183.848 223.27 183.666 223.327 183.472C224.649 178.034 226.61 172.79 229.494 169.051L288.056 169.29Z" fill="#213B31"/>
<path d="M232.877 200.858C234.23 200.568 235.596 200.347 236.97 200.196C238.053 200.014 239.147 199.832 240.219 199.592C242.275 199.212 244.221 198.383 245.919 197.164C247.789 195.716 248.746 193.505 249.647 191.384C250.183 190.119 250.787 188.865 251.3 187.622C251.573 187.007 251.847 186.402 252.132 185.81C252.512 185.104 252.851 184.377 253.147 183.632C253.147 183.518 253.352 183.575 253.318 183.632C253.133 184.144 252.977 184.665 252.85 185.194L252.314 187.029C251.972 188.101 251.642 189.195 251.288 190.267C250.761 192.252 249.995 194.166 249.008 195.967C247.013 199.136 243.445 200.424 239.888 200.869C238.862 201.006 237.825 201.074 236.799 201.131C235.502 201.251 234.197 201.251 232.9 201.131C232.879 201.116 232.862 201.096 232.849 201.073C232.837 201.051 232.829 201.025 232.827 201C232.825 200.974 232.828 200.948 232.837 200.923C232.846 200.899 232.859 200.876 232.877 200.858Z" fill="#444042"/>
<path d="M279.755 211.254C274.511 213.169 269.442 215.534 264.605 218.322C264.571 218.345 264.547 218.378 264.536 218.417C264.525 218.456 264.528 218.497 264.544 218.534C264.56 218.57 264.589 218.6 264.625 218.618C264.661 218.635 264.703 218.64 264.742 218.63C269.849 216.441 275.059 214.344 280.029 211.87C280.096 211.825 280.145 211.758 280.167 211.681C280.189 211.603 280.183 211.521 280.151 211.447C280.118 211.374 280.06 211.314 279.988 211.279C279.916 211.244 279.833 211.235 279.755 211.254Z" fill="#444042"/>
<path d="M281.293 176.289C281.293 176.106 280.974 176.072 280.974 176.289C280.974 182.342 280.621 187.689 280.119 193.389C279.88 196.022 277.759 210.557 273.199 209.497C272.435 209.314 272.059 208.562 271.934 207.411C271.95 205.905 272.153 204.408 272.538 202.953C273.04 199.909 273.45 196.866 273.678 193.833C274.206 188.111 274.141 182.35 273.484 176.642C273.475 176.611 273.457 176.584 273.431 176.564C273.405 176.545 273.374 176.534 273.342 176.534C273.309 176.534 273.278 176.545 273.252 176.564C273.227 176.584 273.208 176.611 273.199 176.642C273.336 184.542 272.882 192.441 271.843 200.274C271.273 204.059 269.369 209.748 273.325 210.329C277.28 210.91 279.948 201.391 280.438 198.781C281.697 191.352 281.984 183.791 281.293 176.289Z" fill="#444042"/>
<path d="M273.326 209.817C272.923 210.798 272.58 211.803 272.3 212.826C272.008 213.618 271.865 214.457 271.878 215.3C271.884 215.333 271.899 215.364 271.923 215.388C271.946 215.413 271.976 215.429 272.009 215.437C272.042 215.444 272.076 215.442 272.108 215.429C272.139 215.417 272.166 215.396 272.186 215.369C272.662 214.627 273.02 213.815 273.246 212.963C273.599 212.028 273.964 211.105 274.283 210.17C274.315 210.047 274.3 209.917 274.241 209.804C274.182 209.692 274.083 209.605 273.964 209.561C273.845 209.517 273.714 209.519 273.596 209.566C273.478 209.613 273.381 209.703 273.326 209.817Z" fill="#444042"/>
<path d="M227.602 194.098C227.818 197.518 228.742 200.937 228.685 204.483C228.455 207.954 227.866 211.393 226.929 214.743C223.631 228.924 220.097 243.038 216.327 257.083C215.028 261.939 213.698 266.788 212.337 271.629H211.197C212.121 268.323 213.044 265.006 213.945 261.688C217.745 247.727 221.32 233.697 224.672 219.599C225.516 216.077 226.428 212.554 227.112 208.997C227.722 205.402 227.722 201.729 227.112 198.133C226.866 196.388 226.733 194.629 226.713 192.866C226.69 191.38 226.782 189.893 226.986 188.42C226.986 188.295 226.986 188.158 227.043 188.033C227.1 187.907 227.043 187.828 227.043 187.725C227.043 187.622 227.043 187.543 227.043 187.451C227.043 187.36 227.123 187.007 227.157 186.779C227.692 183.863 228.412 180.985 229.312 178.16C229.848 176.45 230.452 174.74 231.01 173.076C231.029 173.045 231.057 173.022 231.09 173.009C231.124 172.996 231.16 172.995 231.194 173.005C231.229 173.016 231.258 173.037 231.279 173.067C231.299 173.096 231.309 173.131 231.307 173.167C229.765 177.766 228.598 182.482 227.818 187.269C227.818 187.508 227.75 187.748 227.727 187.987C227.722 188.078 227.722 188.17 227.727 188.261C227.727 188.504 227.704 188.743 227.659 188.979C227.529 190.27 227.48 191.569 227.511 192.866C227.556 193.265 227.568 193.687 227.602 194.098Z" fill="#444042"/>
<path d="M265.267 106.51C268.243 120.692 286.688 159.68 298.111 167.66C304.768 172.311 346.401 190.266 348.886 185.797C351.166 181.636 350.539 149.579 350.539 149.579C340.792 146.695 313.717 138.977 310.639 138.453C308.439 138.088 293.539 120.042 277.579 101.847C268.722 91.7699 263.489 98.0398 265.267 106.51Z" fill="#B8A784"/>
<path d="M341.725 144.794L339.388 187.863C339.388 187.863 305.291 176.121 295.247 167.753C285.204 159.386 269.529 127.215 264.923 110.297C260.318 93.3798 268.184 89.7774 282.023 105.076C293.423 117.616 308.551 135.469 310.615 136.426C312.678 137.384 341.725 144.794 341.725 144.794Z" fill="#16925F"/>
<path d="M264.925 110.274C269.485 127.191 285.206 159.374 295.249 167.73C300.561 172.176 312.645 177.545 322.826 181.626L323.099 181.729L265.814 96.6621C265.527 96.6724 265.241 96.7067 264.959 96.7647C263.238 98.9421 263.09 103.502 264.925 110.274Z" fill="#213B31"/>
<path d="M330.258 182.218C330.908 176.13 332.629 151.153 332.641 145.738C332.641 145.362 332.401 145.271 332.356 145.658C329.984 163.841 330.349 176.199 330.019 182.138C329.984 182.332 330.247 182.366 330.258 182.218Z" fill="#213B31"/>
<path d="M217.786 192.775C217.98 192.98 297.312 192.855 298.031 192.034C299.034 190.894 279.403 108.962 273.931 96.7526C271.594 91.5428 258.872 89.9126 253.514 94.3814C240.073 105.428 228.707 143.265 226.085 154.665C221.753 173.452 217.125 192.034 217.786 192.775Z" fill="#16925F"/>
<path d="M274.33 98.0753H274.273C274.501 101.678 274.798 110.023 269.143 109.475C266.872 109.079 264.763 108.039 263.067 106.477C261.3 105.033 259.691 103.405 258.268 101.621C256.607 99.674 255.113 97.5919 253.799 95.3963C253.742 95.2937 253.605 95.3963 253.662 95.4875C254.996 97.6877 256.124 99.9677 257.675 102.043C259.148 104.059 260.889 105.865 262.85 107.412C264.709 108.837 266.92 110.25 269.326 110.353C270.373 110.402 271.405 110.088 272.248 109.465C273.091 108.843 273.693 107.948 273.954 106.933C274.736 104.045 274.864 101.019 274.33 98.0753Z" fill="#213B31"/>
<path d="M269.437 105.691C265.379 106.101 258.619 98.5658 256.601 93.3332C256.464 92.9684 257.444 89.5142 258.448 85.262C259.04 82.6742 259.587 79.7786 259.998 77.0996L276.254 83.4266C274.846 86.6465 273.839 90.0272 273.256 93.4928C273.221 93.872 273.221 94.2536 273.256 94.6328C273.262 94.6935 273.262 94.7546 273.256 94.8152C273.29 96.9242 273.37 105.292 269.437 105.691Z" fill="#B8A784"/>
<path d="M271.492 94.6529C272.065 94.7464 272.644 94.7921 273.225 94.7897C273.225 94.7099 273.225 94.6529 273.225 94.6073C273.189 94.2281 273.189 93.8465 273.225 93.4673C273.807 90.0028 274.81 86.6223 276.211 83.4011L260.514 77.2793C260.707 81.2123 262.075 93.2393 271.492 94.6529Z" fill="#213B31"/>
<path d="M255.815 61.686C254.789 67.8876 260.227 84.6798 264.935 87.906C271.775 92.6484 281.944 91.839 285.695 83.8362C289.32 76.0614 281.853 54.3102 276.655 51.4488C269.039 47.2878 257.332 52.5318 255.815 61.686Z" fill="#B8A784"/>
<path d="M274.683 70.373C274.683 70.373 274.603 70.4528 274.626 70.4984C275.025 71.6384 275.287 72.9722 274.375 73.6676C274.375 73.6676 274.375 73.7474 274.375 73.736C275.606 73.1546 275.264 71.3648 274.683 70.373Z" fill="#213B31"/>
<path d="M273.295 69.5057C271.425 69.9503 272.451 73.6439 274.172 73.2449C275.894 72.8459 274.856 69.1409 273.295 69.5057Z" fill="#213B31"/>
<path d="M281.021 68.5508C281.021 68.5508 281.124 68.5508 281.135 68.6306C281.409 69.7706 281.934 71.0588 283.074 71.15V71.2184C281.763 71.3894 281.101 69.6908 281.021 68.5508Z" fill="#213B31"/>
<path d="M281.718 67.0223C283.519 66.3725 284.682 70.0319 283.006 70.6361C281.331 71.2403 280.202 67.6151 281.718 67.0223Z" fill="#213B31"/>
<path d="M271.367 68.2179C271.812 67.9413 272.242 67.6406 272.655 67.3173C273.156 66.9639 273.578 66.7359 273.795 66.1773C273.84 66.0038 273.827 65.8201 273.757 65.6551C273.687 65.49 273.564 65.3529 273.407 65.2653C273.071 65.1381 272.708 65.1016 272.354 65.1597C272 65.2177 271.667 65.3682 271.389 65.5959C270.761 65.9771 270.298 66.5786 270.09 67.2831C270.054 67.4467 270.067 67.6171 270.127 67.7735C270.186 67.93 270.29 68.0659 270.425 68.1647C270.56 68.2636 270.721 68.3213 270.888 68.3307C271.055 68.3401 271.221 68.301 271.367 68.2179Z" fill="#213B31"/>
<path d="M282.631 64.8121C282.107 64.8406 281.581 64.8406 281.057 64.8121C280.502 64.9007 279.934 64.8046 279.439 64.5385C279.305 64.4206 279.212 64.2633 279.173 64.0892C279.134 63.9151 279.151 63.7332 279.222 63.5695C279.419 63.2686 279.694 63.0263 280.016 62.8679C280.339 62.7094 280.699 62.6407 281.057 62.6689C281.789 62.6129 282.515 62.828 283.098 63.2731C283.233 63.3814 283.332 63.5276 283.384 63.6929C283.435 63.8582 283.435 64.0351 283.385 64.2007C283.335 64.3663 283.236 64.513 283.101 64.622C282.967 64.7309 282.803 64.7972 282.631 64.8121Z" fill="#213B31"/>
<path d="M275.892 81.1678C276.213 81.4338 276.616 81.579 277.032 81.5782C277.45 81.4456 277.837 81.2326 278.172 80.9512C278.172 80.9512 278.252 80.9512 278.229 80.9512C278.13 81.2208 277.958 81.458 277.733 81.6368C277.508 81.8157 277.238 81.9295 276.952 81.9658C276.709 81.963 276.471 81.8893 276.269 81.7536C276.066 81.618 275.908 81.4263 275.812 81.202C275.812 81.202 275.835 81.145 275.892 81.1678Z" fill="#213B31"/>
<path d="M276.144 77.4064C276.56 77.7811 277.05 78.0649 277.582 78.2396C278.114 78.4143 278.676 78.4761 279.233 78.421C279.721 78.3814 280.201 78.274 280.658 78.1018C280.745 78.0745 280.829 78.0402 280.909 77.9992L281.149 77.8852C281.208 77.8581 281.256 77.8117 281.285 77.7537C281.314 77.6956 281.322 77.6294 281.308 77.566C281.313 77.5243 281.313 77.4823 281.308 77.4406V77.338C281.08 76.4488 280.624 75.1264 280.624 75.1264C281 75.2062 282.847 75.4912 282.688 75.0352C281.489 71.0836 279.893 67.264 277.922 63.6352C277.854 63.5098 277.672 63.6352 277.717 63.715C278.857 67.3744 280.533 70.8172 281.684 74.4652C281.019 74.3752 280.344 74.3752 279.678 74.4652C279.564 74.5336 280.613 76.996 280.681 77.4064C279.977 77.6776 279.226 77.8042 278.472 77.7787C277.718 77.7533 276.976 77.5762 276.292 77.2582C276.121 77.281 276.053 77.338 276.144 77.4064Z" fill="#213B31"/>
<path d="M280.008 77.7929C279.699 78.5581 279.196 79.2298 278.549 79.7423C278.188 80.0094 277.755 80.1605 277.306 80.1755C276.326 80.1755 276.075 79.3547 276.041 78.5909C276.03 78.1818 276.065 77.7727 276.144 77.3711C277.355 77.9176 278.708 78.0653 280.008 77.7929Z" fill="#213B31"/>
<path d="M278.549 79.7452C278.188 80.0124 277.755 80.1635 277.306 80.1784C276.326 80.1784 276.075 79.3576 276.041 78.5938C276.527 78.4852 277.036 78.539 277.489 78.747C277.942 78.9549 278.314 79.3056 278.549 79.7452Z" fill="#9BFDB0"/>
<path opacity="0.2" d="M257.822 74.6457C258.882 73.7337 260.102 69.3105 260.752 67.4751C261.402 65.6397 259.373 57.8991 258.723 55.6191C258.524 55.8402 258.337 56.0723 258.164 56.3145C257.979 56.5476 257.808 56.7912 257.651 57.0441C257.311 57.5544 257.013 58.092 256.762 58.6515C256.315 59.6362 255.997 60.6746 255.816 61.7409C255.348 64.5453 256.238 69.6525 257.822 74.6457Z" fill="#213B31"/>
<path d="M275.267 57.6061C274.844 58.5704 274.18 59.4101 273.34 60.0448C272.5 60.6795 271.511 61.088 270.468 61.2313C269.408 61.3776 268.328 61.2513 267.331 60.8643C266.334 60.4773 265.451 59.8425 264.768 59.0197C264.768 59.0197 264.642 59.0197 264.688 59.0881C265.332 60.0223 266.22 60.7625 267.255 61.2287C268.289 61.6949 269.432 61.8692 270.559 61.7329C271.659 61.5425 272.69 61.0663 273.548 60.352C274.407 59.6378 275.062 58.7105 275.449 57.6631C275.457 57.6389 275.455 57.6127 275.443 57.5903C275.431 57.5678 275.411 57.551 275.387 57.5434C275.362 57.5359 275.336 57.5382 275.314 57.55C275.291 57.5617 275.274 57.5819 275.267 57.6061Z" fill="#213B31"/>
<path d="M264.79 44.8271C263.228 45.2989 261.81 46.1559 260.667 47.3194C259.523 48.4828 258.691 49.9152 258.246 51.4847C257.929 53.0341 258.159 54.6455 258.896 56.0447C258.896 56.0447 259.044 56.0447 259.022 55.9877C258.551 54.7002 258.435 53.3099 258.685 51.9623C258.936 50.6146 259.544 49.359 260.447 48.3269C261.42 47.1726 262.646 46.2577 264.03 45.6528C265.414 45.0479 266.918 44.7693 268.427 44.8385C269.893 44.8911 271.294 45.4604 272.382 46.4459C272.496 46.5485 272.724 46.4459 272.633 46.2863C271.14 44.4167 267.879 43.8239 264.79 44.8271Z" fill="#213B31"/>
<path d="M286.961 46.2845C285.891 44.7589 284.316 43.6606 282.515 43.1837C280.018 42.5111 277.693 43.4231 275.401 44.3237C275.333 44.3237 275.401 44.4377 275.401 44.4149C277.289 43.452 279.415 43.0561 281.523 43.2749C283.296 43.5862 284.907 44.5004 286.083 45.8627C287.229 47.276 287.829 49.0545 287.773 50.8733C287.716 52.6921 287.007 54.4299 285.776 55.7693C285.047 56.5236 284.171 57.1202 283.202 57.5222C282.234 57.9242 281.193 58.123 280.144 58.1063C280.064 58.1063 280.041 58.2317 280.144 58.2317C281.579 58.3105 283.008 57.9876 284.269 57.2993C285.531 56.6109 286.576 55.5845 287.286 54.3352C287.997 53.0858 288.345 51.6632 288.291 50.2269C288.238 48.7907 287.785 47.3978 286.984 46.2047L286.961 46.2845Z" fill="#213B31"/>
<path d="M255.702 65.8024C255.702 65.8024 250.629 60.6154 252.282 56.2492C253.229 53.7754 258.438 52.5328 258.438 52.5328C258.816 51.3161 259.43 50.186 260.246 49.2078C261.062 48.2295 262.063 47.4223 263.192 46.8328C267.194 44.5528 273.042 45.5902 273.042 45.5902C273.042 45.5902 276.462 42.0562 280.896 43.1164C287.109 44.587 288.876 52.8976 284.248 57.0814C281.022 60.0226 274.923 58.2214 274.923 58.2214C274.455 58.438 270.363 62.9524 265.187 59.578C265.187 59.578 262.907 63.2374 259.556 62.1316C259.364 63.0635 258.893 63.9146 258.204 64.5707C257.515 65.2269 256.642 65.6566 255.702 65.8024Z" fill="#213B31"/>
<path d="M261.357 75.2182C261.357 75.2182 256.626 70.2706 254.324 72.0376C252.021 73.8046 256.17 81.4084 259.294 82.0468C259.692 82.1571 260.109 82.185 260.519 82.1289C260.928 82.0728 261.322 81.9339 261.677 81.7205C262.031 81.5072 262.338 81.2239 262.579 80.888C262.82 80.5521 262.99 80.1706 263.079 79.7668L261.357 75.2182Z" fill="#B8A784"/>
<path d="M255.564 74.1918C255.564 74.1918 255.564 74.2602 255.564 74.2716C257.765 74.7846 259.155 76.5516 260.216 78.4212C260.065 78.2313 259.875 78.0766 259.659 77.9677C259.443 77.8589 259.205 77.7985 258.963 77.7909C258.721 77.7833 258.48 77.8287 258.257 77.9237C258.035 78.0188 257.835 78.1613 257.673 78.3414C257.667 78.3459 257.661 78.3517 257.656 78.3584C257.652 78.3651 257.649 78.3727 257.647 78.3806C257.646 78.3885 257.646 78.3967 257.647 78.4047C257.649 78.4126 257.652 78.4202 257.656 78.4269C257.661 78.4336 257.667 78.4394 257.673 78.4439C257.68 78.4484 257.688 78.4516 257.696 78.4532C257.703 78.4547 257.712 78.4548 257.72 78.4532C257.728 78.4516 257.735 78.4485 257.742 78.444C258.089 78.2736 258.48 78.2149 258.862 78.2762C259.244 78.3374 259.597 78.5156 259.874 78.786C260.338 79.2363 260.751 79.7372 261.105 80.2794C261.23 80.4504 261.549 80.2794 261.447 80.097C261.071 77.3952 258.449 74.0208 255.564 74.1918Z" fill="#213B31"/>
<path d="M356.102 153.662C356.07 161.862 353.609 169.869 349.029 176.672C344.449 183.474 337.955 188.766 330.369 191.88C322.783 194.994 314.444 195.789 306.405 194.166C298.367 192.543 290.99 188.573 285.207 182.76C279.424 176.946 275.493 169.549 273.911 161.502C272.33 153.455 273.169 145.121 276.322 137.551C279.476 129.981 284.802 123.515 291.628 118.97C298.454 114.426 306.474 112.006 314.674 112.018C320.13 112.028 325.53 113.114 330.565 115.213C335.601 117.312 340.173 120.384 344.021 124.251C347.869 128.119 350.916 132.708 352.989 137.754C355.062 142.801 356.12 148.206 356.102 153.662Z" fill="#7787B1"/>
<g opacity="0.1">
<path d="M352.966 149.901C352.357 143.482 350.149 137.319 346.543 131.975C342.938 126.631 338.049 122.276 332.325 119.309C326.602 116.343 320.225 114.858 313.78 114.993C307.334 115.127 301.025 116.876 295.43 120.078C294.963 120.352 294.507 120.625 294.051 120.922C291.241 122.69 288.676 124.821 286.424 127.26C285.492 128.247 284.616 129.286 283.802 130.372C281.66 133.217 279.929 136.348 278.661 139.675C278.376 140.404 278.113 141.145 277.885 141.955C275.286 150.238 275.543 159.154 278.615 167.274C278.889 167.981 279.174 168.676 279.481 169.349C280.527 171.674 281.803 173.889 283.289 175.961C284.08 177.065 284.932 178.123 285.843 179.13C287.977 181.531 290.405 183.653 293.07 185.446C294.473 186.399 295.94 187.256 297.459 188.011C302.774 190.649 308.626 192.022 314.559 192.024C315.22 192.024 315.882 192.024 316.543 192.024H316.794C323.195 191.683 329.404 189.722 334.84 186.324C335.706 185.799 336.55 185.184 337.359 184.625C338.169 184.066 338.887 183.485 339.639 182.835L340.141 182.402L340.665 181.923C341.155 181.479 341.634 181.011 342.09 180.544C344.652 177.945 346.829 174.993 348.554 171.777C348.759 171.401 348.953 171.013 349.147 170.637C349.648 169.623 350.104 168.585 350.526 167.525C351.209 165.76 351.757 163.946 352.168 162.099C352.282 161.655 352.373 161.206 352.441 160.753C352.88 158.45 353.105 156.11 353.114 153.765C353.129 152.42 353.08 151.132 352.966 149.901ZM335.205 125.733C336.578 126.744 337.87 127.861 339.069 129.073C339.15 129.14 339.223 129.217 339.286 129.301C344.557 134.684 347.937 141.633 348.919 149.103L348.987 149.752C349.151 151.267 349.216 152.79 349.181 154.312C349.131 156.343 348.898 158.365 348.486 160.354C348.406 160.81 348.303 161.255 348.189 161.7C347.484 164.66 346.375 167.51 344.895 170.17C344.775 170.419 344.638 170.659 344.484 170.888C343.199 173.087 341.67 175.133 339.924 176.987C339.317 177.659 338.673 178.299 337.998 178.902C336.336 180.455 334.517 181.83 332.571 183.006C332.303 183.185 332.025 183.348 331.739 183.496C331.158 183.85 330.599 184.169 329.949 184.465L329.459 184.705C327.944 185.439 326.374 186.053 324.762 186.54H324.682H324.523C320.939 187.617 317.206 188.113 313.465 188.011C312.758 188.011 312.051 187.954 311.356 187.885H311.173C310.649 187.885 310.125 187.783 309.6 187.703C309.362 187.682 309.126 187.644 308.893 187.589C302.995 186.619 297.456 184.114 292.831 180.327C292.318 179.917 291.816 179.484 291.326 179.016C291.121 178.845 290.916 178.663 290.722 178.469C289.334 177.145 288.064 175.703 286.926 174.16C286.203 173.218 285.533 172.236 284.919 171.219L284.646 170.751C284.383 170.295 284.121 169.828 283.882 169.349C283.392 168.426 282.958 167.479 282.559 166.51C280.773 162.129 279.915 157.424 280.04 152.694C280.086 150.845 280.284 149.003 280.633 147.187C280.792 146.31 280.986 145.443 281.214 144.6C282.069 141.408 283.378 138.356 285.102 135.537C286.142 133.818 287.34 132.199 288.681 130.703C290.979 128.069 293.671 125.808 296.661 124C297.14 123.703 297.63 123.43 298.12 123.168C303.851 120.064 310.342 118.641 316.846 119.063C323.35 119.484 329.603 121.733 334.885 125.55C334.997 125.602 335.104 125.663 335.205 125.733Z" fill="black"/>
<path d="M331.021 158.278C330.672 157.183 330.094 156.174 329.326 155.319C328.557 154.464 327.615 153.782 326.563 153.319C326.005 153.045 325.423 152.829 324.773 152.555C325.264 152.304 325.685 152.111 326.096 151.894C326.944 151.487 327.686 150.891 328.268 150.152C328.849 149.413 329.252 148.55 329.448 147.63C329.588 146.877 329.683 146.115 329.733 145.35C329.784 144.766 329.784 144.179 329.733 143.595C329.682 142.908 329.544 142.229 329.322 141.577C328.905 140.405 328.209 139.352 327.293 138.509C326.377 137.667 325.27 137.061 324.067 136.743C322.474 136.294 320.845 135.981 319.199 135.809C318.64 135.729 318.435 135.592 318.447 135.011C318.447 133.472 318.447 131.921 318.447 130.382V129.242H314.479V135.638H311.561V129.242H307.628V135.729H297.835V142.364H300.719V165.232H297.812V171.901H307.651V177.761H311.618V171.901C312.439 171.901 313.18 171.901 313.898 171.901C314.049 171.88 314.202 171.912 314.331 171.992C314.399 172.06 314.449 172.143 314.477 172.234C314.504 172.326 314.509 172.423 314.491 172.517V172.893C314.491 173.85 314.491 174.831 314.491 175.8V177.806H317.911C318.207 177.806 318.333 177.681 318.378 177.453C318.385 177.373 318.385 177.293 318.378 177.213C318.378 176.404 318.378 175.595 318.378 174.785C318.378 173.976 318.378 173.36 318.378 172.653C318.378 171.947 318.583 171.878 319.176 171.855H319.552C321.936 171.817 324.29 171.317 326.483 170.385C328.219 169.628 329.63 168.278 330.462 166.577C330.576 166.338 330.69 166.098 330.781 165.848C331.313 164.318 331.537 162.699 331.443 161.082C331.435 160.132 331.293 159.188 331.021 158.278ZM311.994 165.232C311.595 165.232 311.401 165.095 311.401 164.605V164.354C311.401 161.789 311.401 159.247 311.401 156.682C311.401 156.26 311.538 156.089 311.971 156.112C312.621 156.112 313.282 156.112 313.932 156.112H315.266C316.162 156.094 317.048 156.314 317.831 156.75C317.875 156.762 317.914 156.786 317.945 156.819L318.298 157.058C318.94 157.591 319.419 158.294 319.681 159.086C319.943 159.878 319.977 160.728 319.78 161.538C319.65 162.571 319.14 163.518 318.35 164.194C317.56 164.871 316.545 165.229 315.505 165.198C314.365 165.198 313.225 165.198 312.085 165.198L311.994 165.232ZM311.401 143.048C311.401 142.626 311.538 142.466 311.971 142.478C312.861 142.478 313.75 142.478 314.639 142.478C315.342 142.46 316.034 142.646 316.634 143.013C316.78 143.103 316.917 143.206 317.044 143.321L317.181 143.458C317.357 143.625 317.506 143.817 317.626 144.028C317.915 144.505 318.083 145.045 318.116 145.601C318.184 146.417 318.138 147.238 317.979 148.041C317.882 148.637 317.581 149.181 317.128 149.58C316.675 149.979 316.097 150.208 315.494 150.23C314.354 150.321 313.214 150.287 312.074 150.321H311.903C311.504 150.321 311.39 150.15 311.39 149.774C311.39 148.634 311.39 147.494 311.39 146.354C311.39 145.214 311.424 144.165 311.401 143.048Z" fill="black"/>
</g>
<path d="M339.103 129.072C342.4 132.223 345.032 136.002 346.844 140.187C348.64 144.407 349.589 148.939 349.637 153.525C349.682 158.127 348.798 162.691 347.037 166.943C345.296 171.212 342.718 175.089 339.454 178.345C336.19 181.601 332.307 184.17 328.034 185.901C323.781 187.657 319.216 188.534 314.616 188.478C310.028 188.422 305.496 187.465 301.278 185.662C297.103 183.835 293.332 181.196 290.186 177.898C295.061 182.603 301.205 185.78 307.863 187.04C314.52 188.299 321.4 187.587 327.657 184.989C335.969 181.469 342.59 174.86 346.125 166.555C348.734 160.303 349.459 153.424 348.211 146.765C346.964 140.106 343.798 133.957 339.103 129.072Z" fill="white"/>
<path opacity="0.1" d="M289.913 177.829C286.621 174.673 284 170.885 282.206 166.692C280.415 162.471 279.478 157.938 279.448 153.354C279.43 148.764 280.333 144.217 282.104 139.981C283.862 135.72 286.454 131.853 289.727 128.608C293 125.362 296.889 122.803 301.164 121.08C305.43 119.343 310 118.478 314.605 118.538C319.188 118.609 323.713 119.582 327.92 121.399C332.098 123.237 335.866 125.892 339.001 129.208C334.14 124.466 327.996 121.252 321.329 119.963C314.661 118.675 307.762 119.368 301.484 121.958C293.159 125.439 286.518 132.027 282.97 140.323C280.338 146.568 279.589 153.445 280.817 160.109C282.044 166.773 285.194 172.933 289.879 177.829H289.913Z" fill="black"/>
<path d="M297.825 142.352C297.825 141.805 297.757 141.212 297.734 140.699C297.711 140.186 297.734 139.559 297.734 139.034L297.643 135.717V135.489H297.882C301.142 135.428 304.407 135.428 307.675 135.489L307.435 135.717L307.526 132.479L307.595 130.849C307.595 130.313 307.595 129.778 307.675 129.23C307.675 129.778 307.732 130.37 307.754 130.849L307.811 132.479L307.903 135.717V135.945H307.675C304.399 135.998 301.135 135.998 297.882 135.945L298.11 135.717L298.019 139.034C298.019 139.593 298.019 140.174 297.962 140.699C297.905 141.223 297.859 141.805 297.825 142.352Z" fill="white"/>
<path d="M297.802 171.901C297.802 170.761 297.722 169.689 297.688 168.572C297.653 167.455 297.688 166.349 297.619 165.243V165.061H297.813H300.72L300.481 165.3V159.6C300.481 157.696 300.481 155.792 300.481 153.9C300.481 152.008 300.481 150.092 300.56 148.2C300.64 146.308 300.652 144.381 300.731 142.5C300.8 144.404 300.857 146.319 300.891 148.2C300.925 150.081 300.971 152.008 300.971 153.9C300.971 155.792 300.971 157.708 300.971 159.6V165.3V165.528H300.743H297.836L298.018 165.346C298.018 166.486 298.018 167.626 297.938 168.674C297.859 169.723 297.847 170.761 297.802 171.901Z" fill="white"/>
<path d="M312.064 165.232C312.703 165.163 313.33 165.14 313.968 165.095L315.861 165.015C316.454 164.97 317.031 164.793 317.547 164.498C318.064 164.202 318.508 163.794 318.847 163.305C319.507 162.295 319.767 161.076 319.577 159.885C319.506 159.275 319.312 158.686 319.007 158.152C318.704 157.607 318.293 157.13 317.799 156.75C318.37 157.065 318.863 157.504 319.242 158.034C319.621 158.565 319.876 159.174 319.987 159.817C320.135 160.467 320.149 161.141 320.03 161.797C319.91 162.453 319.659 163.079 319.292 163.636C318.906 164.187 318.395 164.638 317.8 164.954C317.206 165.269 316.545 165.438 315.872 165.448C314.595 165.391 313.33 165.346 312.064 165.232Z" fill="white"/>
<path d="M312.064 150.331C313.102 150.217 314.173 150.16 315.177 150.103C315.656 150.028 316.111 149.843 316.507 149.562C316.903 149.281 317.228 148.912 317.457 148.484C317.896 147.595 318.039 146.589 317.867 145.612C317.709 144.597 317.252 143.653 316.556 142.898C317.431 143.538 318.043 144.474 318.277 145.532C318.556 146.611 318.431 147.754 317.924 148.747C317.658 149.244 317.273 149.667 316.804 149.979C316.334 150.292 315.795 150.483 315.234 150.536C314.139 150.525 313.113 150.434 312.064 150.331Z" fill="white"/>
<path d="M307.641 171.9C308.006 173.837 308.006 175.824 307.641 177.76C307.276 175.824 307.276 173.837 307.641 171.9Z" fill="white"/>
<path d="M314.344 171.957C314.709 173.882 314.709 175.858 314.344 177.782C314.145 176.823 314.053 175.844 314.07 174.864C314.06 173.888 314.151 172.914 314.344 171.957Z" fill="white"/>
<path d="M357.049 139.48C360.195 144.36 367.24 149.991 368.301 154.175C368.6 155.194 368.564 156.282 368.196 157.278C367.828 158.274 367.15 159.124 366.26 159.704C366.26 159.704 370.763 161.266 371.105 165.21C371.276 167.251 368.187 169.314 368.187 169.314C368.187 169.314 371.743 170.716 371.835 174.25C371.903 177.055 368.791 178.708 368.791 178.708C368.791 178.708 371.572 181.649 370.729 184.533C369.007 190.393 345.056 193.516 340.2 185.183C337.92 181.296 343.836 180.851 343.836 180.851C343.836 180.851 335.206 179.437 334.431 174.524C333.656 169.611 341.351 169.485 341.351 169.485C341.351 169.485 333.006 168.049 332.721 162.862C332.425 157.47 340.143 158.667 340.143 158.667C340.143 158.667 334.34 155.76 335.035 151.735C336.175 145.101 349.297 151.519 354.415 149.581L353.754 140.974L357.049 139.48Z" fill="#B8A784"/>
<path d="M362.314 146.445C359.738 141.565 363.146 138.875 362.063 133.665C360.843 127.874 354.083 130.314 353.707 140.676L354.391 149.58L362.314 146.445Z" fill="#B8A784"/>
<path d="M368.335 179.039C368.415 179.039 368.461 179.13 368.335 179.164C360.416 182.251 351.745 182.859 343.472 180.909C343.21 180.84 343.21 180.384 343.472 180.407C351.782 181.164 360.158 180.703 368.335 179.039Z" fill="#213B31"/>
<path d="M368.312 169.347C368.403 169.347 368.437 169.472 368.312 169.507C360.434 172.505 349.946 173.234 341.066 169.735C340.758 169.609 340.61 169.199 340.963 169.313C347.085 171.194 360.685 171.011 368.312 169.347Z" fill="#213B31"/>
<path d="M339.573 158.221C348.214 161.253 356.969 161.196 365.941 159.851C366.055 159.851 366.067 159.999 365.941 160.045C361.735 161.903 355.921 162.154 351.383 161.983C347.168 161.899 343.047 160.72 339.425 158.563C339.322 158.426 339.391 158.141 339.573 158.221Z" fill="#213B31"/>
<path d="M243.345 103.993C229.254 121.093 205.725 166.237 211.79 173.008C225.538 188.387 250.675 202.546 260.753 206.319C265.107 207.938 283.165 176.736 279.152 173.806C274.341 170.284 243.003 155.486 242.957 153.925C242.912 152.363 250.39 130.52 253.536 113.238C257.492 91.7718 249.273 96.8676 243.345 103.993Z" fill="#B8A784"/>
<path d="M263.17 170.453C263.17 170.453 276.964 167.398 286.084 165.813C291.168 164.936 300.026 164.206 304.061 165.266C310.092 166.851 334.306 177.35 331.889 183.278C329.7 188.636 310.046 176.974 310.046 176.974C310.046 176.974 330.92 186.995 327.089 192.934C323.259 198.873 302.807 182.777 302.807 182.777C302.807 182.777 324.034 193.55 319.109 199.079C315.393 203.262 296.047 189.708 296.047 189.708C296.047 189.708 314.219 199.09 310.582 203.559C306.558 208.495 287.919 197.095 287.919 197.095C276.758 206.888 267.593 207.686 260.798 206.283C259.214 205.987 263.17 170.453 263.17 170.453Z" fill="#B8A784"/>
<path d="M304.016 173.555C319.976 179.756 325.87 187.679 325.676 187.508C320.957 183.29 312.475 178.48 310.081 177.18C307.687 175.88 306.342 174.957 303.959 173.646C303.902 173.612 303.959 173.532 304.016 173.555Z" fill="#213B31"/>
<path d="M298.167 181.605C304.73 183.817 310.846 187.184 316.225 191.546C316.418 191.729 316.304 191.763 316.065 191.626C313.078 189.882 301.188 183.258 298.133 181.674L298.167 181.605Z" fill="#213B31"/>
<path d="M292.675 188.181C297.726 190.001 302.389 192.755 306.423 196.298C306.628 196.458 306.423 196.515 306.206 196.378C301.646 193.596 298.158 191.373 292.606 188.398C292.515 188.307 292.572 188.136 292.675 188.181Z" fill="#213B31"/>
<path d="M270.066 167.41L248.828 203.172C248.828 203.172 210.421 178.331 209.885 169.371C209.121 156.751 235.786 111.698 243.641 102.897C251.313 94.3247 256.591 95.3621 254.847 107.663C253.274 118.846 244.587 152.556 244.678 153.046C244.769 153.536 270.066 167.41 270.066 167.41Z" fill="#16925F"/>
<path d="M242.808 196.481C246.103 191.328 258.768 169.748 261.242 164.903C261.413 164.561 261.242 164.379 261.014 164.709C250.754 179.906 245.579 191.123 242.615 196.344C242.535 196.47 242.729 196.607 242.808 196.481Z" fill="#213B31"/>
<path d="M253.057 117.112C253.057 116.964 253.354 117.01 253.331 117.112C253.092 118.64 252.636 120.897 252.077 123.542C252.145 123.405 252.202 123.257 252.271 123.109C252.715 121.969 253.114 120.909 253.411 119.769C253.415 119.757 253.421 119.745 253.429 119.736C253.437 119.726 253.447 119.718 253.458 119.712C253.469 119.707 253.481 119.703 253.493 119.702C253.506 119.701 253.519 119.702 253.53 119.706C253.542 119.71 253.554 119.716 253.563 119.724C253.573 119.732 253.581 119.742 253.587 119.753C253.592 119.764 253.596 119.776 253.597 119.789C253.598 119.801 253.597 119.814 253.593 119.826C253.263 120.966 252.909 122.106 252.51 123.246C252.26 124.024 251.959 124.786 251.61 125.526C249.216 136.549 245.408 152.361 245.476 152.749C245.579 153.399 265.996 164.582 270.203 167.136C270.351 167.227 269.599 168.276 269.519 168.447C269.511 168.477 269.492 168.503 269.465 168.519C269.439 168.535 269.407 168.54 269.376 168.532C269.346 168.525 269.32 168.505 269.304 168.479C269.288 168.452 269.283 168.42 269.291 168.39C269.374 168.076 269.485 167.771 269.622 167.478C265.666 165.494 244.747 153.889 244.371 153.25C243.994 152.612 251.792 121.832 253.057 117.112Z" fill="#213B31"/>
<path d="M219.805 181.718C221.036 182.459 232.504 191.819 233.736 192.685C233.746 192.692 233.755 192.7 233.762 192.711C233.769 192.721 233.774 192.732 233.777 192.745C233.78 192.757 233.78 192.769 233.778 192.782C233.775 192.794 233.771 192.806 233.764 192.816C233.757 192.827 233.749 192.836 233.738 192.843C233.728 192.85 233.717 192.855 233.704 192.857C233.692 192.86 233.68 192.86 233.667 192.858C233.655 192.856 233.643 192.851 233.633 192.845C228.845 190.439 220.876 183.576 219.736 181.809C219.702 181.752 219.748 181.684 219.805 181.718Z" fill="#213B31"/>
</svg>
