<svg width="40" height="36" viewBox="0 0 40 36" fill="none" xmlns="http://www.w3.org/2000/svg">
<path d="M19.5926 17.9493C19.6104 17.3019 19.808 16.6584 20.1675 16.0775L26.1691 6.62596C26.7161 5.76944 27.7611 5.2479 28.9056 5.27335C30.05 5.2988 31.0651 5.86614 31.5644 6.74593L37.0401 16.4527C37.7109 17.6455 37.6721 19.058 36.9371 20.2049L30.9355 29.6564C30.3885 30.5129 29.3436 31.0345 28.1991 31.009C27.0546 30.9836 26.0396 30.4162 25.5402 29.5364L20.0645 19.8297C19.7206 19.2478 19.5749 18.5968 19.5926 17.9493ZM35.0756 18.2936C35.0832 18.014 35.0096 17.7179 34.8533 17.4494L29.3936 7.75775C29.2533 7.50433 28.9431 7.48271 28.845 7.48053C28.7469 7.47835 28.4358 7.48615 28.2982 7.73339L22.2966 17.1849C21.9714 17.7077 21.9548 18.311 22.2509 18.8477L27.7266 28.5544C27.8673 28.7931 28.1771 28.8294 28.2589 28.8313C28.357 28.8334 28.668 28.8256 28.8057 28.5784L34.8073 19.1269C34.9781 18.8656 35.0679 18.5732 35.0756 18.2936Z" fill="#E9C46A"/>
<path d="M2.54169 14.4289C2.55052 14.0169 2.67412 13.5921 2.89489 13.2131L8.02406 4.38078C8.88983 2.90891 10.5775 2.01072 12.4252 2.04279L21.7782 2.20509C22.8411 2.22353 23.7954 2.72591 24.334 3.54495C24.8723 4.37871 24.9002 5.36555 24.4078 6.21086L19.2786 15.0432C18.4128 16.5151 16.7415 17.4136 14.8774 17.3812L5.52441 17.2189C4.46157 17.2005 3.50724 16.6981 2.96863 15.879C2.66742 15.4322 2.53097 14.9293 2.54169 14.4289ZM22.3082 4.95253C22.3108 4.8348 22.2639 4.73093 22.2325 4.6715C22.169 4.58207 22.0253 4.41764 21.7309 4.41253L12.3779 4.25023C11.4623 4.23434 10.6186 4.67607 10.194 5.40479L5.04881 14.2221C4.91296 14.4553 5.00697 14.6483 5.05413 14.7375C5.11764 14.8269 5.26134 14.9914 5.55566 14.9965L14.9087 15.1588C15.8243 15.1747 16.668 14.7329 17.0926 14.0042L22.2378 5.18685C22.2887 5.09941 22.3067 5.02611 22.3082 4.95253Z" fill="#F28482"/>
<path d="M2.4036 20.9644C2.41432 20.4641 2.5722 19.9663 2.89233 19.5302C3.46562 18.7305 4.44075 18.2616 5.5036 18.28L14.8566 18.4423C16.7043 18.4744 18.3523 19.4304 19.1544 20.9312L23.9181 29.9206C24.374 30.7823 24.3035 31.7822 23.7302 32.5819C23.1569 33.3817 22.1818 33.8506 21.119 33.8321L11.766 33.6698C9.91824 33.6378 8.27027 32.6817 7.46819 31.1809L2.70445 22.1916C2.48373 21.805 2.39477 21.3765 2.4036 20.9644ZM21.7496 31.1195C21.7511 31.046 21.7364 30.9721 21.6892 30.883L16.9255 21.8936C16.5325 21.1507 15.7247 20.6803 14.7926 20.6642L5.43964 20.5019C5.14531 20.4968 4.99468 20.6561 4.92738 20.7433C4.86009 20.8304 4.77423 21.0203 4.9 21.258L9.66373 30.2473C10.0568 30.9903 10.8809 31.4609 11.7966 31.4768L21.1496 31.6391C21.4439 31.6442 21.5945 31.4849 21.6618 31.3977C21.6958 31.3394 21.7471 31.2373 21.7496 31.1195Z" fill="#F28482"/>
</svg>
