<svg width="55" height="55" viewBox="0 0 55 55" fill="none" xmlns="http://www.w3.org/2000/svg">
<rect width="55" height="55" rx="15" fill="#CDB4DB" fill-opacity="0.2"/>
<path d="M28.2213 31.6706C27.7223 31.6723 23.7228 24.6724 22.7235 24.6707" stroke="#B08FC2" stroke-width="2"/>
<path d="M39.7213 21.1445C39.7079 20.5924 39.2494 20.1556 38.6973 20.1691L29.7 20.3874C29.1479 20.4008 28.7111 20.8593 28.7245 21.4114C28.7379 21.9635 29.1964 22.4003 29.7485 22.3869L37.7462 22.1927L37.9403 30.1904C37.9537 30.7425 38.4121 31.1792 38.9643 31.1658C39.5164 31.1524 39.9531 30.694 39.9397 30.1418L39.7213 21.1445ZM28.2214 31.6693L28.2248 32.6693C28.4236 32.6686 28.5748 32.6099 28.6313 32.5868C28.7047 32.5566 28.765 32.5232 28.8058 32.499C28.8879 32.4503 28.9654 32.3941 29.0291 32.3454C29.1601 32.2451 29.3155 32.1123 29.4824 31.9631C29.8204 31.6608 30.2645 31.2383 30.7713 30.7432C31.7878 29.7502 33.0914 28.4308 34.3741 27.117C35.6581 25.8019 36.9258 24.4874 37.8723 23.5019C38.3456 23.0092 38.7388 22.5985 39.0137 22.3109C39.1512 22.1671 39.2591 22.0541 39.3326 21.977C39.3694 21.9384 39.3976 21.9089 39.4167 21.8889C39.4262 21.8789 39.4334 21.8713 39.4383 21.8662C39.4407 21.8637 39.4425 21.8618 39.4438 21.8605C39.4444 21.8598 39.4448 21.8593 39.4452 21.859C39.4453 21.8588 39.4454 21.8587 39.4455 21.8586C39.4456 21.8585 39.4457 21.8585 38.7216 21.1688C37.9975 20.479 37.9975 20.479 37.9974 20.4791C37.9974 20.4792 37.9973 20.4793 37.9971 20.4795C37.9968 20.4798 37.9964 20.4802 37.9958 20.4809C37.9946 20.4821 37.9928 20.484 37.9904 20.4865C37.9857 20.4915 37.9785 20.499 37.9691 20.5088C37.9503 20.5286 37.9223 20.558 37.8857 20.5963C37.8125 20.673 37.705 20.7856 37.568 20.9289C37.2941 21.2155 36.902 21.625 36.4299 22.1165C35.4856 23.0997 34.2218 24.41 32.9431 25.7198C31.6631 27.0309 30.3728 28.3365 29.3737 29.3126C28.8728 29.8019 28.4537 30.1999 28.1492 30.4722C27.995 30.6101 27.8843 30.7031 27.814 30.7568C27.777 30.7851 27.77 30.788 27.785 30.7791C27.7922 30.7748 27.8234 30.7564 27.8721 30.7365C27.9038 30.7234 28.0347 30.6699 28.218 30.6693L28.2214 31.6693Z" fill="#B08FC2"/>
<path d="M13.9502 32.5335C13.5991 32.9598 13.66 33.59 14.0863 33.9411C14.5126 34.2923 15.1428 34.2314 15.4939 33.8051L14.7221 33.1693L13.9502 32.5335ZM22.7235 24.6703L22.7252 23.6703C22.3752 23.6697 22.0886 23.8294 21.9637 23.9025C21.7963 24.0005 21.626 24.1264 21.4638 24.2576C21.1364 24.5225 20.7521 24.8831 20.3448 25.2903C19.5254 26.1094 18.5401 27.1904 17.5984 28.2574C16.6539 29.3275 15.7422 30.3961 15.0674 31.1964C14.7297 31.5968 14.4508 31.9305 14.2562 32.1644C14.1589 32.2813 14.0827 32.3733 14.0306 32.4362C14.0046 32.4677 13.9846 32.4919 13.9711 32.5082C13.9643 32.5164 13.9591 32.5227 13.9557 32.5269C13.9539 32.529 13.9526 32.5306 13.9517 32.5317C13.9512 32.5323 13.9509 32.5327 13.9506 32.533C13.9505 32.5331 13.9504 32.5333 13.9504 32.5333C13.9503 32.5334 13.9502 32.5335 14.7221 33.1693C15.4939 33.8051 15.4939 33.8051 15.494 33.805C15.494 33.805 15.4941 33.8049 15.4942 33.8048C15.4944 33.8046 15.4946 33.8042 15.495 33.8038C15.4958 33.8028 15.497 33.8013 15.4987 33.7994C15.5019 33.7954 15.5068 33.7895 15.5133 33.7816C15.5264 33.7658 15.5458 33.7422 15.5713 33.7114C15.6223 33.6498 15.6975 33.5592 15.7936 33.4437C15.9858 33.2127 16.2618 32.8823 16.5962 32.4858C17.2655 31.6922 18.1668 30.6358 19.0979 29.5809C20.0316 28.523 20.9842 27.4791 21.7587 26.7048C22.1484 26.3153 22.4751 26.012 22.7218 25.8124C22.8467 25.7114 22.9294 25.6547 22.9743 25.6284C23.0617 25.5772 22.947 25.6707 22.7219 25.6703L22.7235 24.6703Z" fill="#B08FC2"/>
</svg>
