<svg width="100" height="100" viewBox="0 0 100 100" fill="none" xmlns="http://www.w3.org/2000/svg">
<path d="M90.9547 59.4886C89.1726 67.4903 85.0592 74.7844 79.134 80.4496C73.2087 86.1148 65.7375 89.8969 57.6639 91.3183C49.5903 92.7396 41.2766 91.7364 33.7728 88.4354C26.2691 85.1343 19.912 79.6835 15.5044 72.7714C11.0969 65.8594 8.83663 57.7962 9.00919 49.6002C9.18175 41.4043 11.7793 33.4433 16.4739 26.7229C21.1685 20.0025 27.7494 14.8241 35.3854 11.8418C43.0215 8.8595 51.3701 8.20709 59.3767 9.96698C64.704 11.141 69.7475 13.354 74.2187 16.4792C78.6899 19.6044 82.501 23.5805 85.434 28.1801C88.3669 32.7797 90.3642 37.9124 91.3115 43.2847C92.2588 48.6569 92.1376 54.1632 90.9547 59.4886Z" fill="#FBF9DA"/>
<path d="M42.2333 88.0931C34.7875 86.462 27.9933 82.6579 22.7111 77.1627C17.4289 71.6674 13.8963 64.7282 12.5607 57.2239C11.225 49.7195 12.1465 41.9875 15.2083 35.0072C18.2701 28.0269 23.3345 22.1122 29.7603 18.0122C36.186 13.9123 43.6838 11.8114 51.3044 11.9758C58.9249 12.1401 66.3253 14.5622 72.5682 18.9354C78.8112 23.3086 83.616 29.4362 86.374 36.542C89.132 43.6478 89.7192 51.4123 88.0613 58.8521C85.8505 68.8005 79.7842 77.466 71.1929 82.9477C62.6017 88.4294 52.187 90.2798 42.2333 88.0931ZM84.0599 58.6013C85.665 51.9699 85.2716 45.0119 82.9293 38.6037C80.587 32.1955 76.4005 26.6238 70.8973 22.5906C65.3942 18.5574 58.8204 16.2432 52.0043 15.9393C45.1882 15.6355 38.4346 17.3558 32.5945 20.8833C26.7543 24.4109 22.0887 29.588 19.1855 35.7624C16.2824 41.9367 15.2715 48.8322 16.2802 55.5801C17.289 62.328 20.2722 68.6264 24.8541 73.6819C29.436 78.7373 35.4116 82.3237 42.0281 83.9891C46.4555 85.102 51.0595 85.3271 55.5744 84.6514C60.0893 83.9757 64.4257 82.4126 68.3334 80.0523C72.2411 77.692 75.6427 74.5813 78.3419 70.8995C81.0411 67.2178 82.9844 63.038 84.0599 58.6013Z" fill="#B9BAFE"/>
<path d="M55.5001 26.728L59.3761 27.583L59.1253 28.723C58.7947 30.2392 58.4869 31.7554 58.1221 33.283C57.9967 33.8416 58.1221 34.024 58.6921 34.2292C60.2636 34.7512 61.7889 35.4033 63.2521 36.1786C66.9115 38.3218 68.1655 41.719 66.9571 45.7888C66.7488 46.5337 66.4936 47.2648 66.1933 47.9776C65.803 48.8311 65.2217 49.5834 64.4942 50.1764C63.7668 50.7694 62.9128 51.1873 61.9981 51.3976L60.5731 51.7738C61.1431 52.1728 61.7131 52.5034 62.1577 52.9138C63.4748 53.8743 64.4783 55.2029 65.0423 56.7323C65.6062 58.2618 65.7052 59.9238 65.3269 61.5094C65.0794 63.1246 64.5136 64.6745 63.6625 66.0694C63.0807 66.973 62.3224 67.7498 61.433 68.3532C60.5437 68.9565 59.5416 69.374 58.4869 69.5806C56.0237 70.0407 53.4939 70.0097 51.0427 69.4894C50.4613 69.3868 50.2105 69.4894 50.0965 70.0936C49.8001 71.587 49.4125 73.0576 49.0933 74.5396C49.0135 74.9044 48.8653 75.0982 48.4777 75.007L45.1603 74.2888C45.2743 73.7872 45.3655 73.3426 45.4681 72.8866C45.7417 71.6326 46.0039 70.3672 46.3003 69.1132C46.4029 68.6914 46.3003 68.4748 45.8557 68.3836C45.1261 68.2582 44.3965 68.0758 43.5757 67.9048C43.1539 69.8542 42.7435 71.7124 42.3331 73.6048L38.4457 72.7498C38.8675 70.8574 39.2665 68.9878 39.6997 67.0498L30.0781 64.9522C30.5683 62.752 31.0243 60.6316 31.5031 58.4314L34.3417 59.0584C35.9833 51.58 37.5907 44.2384 39.2209 36.7258L36.4051 36.1102L37.8301 29.6236L47.3947 31.7098C47.8621 29.5552 48.3181 27.4918 48.7741 25.3828L52.6273 26.215C52.1713 28.2784 51.7267 30.3418 51.2593 32.4622L54.1093 33.0892L55.5001 26.728ZM49.2415 52.948C48.6031 52.8112 47.9533 52.6858 47.3263 52.5262C46.9045 52.4122 46.7335 52.5262 46.6423 52.9594C46.0951 55.5358 45.5023 58.1236 44.9551 60.7C44.8411 61.1902 45.0121 61.3612 45.4681 61.4524C46.6081 61.669 47.7481 61.9426 48.8881 62.1706C49.8985 62.4255 50.9677 62.2931 51.8855 61.7995C52.8032 61.3058 53.503 60.4866 53.8471 59.503C54.1604 58.8879 54.3226 58.2069 54.3202 57.5165C54.3178 56.8262 54.1508 56.1464 53.8332 55.5334C53.5156 54.9205 53.0565 54.3921 52.4939 53.992C51.9313 53.5919 51.2814 53.3318 50.5981 53.233L49.2415 52.948ZM48.8425 42.9274C48.6031 44.0674 48.3751 45.1162 48.1129 46.2106C48.0331 46.5868 48.1129 46.792 48.5005 46.8604C49.6405 47.0884 50.8375 47.3734 52.0117 47.5444C52.6072 47.652 53.2215 47.5493 53.7497 47.2541C54.2779 46.9588 54.6871 46.4892 54.9073 45.9256C55.2344 45.1769 55.4569 44.3866 55.5685 43.5772C55.6417 43.1479 55.6287 42.7083 55.5303 42.2841C55.4319 41.8599 55.2501 41.4595 54.9955 41.1062C54.7409 40.7529 54.4185 40.4538 54.0471 40.2263C53.6758 39.9988 53.2629 39.8474 52.8325 39.781C51.9661 39.5872 51.0883 39.4162 50.2333 39.1996C49.8115 39.097 49.6405 39.1996 49.5607 39.6328C49.3327 40.6816 49.0819 41.776 48.8425 42.8704V42.9274Z" fill="#B9BAFE"/>
<path d="M79.5672 31.8219C82.114 35.6148 83.8775 39.8782 84.7542 44.3619C85.617 48.8658 85.5782 53.4961 84.6402 57.9849C83.7029 62.4865 81.8649 66.752 79.2366 70.5249C76.6202 74.3199 73.2733 77.5549 69.3917 80.0409C65.5101 82.5269 61.1717 84.2138 56.6304 85.0029C52.093 85.8058 47.4403 85.6856 42.9504 84.6495C38.4801 83.6206 34.2572 81.7183 30.5244 79.0521C26.8334 76.3752 23.7102 72.9925 21.3359 69.0999C25.0941 74.7392 30.4192 79.1564 36.6558 81.8078C42.8923 84.4591 49.7681 85.229 56.4366 84.0225C65.3166 82.3624 73.2027 77.3135 78.4272 69.9435C82.3119 64.3897 84.4893 57.8219 84.6918 51.0473C84.8943 44.2727 83.1132 37.5865 79.5672 31.8105V31.8219Z" fill="white"/>
<path d="M21.1291 68.9758C18.5941 65.1804 16.8422 60.9171 15.9763 56.4358C15.1266 51.9099 15.1809 47.2607 16.1359 42.7558C17.0841 38.2518 18.9338 33.9863 21.5737 30.2158C24.2008 26.4264 27.5591 23.2005 31.4511 20.7278C35.3432 18.2552 39.6903 16.5857 44.2369 15.8176C48.7761 15.0188 53.4302 15.1506 57.9169 16.2052C62.3877 17.2659 66.6036 19.2033 70.3201 21.9052C73.9948 24.5888 77.0957 27.9804 79.4401 31.8802C74.3986 24.2989 66.5996 18.9823 57.7003 17.0602C53.3222 16.1245 48.8041 16.0471 44.3965 16.8322C35.5215 18.4693 27.6267 23.4832 22.3717 30.82C18.4706 36.3608 16.2737 42.9208 16.0509 49.6935C15.8281 56.4662 17.5892 63.1564 21.1177 68.9416L21.1291 68.9758Z" fill="#F499B2"/>
<path d="M36.4277 36.0054L36.7013 34.3638C36.8039 33.8166 36.8837 33.2238 36.9977 32.7336L37.6247 29.4618V29.2452H37.8641C41.0675 29.8836 44.2481 30.579 47.4287 31.3314L47.1551 31.5138L47.9303 28.3674L48.3407 26.7942C48.4775 26.2698 48.6143 25.7454 48.7625 25.2324C48.6827 25.7682 48.5915 26.2926 48.5003 26.8284L48.2153 28.4244L47.5997 31.605V31.833H47.3603C44.1683 31.1946 40.9763 30.4878 37.7957 29.7468L38.0693 29.5644L37.2827 32.7906C37.1573 33.3264 36.9977 33.8622 36.8609 34.398C36.7241 34.9338 36.5873 35.4696 36.4277 36.0054Z" fill="white"/>
<path d="M30.0996 64.8465C30.2934 63.7065 30.4986 62.6577 30.7038 61.5633C30.909 60.4689 31.137 59.3859 31.3422 58.2915V58.1205H31.5246L34.3746 58.6905L34.0896 58.8729L35.2296 53.2755C35.6286 51.4173 36.0618 49.5591 36.4722 47.7009C36.8826 45.8427 37.3272 43.9845 37.7718 42.1263C38.2164 40.2681 38.6724 38.4327 39.1512 36.5859C38.8206 38.4555 38.4786 40.3365 38.1024 42.2061C37.7262 44.0757 37.3614 45.9453 36.9624 47.8035C36.5634 49.6617 36.1872 51.5313 35.7654 53.3895L34.6026 58.9983V59.2263H34.3746L31.5474 58.5537L31.764 58.4169C31.5018 59.5569 31.251 60.5829 30.9774 61.6545C30.7038 62.7261 30.3846 63.7635 30.0996 64.8465Z" fill="white"/>
<path d="M45.4688 61.3919C46.0958 61.4603 46.7227 61.5743 47.3497 61.6655L49.2194 61.9961C49.8093 62.076 50.4095 62.0245 50.9771 61.8451C51.5448 61.6658 52.0657 61.3631 52.5026 60.9587C53.3673 60.1085 53.8836 58.9662 53.9504 57.7553C54.0069 57.148 53.941 56.5355 53.7565 55.9541C53.5799 55.3524 53.2811 54.7935 52.8788 54.3125C53.3594 54.7413 53.7418 55.2689 53.9995 55.8592C54.2573 56.4495 54.3844 57.0885 54.3721 57.7325C54.3763 58.3999 54.2451 59.0612 53.9865 59.6765C53.7279 60.2917 53.3471 60.8482 52.8673 61.3121C52.3721 61.7713 51.7747 62.1059 51.1245 62.2883C50.4742 62.4707 49.7899 62.4956 49.1281 62.3609C47.8969 62.0873 46.6772 61.7681 45.4688 61.3919Z" fill="white"/>
<path d="M48.6484 46.8365C49.6858 46.9505 50.7346 47.1215 51.7378 47.2811C52.2207 47.299 52.7011 47.2055 53.142 47.0078C53.5829 46.8101 53.9723 46.5135 54.28 46.1411C54.9086 45.3735 55.2653 44.4195 55.2946 43.4278C55.3604 42.4037 55.1182 41.3834 54.5992 40.498C55.3145 41.3086 55.7185 42.347 55.7392 43.4278C55.7833 44.5411 55.4184 45.6319 54.7132 46.4945C54.3425 46.9186 53.8728 47.2445 53.3458 47.4434C52.8187 47.6423 52.2507 47.7079 51.6922 47.6344C50.6206 47.4634 49.6516 47.1443 48.6484 46.8365Z" fill="white"/>
<path d="M39.7227 66.9453C39.6586 68.9062 39.2335 70.8385 38.4688 72.6453C38.5367 70.6849 38.9616 68.7533 39.7227 66.9453Z" fill="white"/>
<path d="M46.2543 68.4492C46.2362 69.4284 46.1139 70.4029 45.8895 71.3562C45.6976 72.3122 45.4034 73.2448 45.0117 74.1378C45.0204 73.1586 45.1389 72.1835 45.3651 71.2308C45.5627 70.2749 45.8607 69.3425 46.2543 68.4492Z" fill="white"/>
<g clip-path="url(#clip0_10839_22152)">
<path opacity="0.7" d="M11.2833 31.3804C11.2833 31.3804 5.04322 47.7559 13.8125 64.2451C22.5818 80.7342 40.6441 89.4451 55.1007 96.8936C69.5573 104.342 84.5689 100.715 91.7021 88.5148C98.8353 76.3151 89.0521 67.6066 89.0386 50.2099C89.0252 32.8133 91.6014 28.2077 82.324 13.5107C73.0466 -1.18623 50.3042 -4.44085 33.1059 6.4602C15.9075 17.3612 11.2833 31.3804 11.2833 31.3804Z" fill="white"/>
<path d="M13.3282 31.2337C19.7787 19.1659 36.0057 5.07851 58.2669 10.9464C80.5281 16.8142 95.5688 29.2277 93.1046 50.8251C90.6403 72.4226 77.69 90.3673 49.7953 90.8927C21.9005 91.4181 -0.817294 57.696 13.3282 31.2337Z" fill="#A396DE"/>
<path opacity="0.7" d="M13.3282 31.2337C19.7787 19.1659 36.0057 5.07851 58.2669 10.9464C80.5281 16.8142 95.5688 29.2277 93.1046 50.8251C90.6403 72.4226 77.69 90.3673 49.7953 90.8927C21.9005 91.4181 -0.817294 57.696 13.3282 31.2337Z" fill="white"/>
<path d="M94.3614 48.3587L79.8312 50.6081C79.2761 50.694 78.8958 51.2136 78.9818 51.7687L80.3518 60.6188C80.4377 61.1738 80.9573 61.5541 81.5124 61.4682L96.0427 59.2188C96.5977 59.1328 96.978 58.6132 96.8921 58.0582L95.522 49.2081C95.4361 48.6531 94.9165 48.2728 94.3614 48.3587Z" stroke="#561706" stroke-width="0.224" stroke-linecap="round" stroke-linejoin="round"/>
<path d="M79.2031 53.197L95.7433 50.6367" stroke="#561706" stroke-width="0.224" stroke-linecap="round" stroke-linejoin="round"/>
<path d="M94.4492 53.5395L91.7773 53.9531L92.3729 57.8004L95.0448 57.3868L94.4492 53.5395Z" stroke="#561706" stroke-width="0.224" stroke-linecap="round" stroke-linejoin="round"/>
<path d="M92.8618 54.5827C93.4262 53.9107 94.3536 54.3587 94.1363 56.4441L94.9629 56.854L95.0435 57.3782L92.3734 57.7926L92.2637 57.0915L93.2717 56.6995C93.2717 56.6995 92.3309 55.2166 92.8618 54.5827Z" stroke="#561706" stroke-width="0.224" stroke-linecap="round" stroke-linejoin="round"/>
<path d="M87.0684 59.2881C87.0684 59.2881 88.9992 59.3038 88.446 58.9185C87.8927 58.5332 87.8098 58.1435 88.2802 58.1368C88.7506 58.13 89.5391 59.0328 89.4764 58.4817C89.4136 57.9307 89.7541 58.2891 89.8191 58.3249C89.884 58.3608 90.4418 58.1368 90.4687 58.2017C90.4956 58.2667 90.4575 58.4481 92.2741 58.1681" stroke="#561706" stroke-width="0.224" stroke-linecap="round" stroke-linejoin="round"/>
<path d="M80.6055 54.9146L88.7053 53.6602" stroke="#561706" stroke-width="0.224" stroke-linecap="round" stroke-linejoin="round"/>
<path d="M80.748 55.8329L85.5193 55.0938" stroke="#561706" stroke-width="0.224" stroke-linecap="round" stroke-linejoin="round"/>
<path d="M81 57.4523L87.655 56.4219" stroke="#561706" stroke-width="0.224" stroke-linecap="round" stroke-linejoin="round"/>
<path d="M83.0645 51.3956L91.1867 50.1367" stroke="#561706" stroke-width="0.224" stroke-linecap="round" stroke-linejoin="round"/>
<path d="M5.71094 45.7223L23.8706 42.0957L30.2121 72.5418L10.91 76.6813L5.71094 45.7223Z" stroke="#561706" stroke-width="0.224" stroke-linecap="round" stroke-linejoin="round"/>
<path d="M10.1797 72.3373L29.4437 68.8496" stroke="#561706" stroke-width="0.224" stroke-linecap="round" stroke-linejoin="round"/>
<path d="M27.1606 66.2598L17.9609 67.9577" stroke="#561706" stroke-width="0.224" stroke-linecap="round" stroke-linejoin="round"/>
<path d="M25.7974 64.7324L23.1094 65.1289" stroke="#561706" stroke-width="0.224" stroke-linecap="round" stroke-linejoin="round"/>
<path d="M26.2078 61.623L12.4766 64.199" stroke="#561706" stroke-width="0.224" stroke-linecap="round" stroke-linejoin="round"/>
<path d="M8.08594 59.8663L26.8818 56.5488" stroke="#561706" stroke-width="0.224" stroke-linecap="round" stroke-linejoin="round" stroke-dasharray="0.22 0.45"/>
<path d="M28.0579 71.5566L16.6406 73.949" stroke="#561706" stroke-width="0.224" stroke-linecap="round" stroke-linejoin="round"/>
<path d="M27.7166 70.5918L22.3496 71.555" stroke="#561706" stroke-width="0.224" stroke-linecap="round" stroke-linejoin="round"/>
<path d="M24.8132 54.541L15.3984 56.4069" stroke="#561706" stroke-width="0.224" stroke-linecap="round" stroke-linejoin="round"/>
<path d="M24.0697 52.4512L21.0703 53.0403" stroke="#561706" stroke-width="0.224" stroke-linecap="round" stroke-linejoin="round"/>
<path d="M23.893 51L10.1797 53.6432" stroke="#561706" stroke-width="0.224" stroke-linecap="round" stroke-linejoin="round"/>
<path d="M22.648 43.9336L18.9453 44.6997" stroke="#561706" stroke-width="0.224" stroke-linecap="round" stroke-linejoin="round"/>
<path d="M10.1806 46.5664L6.98633 47.1869" stroke="#561706" stroke-width="0.224" stroke-linecap="round" stroke-linejoin="round"/>
<path d="M8.14844 48.9476C8.21505 48.7205 8.32946 48.5102 8.484 48.331C8.63854 48.1517 8.82962 48.0076 9.04444 47.9082" stroke="#561706" stroke-width="0.224" stroke-linecap="round" stroke-linejoin="round"/>
<path d="M9.56738 51.0003C9.17074 50.9534 8.8041 50.7657 8.53406 50.4714C8.26401 50.1771 8.10848 49.7957 8.0957 49.3965" stroke="#561706" stroke-width="0.224" stroke-linecap="round" stroke-linejoin="round"/>
<path d="M10.8131 50.6191C10.5857 50.8237 10.3028 50.9563 10 50.9999" stroke="#561706" stroke-width="0.224" stroke-linecap="round" stroke-linejoin="round"/>
<path d="M9.72461 47.7559C10.013 47.7653 10.2941 47.8493 10.5404 47.9996C10.7867 48.1499 10.9899 48.3614 11.1302 48.6136C11.2705 48.8658 11.3431 49.1499 11.3409 49.4385C11.3388 49.7271 11.2619 50.0101 11.1179 50.2602" stroke="#561706" stroke-width="0.224" stroke-linecap="round" stroke-linejoin="round"/>
<path d="M12.9917 48.177C12.6938 48.0829 12.3981 47.9754 12.0957 47.9082" stroke="#561706" stroke-width="0.224" stroke-linecap="round" stroke-linejoin="round"/>
<path d="M15.5302 48.392C15.2771 48.9946 13.8614 48.4458 13.4492 48.3203" stroke="#561706" stroke-width="0.224" stroke-linecap="round" stroke-linejoin="round"/>
<path d="M13.1074 46.793L15.7551 47.4157C15.7125 47.5926 15.6789 47.7718 15.6453 47.9488" stroke="#561706" stroke-width="0.224" stroke-linecap="round" stroke-linejoin="round"/>
<path d="M11.7969 47.4165C12.0791 46.7445 11.9671 46.5205 12.6705 46.684" stroke="#561706" stroke-width="0.224" stroke-linecap="round" stroke-linejoin="round"/>
<path opacity="0.2" d="M68.2612 65.0735C68.2612 65.0735 67.4855 73.9167 68.6076 76.0618C69.7298 78.2069 70.2919 92.8634 69.7886 94.7067C69.7886 94.7067 72.5706 94.7193 74 93.5C75.4294 92.2807 76.3787 90.6865 80 89.5C83.6213 88.3135 83.0886 65.5929 83.0886 65.5929L83.1997 56.0128L77.2274 51L68.2612 65.0735Z" fill="black" fill-opacity="0.7"/>
<path d="M72.9878 71.0473C72.9646 71.1163 72.9272 71.1797 72.878 71.2333C72.085 71.9837 68.7004 72.817 65.7929 73.4173C63.3849 73.9168 61.3129 74.255 61.3129 74.255C61.3129 74.255 59.718 61.0009 59.718 59.6077C59.718 58.2144 57.1465 35.6576 57.1465 35.6576L63.311 35.391L71.4892 35.0371C71.4892 35.0371 71.5385 35.6397 71.6214 36.6925C72.1612 43.399 74.0159 68.4019 72.9878 71.0473Z" fill="#A396DE"/>
<mask id="mask0_10839_22152" style="mask-type:luminance" maskUnits="userSpaceOnUse" x="57" y="35" width="17" height="40">
<path d="M72.9858 71.0473C72.9626 71.1163 72.9253 71.1797 72.8761 71.2333C72.0831 71.9837 68.6985 72.817 65.7909 73.4173C63.3829 73.9168 61.3109 74.255 61.3109 74.255C61.3109 74.255 59.7161 61.0009 59.7161 59.6077C59.7161 58.2144 57.1445 35.6576 57.1445 35.6576L63.309 35.391L71.4873 35.0371C71.4873 35.0371 71.5365 35.6397 71.6194 36.6925C72.1592 43.399 74.014 68.4019 72.9858 71.0473Z" fill="white"/>
</mask>
<g mask="url(#mask0_10839_22152)">
<path opacity="0.2" d="M72.9861 71.0479L65.7912 72.5196L63.0741 73.0773C62.3371 72.3538 61.7749 72.3404 61.7749 72.3404L61.5509 70.3132L61.1992 66.9957L58.1035 37.8085C58.7755 37.3448 59.107 36.3301 59.107 36.3301L63.251 36.18L70.4302 35.918L71.6152 36.684C72.1595 43.3996 74.0142 68.4024 72.9861 71.0479Z" fill="black" fill-opacity="0.7"/>
<path d="M72.9861 71.0479L65.7912 72.5196L63.0741 73.0773C62.3371 72.3538 61.7749 72.3404 61.7749 72.3404L61.5509 70.3132L61.1992 66.9957L58.1035 37.8085C58.7755 37.3448 59.107 36.3301 59.107 36.3301L63.251 36.18L70.4302 35.918L71.6152 36.684C72.1595 43.3996 74.0142 68.4024 72.9861 71.0479Z" stroke="#561706" stroke-width="0.224" stroke-linecap="round" stroke-linejoin="round"/>
<path d="M62.1562 62.4537L64.5575 62.4492L64.5598 63.1996L63.8923 63.4371L62.3534 63.6051L62.1562 62.4537Z" fill="#A396DE" stroke="#561706" stroke-width="0.224" stroke-linecap="round" stroke-linejoin="round"/>
<path d="M62.3027 63.9999L64.0679 63.9395L64.5203 64.1545L64.4979 65.1513L62.4371 65.1737L62.3027 63.9999Z" fill="#A396DE" stroke="#561706" stroke-width="0.224" stroke-linecap="round" stroke-linejoin="round"/>
<path d="M62.5854 65.5929L64.6014 65.4473L64.579 66.2021L63.6046 66.5471L62.5742 66.4889L62.5854 65.5929Z" fill="#A396DE" stroke="#561706" stroke-width="0.224" stroke-linecap="round" stroke-linejoin="round"/>
<path d="M62.7071 66.8652L64.3355 66.9481L64.4834 67.3647L64.2459 67.824L62.7899 67.918L62.5391 67.208L62.7071 66.8652Z" fill="#A396DE" stroke="#561706" stroke-width="0.224" stroke-linecap="round" stroke-linejoin="round"/>
<path d="M64.5843 68.3242L64.8083 68.9761C64.8441 69.0453 64.8627 69.1221 64.8627 69.2001C64.8627 69.278 64.8441 69.3548 64.8083 69.4241C64.7667 69.4717 64.7135 69.5078 64.6539 69.529C64.5943 69.5502 64.5302 69.5557 64.4678 69.545C64.3424 69.5338 64.2192 69.4913 64.0938 69.4845C63.7152 69.4689 63.368 69.7802 62.9962 69.7085C62.8506 69.3053 62.4832 68.714 62.9805 68.5325C63.0723 68.5034 64.6381 68.4721 64.5843 68.3242Z" fill="#A396DE" stroke="#561706" stroke-width="0.224" stroke-linecap="round" stroke-linejoin="round"/>
<path d="M64.5766 70.1582C64.6122 70.3132 64.6376 70.4703 64.6528 70.6286C64.6755 70.7287 64.6722 70.8329 64.6432 70.9313C64.6142 71.0298 64.5604 71.1191 64.487 71.1908C64.3915 71.2433 64.2846 71.2718 64.1757 71.2737L62.8809 71.3902C62.862 71.1458 62.8583 70.9004 62.8697 70.6555C62.9459 70.3643 62.8921 70.3889 63.1677 70.2702C63.6045 70.0843 64.1286 70.38 64.5766 70.1582Z" fill="#A396DE" stroke="#561706" stroke-width="0.224" stroke-linecap="round" stroke-linejoin="round"/>
<path d="M59.8691 38.4707C59.8691 38.4707 60.3575 43.1904 60.3799 44.1245" stroke="#561706" stroke-width="0.224" stroke-linecap="round" stroke-linejoin="round"/>
<path d="M60.9219 38.5234L61.1504 41.1241" stroke="#561706" stroke-width="0.224" stroke-linecap="round" stroke-linejoin="round"/>
<path d="M64.5703 37.5391L64.866 40.5877L65.2804 40.628L65.146 37.5682L64.5703 37.5391Z" fill="#A396DE" stroke="#561706" stroke-width="0.224" stroke-linecap="round" stroke-linejoin="round"/>
<path opacity="0.2" d="M72.9865 71.0473C72.9634 71.1163 72.926 71.1797 72.8768 71.2333C72.0838 71.9837 68.6992 72.817 65.7916 73.4173V71.4013L61.5603 70.3171L60.9219 70.1536L61.2086 66.9997L62.304 54.9485L63.2604 36.1885L63.3008 35.391L71.488 35.0371C71.488 35.0371 71.5372 35.6397 71.6201 36.6925C72.16 43.399 74.0147 68.4019 72.9865 71.0473Z" fill="black" fill-opacity="0.7"/>
</g>
<path d="M72.9878 71.0473C72.9646 71.1163 72.9272 71.1797 72.878 71.2333C72.085 71.9837 68.7004 72.817 65.7929 73.4173C63.3849 73.9168 61.3129 74.255 61.3129 74.255C61.3129 74.255 59.718 61.0009 59.718 59.6077C59.718 58.2144 57.1465 35.6576 57.1465 35.6576L63.311 35.391L71.4892 35.0371C71.4892 35.0371 71.5385 35.6397 71.6214 36.6925C72.1612 43.399 74.0159 68.4019 72.9878 71.0473Z" stroke="#561706" stroke-width="0.224" stroke-linecap="round" stroke-linejoin="round"/>
<path d="M76.0095 90.9678C74.6463 77.2179 76.0235 91.7688 76.0095 90.9678C75.1814 88.7525 74.537 83.6474 72.327 80.373C70.117 77.0987 70.1193 73.2473 69.7518 69.9778C69.3842 66.7083 69.475 66.9907 69.568 64.0888C69.6351 61.909 69.5426 59.727 69.2912 57.562C69.1074 55.6339 68.7399 52.2427 69.2912 50.6627C69.8425 49.0828 71.2848 48.7152 72.8644 50.2976C74.4439 51.88 75.0883 58.3678 75.0883 59.1688C75.0883 59.9697 75.0883 62.4724 75.642 63.4364C75.642 63.4364 78.7708 61.7615 78.7708 61.2989C78.7708 60.8364 78.6778 56.7489 79.1384 56.5298L77.2983 50.2976L80.7877 49C81.4446 49.6165 82.0119 50.33 82.472 51.118C82.8658 51.7704 83.1955 52.4629 83.456 53.1849C84.9285 57.2723 87.2944 60.1231 87.7829 61.2989C88.2714 62.4748 87.7829 71.8134 87.7829 73.5492C87.7829 75.285 85.9721 82.6537 86 84C85.3742 81.2223 86.0209 84.9738 86 84C85.7837 83.3841 86.2326 85.0712 86 84L76.0095 90.9678Z" fill="white"/>
<path opacity="0.4" d="M79.978 56.4072C79.9556 56.8888 80.5313 60.7281 80.5313 60.7281C80.93 61.6846 78.7527 64.9461 78.7527 64.9461C78.2823 65.2104 78.0807 66.8501 78.0807 66.8501C76.6068 66.523 73.2311 63.1294 73.2311 63.1294C73.2311 63.1294 72.8324 64.5205 72.3844 67.9633C71.9364 71.4062 74.7767 79.5845 75.9863 85.2315C77.1959 90.8785 76.0132 88.4661 76.0132 88.4661C75.2157 86.4277 74.5953 81.7304 72.4673 78.7176C70.3393 75.7048 70.3415 72.1678 69.9876 69.1595C69.6337 66.1512 69.721 66.411 69.8106 63.7409C69.8753 61.7353 69.7861 59.7276 69.5441 57.7355C69.3671 55.9614 69.0132 52.8411 69.5441 51.3873C70.0749 49.9336 71.4637 49.5953 72.9847 51.0513C74.5057 52.5073 75.1261 58.4769 75.1261 59.2139C75.1261 59.9509 75.1261 62.2536 75.6593 63.1406C75.6593 63.1406 78.6721 61.5995 78.6721 61.1739C78.6721 60.7483 78.5825 56.9873 79.026 56.7857L77.2541 51.0513L80.6141 49.8574C81.2466 50.4247 81.793 51.0812 82.2359 51.8062C81.1495 53.979 80.0004 56.107 79.978 56.4072Z" fill="#A396DE"/>
<path opacity="0.4" d="M85.2635 83.6969C85.4727 82.3151 86.0971 79.0309 86.4934 76.9811C86.0084 78.5818 85.2255 79.3924 85.2255 79.3924C85.2255 79.3924 86.5758 67.6467 86.7089 66.9304C86.842 66.2142 88.205 62.9945 87.7042 61C88.3698 62.1101 87.7042 70.947 87.7042 72.5891C87.7042 74.2312 86.2461 81.8015 86.2842 83.0751C85.4315 80.4473 86.3127 83.9963 86.2842 83.0751C84.4521 81.1405 85.0543 85.0857 85.2635 83.6969Z" fill="#A396DE"/>
<path d="M86.501 81.499C85.7931 79.4606 86.5279 82.731 86.501 81.499ZM86.501 81.499C86.4741 80.267 87.3567 74.0287 87.3567 72.4339C87.3567 70.839 87.8271 62.2419 87.3567 61.1622C86.8863 60.0825 84.6082 57.4572 83.1903 53.6963C82.6543 52.2256 81.7732 50.9051 80.621 49.8457L77.261 51.0396L79.0328 56.774C78.5848 56.9756 78.6789 60.7366 78.6789 61.1622C78.6789 61.5878 75.6661 63.1289 75.6661 63.1289C75.133 62.2329 75.133 59.9391 75.133 59.2022C75.133 58.4652 74.5125 52.4934 72.9915 51.0396C71.4706 49.5859 70.0795 49.9196 69.5509 51.3756C69.0223 52.8316 69.3739 55.9497 69.5509 57.7238C69.7933 59.7181 69.8824 61.728 69.8175 63.7359C69.7279 66.406 69.6383 66.1417 69.9944 69.1545C70.3506 72.1673 70.3483 75.711 72.4741 78.7238C74.5999 81.7366 75.2226 86.4339 76.02 88.4723" stroke="#561706" stroke-width="0.224" stroke-linecap="round" stroke-linejoin="round"/>
<path d="M75.6602 63.1289C75.6602 63.1289 76.191 65.6086 77.3872 66.8495" stroke="#561706" stroke-width="0.224" stroke-linecap="round" stroke-linejoin="round"/>
<path d="M75.9824 64.2598C75.9824 64.2598 78.2224 64.9452 79.1587 64.9878" stroke="#561706" stroke-width="0.224" stroke-linecap="round" stroke-linejoin="round"/>
<path d="M78.6719 61.162C78.6719 61.162 80.2668 60.4251 81.286 60.8686" stroke="#561706" stroke-width="0.224" stroke-linecap="round" stroke-linejoin="round"/>
<path d="M79.0254 56.7738C79.0254 56.7738 80.2664 56.6595 80.5307 56.0391" stroke="#561706" stroke-width="0.224" stroke-linecap="round" stroke-linejoin="round"/>
<path d="M72.877 79.3555C72.877 79.3555 75.2603 82.3145 75.9682 83.8198" stroke="#561706" stroke-width="0.224" stroke-linecap="round" stroke-linejoin="round"/>
<path d="M86.7358 66.4062C86.337 68.756 85.8039 75.1803 85.627 76.3317" stroke="#561706" stroke-width="0.224" stroke-linecap="round" stroke-linejoin="round"/>
<path d="M87.4968 61.9746C87.564 64.1026 87.0488 65.2092 87.0488 65.2092" stroke="#561706" stroke-width="0.224" stroke-linecap="round" stroke-linejoin="round"/>
<path d="M69.1761 32.1992L85.5997 36.5314C85.5997 36.5314 79.8273 54.0504 78.6557 56.2232L76.698 71.4955C76.698 71.4955 66.2058 71.0341 61.3809 69.5759C61.3809 69.5759 64.4317 53.6719 64.5953 51.5506C64.7588 49.4293 69.1761 32.1992 69.1761 32.1992Z" fill="#A396DE"/>
<mask id="mask1_10839_22152" style="mask-type:luminance" maskUnits="userSpaceOnUse" x="61" y="32" width="25" height="40">
<path d="M69.1761 32.1992L85.5997 36.5314C85.5997 36.5314 79.8273 54.0504 78.6557 56.2232L76.698 71.4955C76.698 71.4955 66.2058 71.0341 61.3809 69.5759C61.3809 69.5759 64.4317 53.6719 64.5953 51.5506C64.7588 49.4293 69.1761 32.1992 69.1761 32.1992Z" fill="white"/>
</mask>
<g mask="url(#mask1_10839_22152)">
<path opacity="0.2" d="M65.6444 50.6089L69.2643 35.1327C69.2643 35.1327 70.8211 34.3599 71.4236 33.6543L83.1904 37.0009C83.1904 37.0009 83.2262 38.1545 83.9004 38.8937L77.9622 56.005L76.5219 68.6185C76.5219 68.6185 74.6067 68.7708 74.423 70.1865C74.423 70.1865 68.2137 70.5225 64.0496 69.4249C64.0496 69.4249 63.559 67.8949 62.8086 66.9273L65.6444 50.6089Z" fill="black" fill-opacity="0.7"/>
<path d="M65.6444 50.6089L69.2643 35.1327C69.2643 35.1327 70.8211 34.3599 71.4236 33.6543L83.1904 37.0009C83.1904 37.0009 83.2262 38.1545 83.9004 38.8937L77.9622 56.005L76.5219 68.6185C76.5219 68.6185 74.6067 68.7708 74.423 70.1865C74.423 70.1865 68.2137 70.5225 64.0496 69.4249C64.0496 69.4249 63.559 67.8949 62.8086 66.9273L65.6444 50.6089Z" stroke="#561706" stroke-width="0.224" stroke-linecap="round" stroke-linejoin="round"/>
<path d="M68.6568 51.413C68.6568 51.413 69.7253 47.381 73.4885 48.1045C77.2517 48.828 75.1259 53.7963 75.1259 53.7963C75.1259 53.7963 75.1483 57.8059 72.0952 57.2526C69.4475 56.7733 68.0363 55.3195 68.6568 51.413Z" fill="#A396DE" stroke="#561706" stroke-width="0.224" stroke-linecap="round" stroke-linejoin="round"/>
<path d="M70.695 36.6055C70.695 36.6055 69.5571 41.2131 69.2637 42.1002" stroke="#561706" stroke-width="0.224" stroke-linecap="round" stroke-linejoin="round"/>
<path d="M71.6689 37.0039L71.0059 39.5306" stroke="#561706" stroke-width="0.224" stroke-linecap="round" stroke-linejoin="round"/>
<path d="M79.9787 38.7754L82.2433 39.5728L81.9947 40.2829H81.2868L79.7793 39.929L79.9787 38.7754Z" fill="#A396DE" stroke="#561706" stroke-width="0.224" stroke-linecap="round" stroke-linejoin="round"/>
<path d="M79.6025 40.2832L81.287 40.8141L81.6409 41.168L81.287 42.0998L79.3359 41.4346L79.6025 40.2832Z" fill="#A396DE" stroke="#561706" stroke-width="0.224" stroke-linecap="round" stroke-linejoin="round"/>
<path d="M79.3345 41.877L81.2855 42.4146L81.01 43.1179H79.9774L79.0254 42.7192L79.3345 41.877Z" fill="#A396DE" stroke="#561706" stroke-width="0.224" stroke-linecap="round" stroke-linejoin="round"/>
<path d="M79.0252 43.1191L80.5305 43.7396V44.1809L80.1542 44.5371L78.752 44.1383V43.3835L79.0252 43.1191Z" fill="#A396DE" stroke="#561706" stroke-width="0.224" stroke-linecap="round" stroke-linejoin="round"/>
<path d="M80.3086 45.1181V45.808C80.3203 45.884 80.314 45.9617 80.2902 46.0348C80.2665 46.1079 80.226 46.1745 80.172 46.2292C80.1163 46.2595 80.0539 46.2755 79.9905 46.2755C79.9271 46.2755 79.8647 46.2595 79.8091 46.2292C79.6949 46.1754 79.5851 46.0948 79.4776 46.0477C79.1259 45.9066 78.6936 46.0836 78.3576 45.8954C78.3576 45.4676 78.2075 44.7888 78.7361 44.7754C78.8235 44.7821 80.3086 45.2749 80.3086 45.1181Z" fill="#A396DE" stroke="#561706" stroke-width="0.224" stroke-linecap="round" stroke-linejoin="round"/>
<path d="M79.689 46.8454C79.6721 47.0034 79.6436 47.1598 79.6038 47.3136C79.5546 47.513 79.4582 47.7347 79.2589 47.7885C79.1515 47.8063 79.0414 47.7971 78.9386 47.7616L77.6797 47.4301C77.7406 47.1944 77.8154 46.9625 77.9037 46.7357C78.0739 46.487 78.0157 46.4915 78.3136 46.4714C78.7974 46.4512 79.1917 46.9059 79.689 46.8454Z" fill="#A396DE" stroke="#561706" stroke-width="0.224" stroke-linecap="round" stroke-linejoin="round"/>
<path d="M75.4385 37.3145L74.6836 40.2825L75.0599 40.4594L75.9694 37.534L75.4385 37.3145Z" fill="#A396DE" stroke="#561706" stroke-width="0.224" stroke-linecap="round" stroke-linejoin="round"/>
<path d="M65.9777 57.2461L68.3029 57.8487L68.1147 58.5744L67.4091 58.6371L65.877 58.4109L65.9777 57.2461Z" fill="#A396DE" stroke="#561706" stroke-width="0.224" stroke-linecap="round" stroke-linejoin="round"/>
<path d="M65.7322 58.7812L67.4547 59.1665L67.84 59.4891L67.5667 60.4478L65.5664 59.9505L65.7322 58.7812Z" fill="#A396DE" stroke="#561706" stroke-width="0.224" stroke-linecap="round" stroke-linejoin="round"/>
<path d="M65.6046 60.3926L67.5937 60.7599L67.3787 61.4835L66.3505 61.5731L65.3672 61.2572L65.6046 60.3926Z" fill="#A396DE" stroke="#561706" stroke-width="0.224" stroke-linecap="round" stroke-linejoin="round"/>
<path d="M65.401 61.6543L66.9555 62.1449L66.9936 62.5861L66.6487 62.9714L65.2173 62.6937L65.1523 61.9433L65.401 61.6543Z" fill="#A396DE" stroke="#561706" stroke-width="0.224" stroke-linecap="round" stroke-linejoin="round"/>
<path d="M66.849 63.5392L66.9095 64.2269C66.9279 64.3018 66.9283 64.38 66.9108 64.4551C66.8933 64.5303 66.8583 64.6002 66.8087 64.6592C66.756 64.6942 66.6952 64.7152 66.6322 64.7203C66.5691 64.7254 66.5058 64.7144 66.4481 64.6884C66.3294 64.6458 66.2241 64.5741 66.1009 64.5383C65.7402 64.4263 65.3236 64.6391 64.9809 64.48C64.9406 64.0544 64.7367 63.3914 65.2609 63.3399C65.3415 63.3354 66.8625 63.696 66.849 63.5392Z" fill="#A396DE" stroke="#561706" stroke-width="0.224" stroke-linecap="round" stroke-linejoin="round"/>
<path d="M66.3807 65.3128C66.3776 65.4757 66.3626 65.6382 66.3359 65.7989C66.3023 66.0005 66.2262 66.2312 66.0335 66.3006C65.9277 66.3276 65.8168 66.3276 65.711 66.3006L64.4297 66.0766C64.4728 65.836 64.5304 65.5981 64.6022 65.3643C64.75 65.1022 64.6918 65.1112 64.9875 65.0664C65.4579 64.997 65.8879 65.4158 66.3807 65.3128Z" fill="#A396DE" stroke="#561706" stroke-width="0.224" stroke-linecap="round" stroke-linejoin="round"/>
<path d="M75.6602 67.4884C75.6602 67.4884 76.1933 61.5434 76.1933 60.9453" stroke="#561706" stroke-width="0.224" stroke-linecap="round" stroke-linejoin="round"/>
<path d="M74.5957 67.2206C74.5957 67.2206 74.8197 64.1294 74.86 63.5918" stroke="#561706" stroke-width="0.224" stroke-linecap="round" stroke-linejoin="round"/>
<path d="M70.4397 64.9883L69.7207 68.5073H70.4397L70.9617 64.9883H70.4397Z" fill="#A396DE" stroke="#561706" stroke-width="0.224" stroke-linecap="round" stroke-linejoin="round"/>
<path opacity="0.2" d="M78.6949 56.135C77.1403 55.8102 75.7537 55.3331 74.7278 54.6454C74.7278 54.6454 75.4715 56.7824 78.108 60.4246L76.6901 71.4947C76.6901 71.4947 69.8424 71.1945 64.668 70.3097C66.2584 65.8297 69.148 57.3401 68.8052 55.6579C68.3416 53.3484 69.979 50.6223 69.979 50.6223C75.1557 49.6905 80.1755 45.7772 83.6206 42.4688C81.8667 47.6544 79.4721 54.5983 78.6949 56.135Z" fill="black" fill-opacity="0.7"/>
</g>
<path d="M69.1761 32.1992L85.5997 36.5314C85.5997 36.5314 79.8273 54.0504 78.6557 56.2232L76.698 71.4955C76.698 71.4955 66.2058 71.0341 61.3809 69.5759C61.3809 69.5759 64.4317 53.6719 64.5953 51.5506C64.7588 49.4293 69.1761 32.1992 69.1761 32.1992Z" stroke="#561706" stroke-width="0.224" stroke-linecap="round" stroke-linejoin="round"/>
<path d="M78.2823 67.0738L75.9684 83.8201C75.4532 82.7247 74.0487 80.8566 73.3229 79.9225C73.0541 79.573 72.8749 79.3558 72.8749 79.3558L72.465 78.7241C70.3393 75.7113 70.3393 72.1676 69.9853 69.1548C69.6314 66.142 69.7188 66.4063 69.8084 63.7362C69.8735 61.7321 69.7852 59.7259 69.5441 57.7353C69.3671 55.9612 69.0132 52.8409 69.5441 51.3871C69.8039 50.6748 70.2721 50.2313 70.8589 50.1372C71.4458 50.0431 72.2029 50.3119 72.9847 51.0511C74.5057 52.5049 75.1261 58.4767 75.1261 59.2137C75.1261 59.9506 75.1261 62.2534 75.6593 63.1404C75.6593 63.1292 77.0884 65.8329 78.2823 67.0738Z" fill="white"/>
<path opacity="0.4" d="M72.2903 77.5297C72.7741 78.1479 73.1034 79.0394 73.3229 79.922C73.0541 79.5726 72.8749 79.3553 72.8749 79.3553L72.465 78.7236C70.3393 75.7108 70.3393 72.1671 69.9853 69.1543C69.6314 66.1415 69.7188 66.4058 69.8084 63.7358C69.8735 61.7316 69.7852 59.7254 69.5441 57.7348C69.3671 55.9607 69.0132 52.8404 69.5441 51.3866C69.8039 50.6743 70.2721 50.2308 70.8589 50.1367C71.9789 50.4548 73.0989 51.595 73.4887 53.546C74.1607 56.8209 71.13 54.1754 70.4289 56.9508C69.7277 59.7262 70.7469 60.4743 71.1658 61.1732C71.5847 61.8721 71.0493 63.4132 70.4289 65.483C69.8084 67.5527 70.962 75.8295 72.2903 77.5297Z" fill="#A396DE"/>
<path d="M78.2833 67.073C77.0871 65.832 75.6602 63.1283 75.6602 63.1283C75.1271 62.2323 75.1271 59.9386 75.1271 59.2016C75.1271 58.4647 74.5066 52.4928 72.9857 51.0391C71.4647 49.5853 70.0737 49.9191 69.545 51.3751C69.0164 52.8311 69.3681 55.9491 69.545 57.7232C69.7875 59.7175 69.8766 61.7275 69.8116 63.7354C69.722 66.4055 69.6324 66.1411 69.9886 69.1539C70.3447 72.1667 70.3425 75.7104 72.4682 78.7232L72.8782 79.3549C72.8782 79.3549 75.2615 82.3139 75.9694 83.8192" stroke="#561706" stroke-width="0.224" stroke-linecap="round" stroke-linejoin="round"/>
<path d="M70.4395 59.9859C70.4395 59.9859 72.4711 58.9354 73.4881 59.025" stroke="#561706" stroke-width="0.224" stroke-linecap="round" stroke-linejoin="round"/>
<path opacity="0.2" d="M39.0018 35.4375C39.0018 35.4375 33.873 30.707 33.5198 30.4167C33.1665 30.1264 32.9005 25.0812 31.9257 22.8601C30.9509 20.639 30.4791 7.59715 30.4791 7.59715C30.4791 7.59715 31.1178 5.48125 28.502 6C25.8861 6.51875 21.4196 9.59152 18.5019 10.9998C15.5842 12.4081 21.5786 29.6676 21.5786 29.6676L27.3223 44.9998L39.0018 35.4375Z" fill="black" fill-opacity="0.7"/>
<path d="M38.2407 49.9631C40.642 48.0143 42.9447 33.3043 42.9447 33.3043C42.9447 33.3043 38.6909 31.6175 35.7633 30.8179L31.9553 28.6943C31.6887 25.4262 30.8084 21.6943 29.2001 20.0099C28.3463 17.8656 27.3255 15.7917 26.1469 13.8073C25.5332 12.7814 24.8007 10.7791 24.0906 8.53906L13.6074 12.6134C14.4049 15.1401 14.4497 17.0867 16.3761 19.5708C18.3025 22.055 19.3687 31.0038 19.633 33.927C19.8973 36.8502 21.0509 36.9375 21.8484 39.863C22.6458 42.7884 22.6503 46.2447 23.8868 47.2191C25.1233 48.1935 27.6074 48.991 29.3793 50.4985C30.1229 51.1324 31.3863 51.4818 32.7751 51.5311C34.6925 51.5983 36.8541 51.0831 38.2407 49.9631Z" fill="white"/>
<path opacity="0.4" d="M42.9449 33.3039C42.9449 33.3039 40.6422 48.014 38.2409 49.9628C36.8544 51.0828 34.6928 51.598 32.7753 51.5308C28.2281 50.4108 27.0051 47.8751 26.3891 47.2614C25.5693 46.4438 24.4918 41.462 25.0832 38.5634C25.6745 35.6649 25.2489 34.5919 24.7606 33.1762C23.6787 30.0402 26.9782 28.3513 27.3187 27.1641C27.6592 25.9769 27.5427 19.3375 26.0576 17.1782C25.2691 16.029 23.2374 10.1065 24.0931 8.54297C24.8032 10.783 25.5356 12.7855 26.1494 13.8115C27.3279 15.7959 28.3488 17.8697 29.2025 20.014C30.8108 21.6985 31.6912 25.4303 31.9577 28.6985L35.7657 30.822C38.6912 31.6172 42.9449 33.3039 42.9449 33.3039Z" fill="#A396DE"/>
<path d="M25.5801 32.2695C25.5801 32.2695 24.7782 33.2126 24.0703 33.2126" stroke="#561706" stroke-width="0.224" stroke-linecap="round" stroke-linejoin="round"/>
<path d="M27.3259 35.457C27.3259 35.457 26.4635 37.2894 25.0859 37.697" stroke="#561706" stroke-width="0.224" stroke-linecap="round" stroke-linejoin="round"/>
<path d="M35.7676 30.8203C35.7676 30.8203 35.2793 31.4408 35.2793 31.9403" stroke="#561706" stroke-width="0.224" stroke-linecap="round" stroke-linejoin="round"/>
<path d="M26.1552 13.8164C27.3337 15.8008 28.3546 17.8747 29.2083 20.019C30.8167 21.7034 31.697 25.4375 31.9635 28.7057L35.7715 30.8292C38.6947 31.6266 42.9395 33.3111 42.9395 33.3111C42.9395 33.3111 40.6368 48.0212 38.2355 49.97C35.8343 51.9188 31.1683 51.9994 29.3763 50.4942C27.5843 48.9889 25.1203 48.1892 23.8839 47.2148C22.6474 46.2404 22.6429 42.7841 21.8455 39.8586C21.048 36.9332 19.8944 36.8458 19.6301 33.9226C19.3658 30.9994 18.2995 22.0506 16.3731 19.5665C14.4467 17.0823 15.2974 18.0272 14.5 15.5005" stroke="#561706" stroke-width="0.224" stroke-linecap="round" stroke-linejoin="round"/>
<path d="M48.3322 32.3496L24.8145 68.5503L30.3652 69.1685L47.2301 69.8696L48.9572 37.6696L48.3322 32.3496Z" fill="#5C3600" stroke="#561706" stroke-width="0.224" stroke-linecap="round" stroke-linejoin="round"/>
<path d="M48.3322 32.3479L46.1594 69.2519L24.8145 68.5508L26.4989 40.273L27.0231 31.4922L36.3236 31.8663L48.3322 32.3479Z" fill="#E3EB00"/>
<mask id="mask2_10839_22152" style="mask-type:luminance" maskUnits="userSpaceOnUse" x="24" y="31" width="25" height="39">
<path d="M48.3303 32.3479L46.1575 69.2519L24.8125 68.5508L26.497 40.273L27.0211 31.4922L36.3216 31.8663L48.3303 32.3479Z" fill="white"/>
</mask>
<g mask="url(#mask2_10839_22152)">
<path d="M42.9656 65.0034C44.4006 65.0034 45.564 63.8401 45.564 62.405C45.564 60.97 44.4006 59.8066 42.9656 59.8066C41.5305 59.8066 40.3672 60.97 40.3672 62.405C40.3672 63.8401 41.5305 65.0034 42.9656 65.0034Z" fill="#BBC9B6" stroke="#561706" stroke-width="0.224" stroke-miterlimit="10"/>
<path d="M42.2324 60.6797L43.9931 60.9104" stroke="#561706" stroke-width="0.224" stroke-linecap="round" stroke-linejoin="round"/>
<path d="M41.7598 61.1074L44.4052 61.365" stroke="#561706" stroke-width="0.224" stroke-linecap="round" stroke-linejoin="round"/>
<path d="M41.4668 63.7148L44.1145 63.9724" stroke="#561706" stroke-width="0.224" stroke-linecap="round" stroke-linejoin="round"/>
<path d="M42.6234 61.6974C42.6961 61.7155 42.773 61.7049 42.8381 61.6678C42.9032 61.6306 42.9514 61.5699 42.9728 61.498L43.1699 61.5182L42.9706 63.3886L42.6772 63.3573L42.8295 61.9304L42.6055 61.9057L42.6234 61.6974Z" fill="#5C3600"/>
<path d="M43.6031 61.7755C43.7196 61.7755 43.7733 61.8629 43.7599 61.9861V62.0085L43.6456 61.9973V61.9771C43.6456 61.9234 43.6322 61.8987 43.5941 61.8943C43.556 61.8898 43.5314 61.9099 43.5269 61.9637C43.5224 62.0175 43.5404 62.0645 43.612 62.1407C43.6484 62.1715 43.677 62.2105 43.6953 62.2545C43.7136 62.2985 43.7211 62.3463 43.7173 62.3938C43.7039 62.517 43.6367 62.5797 43.518 62.5663C43.3992 62.5528 43.3477 62.4767 43.3589 62.3557V62.3087L43.4709 62.3199V62.3759C43.4709 62.4296 43.4866 62.452 43.5247 62.4565C43.5628 62.461 43.5896 62.4431 43.5941 62.3893C43.5986 62.3355 43.5807 62.2885 43.509 62.2123C43.4726 62.1815 43.4441 62.1425 43.4258 62.0985C43.4075 62.0545 43.3999 62.0067 43.4037 61.9592C43.4194 61.8248 43.4888 61.7531 43.6031 61.7755Z" fill="#5C3600"/>
<path d="M43.8139 61.8066L44.1858 61.8447L44.1723 61.9545L44.0469 61.941L43.9775 62.5951L43.8587 62.5839L43.9282 61.9276L43.8027 61.9142L43.8139 61.8066Z" fill="#5C3600"/>
<path d="M37.516 33.987L33.3491 33.0777C33.2415 33.0542 33.1353 33.1224 33.1118 33.2299L32.5449 35.8277C32.5214 35.9353 32.5896 36.0415 32.6972 36.065L36.8641 36.9743C36.9717 36.9977 37.0779 36.9296 37.1014 36.822L37.6682 34.2242C37.6917 34.1167 37.6235 34.0104 37.516 33.987Z" fill="white" stroke="#561706" stroke-width="0.224" stroke-linecap="round" stroke-linejoin="round"/>
<path d="M34.08 35.6391L34.0643 35.6234C34.0643 35.6234 34.0643 35.5965 34.0531 35.5853C34.0424 35.5753 34.034 35.563 34.0284 35.5495C34.0275 35.5451 34.0275 35.5405 34.0284 35.536C34.0284 35.536 34.0396 35.536 34.0464 35.5204C34.0519 35.517 34.0566 35.5124 34.0601 35.507C34.0636 35.5016 34.0658 35.4954 34.0665 35.489C34.0657 35.4853 34.0657 35.4815 34.0665 35.4778H34.08C34.08 35.4352 34.0531 35.4039 34.0262 35.3703C33.9612 35.2896 33.9478 35.2493 33.9612 35.1956C33.9747 35.1418 33.9971 35.1261 34.0352 35.1328C34.0732 35.1396 34.0889 35.1664 34.0777 35.2202V35.2516L34.1897 35.2762V35.2516C34.2049 35.212 34.2042 35.168 34.188 35.1289C34.1717 35.0897 34.1411 35.0583 34.1024 35.041L34.1158 34.9872L34.0195 34.9648L34.0083 35.0208C33.9209 35.0208 33.8649 35.0768 33.8425 35.1776C33.834 35.2227 33.8371 35.2692 33.8516 35.3127C33.8661 35.3563 33.8915 35.3954 33.9254 35.4263C33.9904 35.5047 34.0038 35.5495 33.9904 35.601C33.9769 35.6525 33.9523 35.6704 33.9142 35.6615C33.8761 35.6525 33.8582 35.6279 33.8694 35.5764L33.8828 35.5159L33.7708 35.4912V35.5428C33.7616 35.5632 33.7565 35.5852 33.7559 35.6076C33.7553 35.63 33.7592 35.6523 33.7673 35.6732C33.7755 35.694 33.7877 35.7131 33.8033 35.7291C33.8189 35.7452 33.8376 35.758 33.8582 35.7668V35.8205L33.9545 35.8429L33.9657 35.7869H34.024C34.0416 35.7808 34.0576 35.7708 34.071 35.7578C34.0847 35.744 34.096 35.7282 34.1046 35.7108C34.08 35.6525 34.08 35.6458 34.08 35.6391Z" fill="#5C3600"/>
<path d="M34.6968 35.6019C34.6958 35.584 34.6912 35.5665 34.6834 35.5504C34.6812 35.5416 34.6812 35.5324 34.6834 35.5235C34.6868 35.5168 34.6923 35.5113 34.699 35.5079C34.7595 35.4541 34.6856 35.3824 34.6274 35.369C34.6072 35.364 34.5861 35.3642 34.5661 35.3697C34.5461 35.3752 34.5279 35.3858 34.5131 35.4003L34.5602 35.2256L34.7662 35.2704L34.7886 35.1629L34.4795 35.0957C34.473 35.1107 34.4685 35.1265 34.4661 35.1427C34.4661 35.1584 34.4862 35.1629 34.4862 35.1808C34.4862 35.1987 34.4862 35.1965 34.4862 35.2055C34.4903 35.2186 34.4991 35.2297 34.5109 35.2368C34.5221 35.2368 34.5333 35.257 34.531 35.2704C34.5326 35.2748 34.5326 35.2795 34.531 35.2839C34.5226 35.3045 34.5076 35.3217 34.4885 35.3331C34.4797 35.3348 34.4717 35.3396 34.4661 35.3466V35.36C34.4661 35.3757 34.4482 35.3847 34.4347 35.3936C34.4213 35.4026 34.3877 35.4743 34.3742 35.5235L34.4862 35.5482V35.5258C34.4974 35.472 34.5266 35.4586 34.5624 35.4653C34.5982 35.472 34.6206 35.4989 34.6072 35.5527L34.5714 35.7184C34.5714 35.7699 34.5333 35.7856 34.4952 35.7767C34.4571 35.7677 34.4392 35.7453 34.4504 35.6915L34.4661 35.6221L34.3541 35.5975L34.3406 35.6602C34.332 35.6845 34.3286 35.7104 34.3307 35.7361C34.3328 35.7618 34.3404 35.7868 34.3529 35.8093C34.3655 35.8319 34.3827 35.8515 34.4034 35.8669C34.4241 35.8823 34.4479 35.8931 34.4731 35.8985C34.4983 35.904 34.5244 35.904 34.5497 35.8986C34.5749 35.8932 34.5987 35.8824 34.6194 35.8671C34.6402 35.8517 34.6574 35.8321 34.67 35.8096C34.6826 35.787 34.6902 35.7621 34.6923 35.7363C34.7003 35.692 34.7018 35.6467 34.6968 35.6019Z" fill="#5C3600"/>
<path d="M36.1597 35.9164C36.1576 35.8987 36.1531 35.8813 36.1463 35.8649C36.1441 35.856 36.1441 35.8468 36.1463 35.838C36.1497 35.8312 36.1552 35.8258 36.1619 35.8223C36.2202 35.7686 36.1463 35.6969 36.0903 35.6834C36.0701 35.6784 36.0491 35.6787 36.029 35.6842C36.009 35.6897 35.9908 35.7002 35.976 35.7148L36.0231 35.5401L36.2291 35.5849L36.2515 35.4774L35.9424 35.4102C35.9349 35.4248 35.9303 35.4408 35.929 35.4572C35.929 35.4729 35.9469 35.4774 35.9491 35.4953C35.9514 35.5132 35.9491 35.511 35.9491 35.5199C35.9532 35.533 35.962 35.5442 35.9738 35.5513C35.985 35.5513 35.9962 35.5714 35.9939 35.5849C35.9917 35.5983 35.9939 35.5849 35.9939 35.5983C35.9853 35.6195 35.9695 35.637 35.9491 35.6476C35.9412 35.6499 35.9342 35.6546 35.929 35.661C35.929 35.661 35.929 35.661 35.929 35.6745C35.929 35.6879 35.9133 35.6991 35.8999 35.7081C35.8864 35.717 35.8528 35.7887 35.8394 35.838L35.9514 35.8626V35.8402C35.9626 35.7865 35.9917 35.773 36.0275 35.7798C36.0634 35.7865 36.0835 35.8134 36.0723 35.8671L36.0365 36.0329C36.0365 36.0844 35.9984 36.1001 35.9603 36.0911C35.9223 36.0822 35.9043 36.0598 35.9155 36.006L35.9312 35.9366L35.8192 35.9119L35.8058 35.9746C35.799 35.9982 35.7972 36.0229 35.8003 36.0472C35.8035 36.0715 35.8116 36.0949 35.8242 36.116C35.8367 36.137 35.8535 36.1553 35.8734 36.1696C35.8933 36.1839 35.9159 36.194 35.9399 36.1992C35.9638 36.2044 35.9886 36.2046 36.0126 36.1999C36.0367 36.1952 36.0595 36.1856 36.0797 36.1717C36.0999 36.1577 36.117 36.1398 36.13 36.1191C36.143 36.0983 36.1516 36.075 36.1552 36.0508C36.1642 36.0066 36.1657 35.9611 36.1597 35.9164Z" fill="#5C3600"/>
<path d="M34.9524 35.3811C34.9636 35.3274 34.9927 35.3117 35.0286 35.3206C35.0401 35.3222 35.0506 35.3278 35.0584 35.3364C35.0662 35.345 35.0707 35.3561 35.0711 35.3677H35.1092C35.1105 35.3742 35.1132 35.3803 35.1171 35.3857C35.1209 35.3912 35.1259 35.3957 35.1316 35.399C35.1451 35.4102 35.163 35.4169 35.1787 35.4281C35.186 35.4046 35.1884 35.3798 35.1854 35.3552C35.1825 35.3307 35.1745 35.3071 35.1618 35.286C35.1491 35.2648 35.132 35.2466 35.1118 35.2325C35.0915 35.2184 35.0685 35.2087 35.0443 35.2041C35.0196 35.1959 34.9933 35.1934 34.9675 35.1968C34.9417 35.2003 34.917 35.2096 34.8954 35.2241C34.8737 35.2386 34.8557 35.2579 34.8427 35.2804C34.8297 35.303 34.822 35.3282 34.8203 35.3542C34.8192 35.3684 34.8192 35.3826 34.8203 35.3968C34.8203 35.4326 34.8203 35.4214 34.8561 35.4349C34.8919 35.4483 34.9031 35.4662 34.8718 35.4774H34.8919C34.8919 35.4774 34.8919 35.4931 34.8919 35.4998C34.8919 35.5066 34.8919 35.511 34.8807 35.52C34.8828 35.5258 34.8828 35.5321 34.8807 35.5379C34.8807 35.5379 34.8628 35.567 34.8583 35.5715C34.8518 35.5826 34.8425 35.5918 34.8315 35.5984C34.8023 35.6163 34.7889 35.5984 34.7799 35.6432C34.771 35.688 34.7687 35.6925 34.7643 35.7149C34.7557 35.7394 34.7524 35.7655 34.7546 35.7914C34.7568 35.8172 34.7645 35.8424 34.7771 35.8651C34.7898 35.8878 34.8071 35.9075 34.828 35.9231C34.8488 35.9386 34.8727 35.9495 34.8981 35.9551C34.9235 35.9606 34.9498 35.9608 34.9752 35.9555C35.0006 35.9501 35.0246 35.9395 35.0457 35.9242C35.0667 35.9089 35.0842 35.8893 35.0971 35.8668C35.11 35.8442 35.1179 35.8191 35.1204 35.7933L35.1563 35.6365H35.1428C35.1163 35.6245 35.0908 35.6103 35.0667 35.5939L35.0465 35.576L35.0017 35.7776C35.0017 35.8313 34.9614 35.847 34.9255 35.8381C34.8897 35.8291 34.8695 35.8045 34.8807 35.7507L34.9457 35.4461C34.9442 35.4272 34.9489 35.4083 34.9591 35.3923L34.9524 35.3811Z" fill="#5C3600"/>
<path d="M35.504 35.75H35.5152C35.5152 35.7388 35.5152 35.7276 35.5152 35.7119H35.5645L35.6026 35.5394C35.6112 35.5149 35.6145 35.4888 35.6123 35.4629C35.6101 35.437 35.6024 35.4119 35.5897 35.3892C35.5771 35.3665 35.5597 35.3467 35.5389 35.3312C35.518 35.3157 35.4941 35.3048 35.4687 35.2992C35.4434 35.2936 35.4171 35.2935 35.3916 35.2988C35.3662 35.3041 35.3422 35.3148 35.3212 35.3301C35.3002 35.3454 35.2826 35.365 35.2698 35.3875C35.2569 35.4101 35.2489 35.4351 35.2464 35.461V35.4924C35.2621 35.5058 35.2711 35.5282 35.2867 35.5394C35.3024 35.5506 35.3271 35.5394 35.3203 35.5775C35.3136 35.6156 35.3069 35.6088 35.3203 35.62C35.3338 35.6312 35.336 35.62 35.3383 35.6357C35.341 35.6393 35.3425 35.6436 35.3425 35.648C35.3425 35.6525 35.341 35.6568 35.3383 35.6604C35.3383 35.6604 35.3226 35.6604 35.3203 35.6805C35.3181 35.7007 35.3203 35.7141 35.3069 35.7186C35.2935 35.7231 35.2643 35.6917 35.2397 35.694C35.2309 35.6965 35.2229 35.7014 35.2166 35.7081C35.2103 35.7148 35.2059 35.7231 35.2039 35.732C35.1924 35.7701 35.1842 35.8091 35.1792 35.8485C35.1711 35.8722 35.1682 35.8974 35.1709 35.9223C35.1736 35.9473 35.1818 35.9713 35.1948 35.9927C35.2079 36.0141 35.2255 36.0323 35.2464 36.0461C35.2673 36.0599 35.2911 36.0689 35.3159 36.0725C35.3413 36.0794 35.368 36.0805 35.3939 36.0758C35.4198 36.0712 35.4444 36.0609 35.4659 36.0456C35.4858 36.0285 35.5025 36.008 35.5152 35.9852C35.5253 35.9737 35.5309 35.959 35.5309 35.9437C35.5309 35.9285 35.5253 35.9137 35.5152 35.9023H35.504L35.4883 35.8485C35.4883 35.8485 35.4883 35.8485 35.504 35.8351C35.5197 35.8216 35.504 35.7925 35.5264 35.7768C35.5488 35.7612 35.4995 35.7544 35.504 35.75ZM35.4099 35.9023C35.3987 35.956 35.3696 35.9717 35.3315 35.9628C35.2935 35.9538 35.2755 35.9292 35.2867 35.8754L35.3763 35.4722C35.3875 35.4184 35.4144 35.4028 35.4525 35.4117C35.4906 35.4207 35.5085 35.4453 35.4973 35.4991L35.4099 35.9023Z" fill="#5C3600"/>
<path d="M35.7033 36.0285L35.6787 36.1428L35.5645 36.1181L35.5891 36.0039L35.7033 36.0285Z" fill="#5C3600"/>
<path d="M36.638 35.8295C36.6514 35.8295 36.6514 35.778 36.6559 35.7601C36.6645 35.7356 36.6678 35.7095 36.6656 35.6836C36.6634 35.6577 36.6557 35.6326 36.643 35.6099C36.6304 35.5872 36.6131 35.5674 36.5922 35.5519C36.5714 35.5364 36.5475 35.5255 36.5221 35.5199C36.4967 35.5143 36.4704 35.5142 36.445 35.5195C36.4195 35.5248 36.3955 35.5355 36.3745 35.5508C36.3535 35.5661 36.336 35.5857 36.3231 35.6082C36.3102 35.6308 36.3022 35.6558 36.2997 35.6817L36.2661 35.8318C36.2953 35.8587 36.2662 35.9012 36.2796 35.9326C36.293 35.9639 36.2796 35.9326 36.2796 35.946C36.2796 35.9595 36.246 35.9662 36.246 35.9841C36.246 35.9841 36.2281 36.011 36.2169 36.0244C36.2098 36.0351 36.2059 36.0475 36.2057 36.0603C36.1971 36.0848 36.1938 36.1109 36.196 36.1368C36.1982 36.1626 36.2059 36.1878 36.2185 36.2105C36.2312 36.2332 36.2485 36.2529 36.2694 36.2684C36.2902 36.284 36.3141 36.2949 36.3395 36.3005C36.3649 36.306 36.3912 36.3062 36.4166 36.3009C36.442 36.2955 36.4661 36.2849 36.4871 36.2696C36.5081 36.2543 36.5256 36.2347 36.5385 36.2121C36.5514 36.1896 36.5593 36.1645 36.5618 36.1387L36.5887 36.0155C36.5887 35.9841 36.629 35.9012 36.5887 35.8766C36.5484 35.8519 36.5708 35.8766 36.5663 35.8609C36.5636 35.8557 36.5621 35.85 36.5621 35.8441C36.5621 35.8382 36.5636 35.8325 36.5663 35.8273C36.5932 35.8049 36.6133 35.843 36.638 35.8295ZM36.5013 36.0267C36.5013 36.0401 36.4789 36.0446 36.4677 36.0625C36.4591 36.0848 36.4538 36.1082 36.4521 36.1319C36.4409 36.1857 36.4117 36.1991 36.3759 36.1924C36.3401 36.1857 36.3177 36.1588 36.3311 36.1051C36.3311 36.0894 36.3513 36.0446 36.3468 36.0311C36.3423 36.0177 36.3244 36.0311 36.3154 36.0043C36.3087 35.9808 36.3087 35.956 36.3154 35.9326C36.3165 35.9274 36.3165 35.9221 36.3154 35.9169C36.3154 35.9169 36.3042 35.8967 36.3154 35.8878C36.3154 35.8878 36.3154 35.8587 36.3154 35.8385C36.3871 35.8654 36.3849 35.7556 36.3961 35.7108C36.4073 35.666 36.4364 35.6414 36.4722 35.6503C36.5081 35.6593 36.5282 35.6839 36.517 35.7355C36.5018 35.7811 36.4928 35.8286 36.4901 35.8766C36.4995 35.878 36.5081 35.8826 36.5146 35.8895C36.5211 35.8964 36.5251 35.9052 36.526 35.9147C36.5237 35.9265 36.5237 35.9387 36.526 35.9505C36.526 35.9505 36.526 35.9707 36.526 35.9796C36.526 35.9886 36.5126 35.9796 36.5036 35.9796C36.4974 35.9821 36.4919 35.986 36.4876 35.9911C36.4833 35.9962 36.4803 36.0022 36.4789 36.0087L36.5013 36.0267Z" fill="#5C3600"/>
<path d="M35.3867 34.2012L36.1438 34.3669" stroke="#561706" stroke-width="0.224" stroke-linecap="round" stroke-linejoin="round"/>
<path d="M33.666 33.8242L35.01 34.1199" stroke="#561706" stroke-width="0.224" stroke-linecap="round" stroke-linejoin="round"/>
<path d="M33.5547 34.3438L34.4417 34.5364" stroke="#561706" stroke-width="0.224" stroke-linecap="round" stroke-linejoin="round"/>
<path opacity="0.4" d="M25.793 68.2244C26.9701 67.9165 28.1805 67.754 29.3971 67.7406C31.5834 67.6868 32.9811 68.1012 34.7731 67.2142C36.5651 66.3272 37.7277 67.9243 39.4413 67.0372C41.1549 66.1502 41.9501 64.73 42.9402 64.7614C43.9303 64.7928 45.4042 48.9268 45.879 46.1963C46.3539 43.4657 47.3642 35.8542 47.7114 34.3086L45.7603 68.7083L25.793 68.2244Z" fill="white"/>
<path d="M25.887 61.4551L31.3503 68.1012L25.5801 67.7428L25.887 61.4551Z" fill="#A396DE" stroke="#561706" stroke-width="0.224" stroke-linecap="round" stroke-linejoin="round"/>
<path d="M40.3858 48.3121L40.2984 50.8411C40.2863 51.1939 40.2047 51.541 40.0584 51.8623C39.9122 52.1837 39.704 52.473 39.4459 52.7139C39.1877 52.9548 38.8846 53.1425 38.5539 53.2662C38.2233 53.3899 37.8714 53.4473 37.5186 53.435L34.9202 53.3432C34.5663 53.331 34.2184 53.2491 33.8963 53.1021C33.5742 52.9552 33.2843 52.746 33.0433 52.4866C32.8022 52.2273 32.6148 51.9229 32.4918 51.5909C32.3687 51.2589 32.3125 50.9059 32.3263 50.5521L32.4427 47.2593C32.4678 46.5471 32.7748 45.8739 33.2961 45.3879C33.8174 44.9019 34.5103 44.6429 35.2226 44.6676L37.821 44.7572C37.8927 44.7572 37.9643 44.7572 38.045 44.7729C37.6814 45.1227 37.4519 45.5888 37.3964 46.0903C37.3409 46.5917 37.4629 47.0967 37.7412 47.5175C38.0195 47.9383 38.4365 48.2483 38.9197 48.3934C39.4029 48.5386 39.9216 48.5098 40.3858 48.3121Z" fill="#A396DE" stroke="#561706" stroke-width="0.224" stroke-linecap="round" stroke-linejoin="round"/>
<path d="M40.8553 46.1282C40.8472 46.3713 40.7672 46.6066 40.6253 46.8042C40.4835 47.0019 40.2862 47.153 40.0585 47.2385C39.8307 47.324 39.5828 47.34 39.3459 47.2846C39.1091 47.2291 38.894 47.1047 38.7279 46.9269C38.5617 46.7492 38.4521 46.5262 38.4127 46.2862C38.3733 46.0461 38.406 45.7998 38.5067 45.5783C38.6073 45.3569 38.7714 45.1703 38.9782 45.0421C39.1849 44.9139 39.425 44.8499 39.6681 44.8581C39.9937 44.8698 40.3015 45.01 40.524 45.248C40.7465 45.4861 40.8656 45.8026 40.8553 46.1282Z" fill="#A396DE" stroke="#561706" stroke-width="0.224" stroke-linecap="round" stroke-linejoin="round"/>
<path opacity="0.4" d="M33.0664 50.8655L36.8856 47.5996C36.8856 47.5996 36.4018 45.8502 36.8856 45.2969H35.051C34.6092 45.2954 34.1835 45.4627 33.8609 45.7645C33.5383 46.0663 33.343 46.48 33.315 46.9209L33.0664 50.8655Z" fill="white"/>
<path opacity="0.4" d="M39.1061 46.1948L39.9237 45.2988C39.9237 45.2988 39.4153 44.9561 39.1061 45.2988C38.797 45.6415 39.1061 46.1948 39.1061 46.1948Z" fill="white"/>
<path d="M38.707 65.709L44.8648 65.9755" stroke="#561706" stroke-width="0.224" stroke-linecap="round" stroke-linejoin="round"/>
<path d="M36.5742 66.3281L44.8645 66.7716" stroke="#561706" stroke-width="0.224" stroke-linecap="round" stroke-linejoin="round"/>
<path d="M42.6934 68.1016H44.8639" stroke="#561706" stroke-width="0.224" stroke-linecap="round" stroke-linejoin="round"/>
<path opacity="0.2" d="M35.1467 45.4832C31.9704 47.0109 28.5297 41.6595 27.3246 40.9226C27.0275 40.735 26.7505 40.5173 26.498 40.273L27.0222 31.4922L36.3204 31.8663C36.26 33.1744 36.2801 34.6192 36.5713 35.4503C37.1985 37.2624 38.3208 43.9578 35.1467 45.4832Z" fill="black" fill-opacity="0.7"/>
<path opacity="0.4" d="M31.5879 45.7568C31.5879 45.7568 34.1281 46.8588 35.2794 46.2048C36.4308 45.5507 37.6717 44.3008 37.8487 41.5254C37.8487 41.5254 39.3607 45.4342 36.3121 46.6057C33.2634 47.7772 31.5879 45.7568 31.5879 45.7568Z" fill="white"/>
<path opacity="0.4" d="M30.5977 47.3212C30.5977 47.3212 35.7497 48.7055 37.9538 46.2012C37.9538 46.2012 37.6581 47.5922 35.2793 47.9932C32.9004 48.3941 30.5977 47.3212 30.5977 47.3212Z" fill="white"/>
<path opacity="0.4" d="M38.8842 38.3705C38.4922 37.6739 38.9738 43.9347 38.9738 43.9347C38.9738 43.9347 39.6816 39.7996 38.8842 38.3705Z" fill="white"/>
</g>
<path d="M48.3322 32.3479L46.1594 69.2519L24.8145 68.5507L26.4989 40.273L27.0231 31.4922L36.3236 31.8663L48.3322 32.3479Z" stroke="#561706" stroke-width="0.224" stroke-linecap="round" stroke-linejoin="round"/>
<path opacity="0.4" d="M47.2519 69.449L46.4746 69.2519L48.3316 35.457L48.6608 37.6881L47.2519 69.449Z" fill="white"/>
<path d="M35.1471 45.4835C34.8534 45.6396 34.5267 45.7237 34.1941 45.7287C33.8615 45.7338 33.5325 45.6597 33.2342 45.5126C32.7178 45.2417 32.3012 44.8133 32.0447 44.2896C31.1599 42.6947 28.7654 39.0614 28.3241 38.0176C27.8828 36.9738 26.9062 34.0214 25.9318 32.7827C24.9574 31.544 24.4242 29.6803 24.4242 29.6803L24.0703 11.6035C24.6012 14.2176 26.0639 17.1856 26.0639 17.1856C27.3347 17.8469 28.4145 18.8233 29.1999 20.0214C29.4285 20.2649 29.6333 20.5297 29.8114 20.8122C31.2585 23.0522 31.9596 27.0842 32.0358 30.2202C32.1254 33.7661 33.2767 35.3722 35.1382 38.4611C36.9996 41.5501 36.3567 44.7958 35.1471 45.4835Z" fill="white"/>
<path opacity="0.4" d="M35.147 45.4822C34.8521 45.6345 34.5259 45.7164 34.194 45.7215C33.8621 45.7265 33.5335 45.6546 33.2341 45.5113C34.251 45.2336 35.5861 44.7116 35.2792 43.9433C34.7976 42.7158 33.3886 44.5369 32.6808 43.9433C31.973 43.3497 29.4014 39.9449 31.0344 38.4464C32.6674 36.9478 32.1544 34.4345 31.0344 33.7267C29.9144 33.0188 30.6424 31.3321 30.9963 28.6777C31.2203 27.0716 30.452 23.4339 29.8203 20.8086C31.2674 23.0486 31.9685 27.0806 32.0446 30.2166C32.1342 33.7625 33.2856 35.3686 35.147 38.4576C37.0085 41.5465 36.3566 44.8371 35.147 45.4822Z" fill="#A396DE"/>
<path d="M24.0703 11.5918C24.6012 14.2059 26.0639 17.1739 26.0639 17.1739C27.3347 17.8352 28.4145 18.8116 29.1999 20.0097C31.0614 21.9585 31.9484 26.6558 32.0358 30.1995C32.1231 33.7432 33.2767 35.3515 35.1382 38.4404C36.9996 41.5294 36.4822 44.7505 35.1382 45.483C34.2018 45.996 32.9228 45.884 32.0358 44.2891C31.1487 42.6942 28.7564 39.0609 28.3151 38.0171C27.8738 36.9732 26.8972 34.0209 25.9228 32.7822C24.9484 31.5435 24.4153 29.6798 24.4153 29.6798" stroke="#561706" stroke-width="0.224" stroke-linecap="round" stroke-linejoin="round"/>
<path d="M29.8242 37.6876C29.8242 37.6876 31.2713 37.5577 31.9343 37.0156" stroke="#561706" stroke-width="0.224" stroke-linecap="round" stroke-linejoin="round"/>
<path d="M23.8926 30.0352C23.8926 30.0352 23.6104 30.7072 25.0888 31.3792" stroke="#561706" stroke-width="0.224" stroke-linecap="round" stroke-linejoin="round"/>
</g>
<circle cx="50" cy="50" r="49" stroke="#D4CBCB" stroke-width="2"/>
<defs>
<clipPath id="clip0_10839_22152">
<rect width="100" height="100" fill="white"/>
</clipPath>
</defs>
</svg>
